{
.appVersion = "3124";
.formatVersion = 3;
DisplayStrings = (
"Ə"
);
axes = (
{
name = Weight;
tag = wght;
}
);
classes = (
{
automatic = 1;
code = "A Aacute Abreve Abreveacute Abrevedotbelow Abrevegrave Abrevehookabove Abrevetilde Acircumflex Acircumflexacute Acircumflexdotbelow Acircumflexgrave Acircumflexhookabove Acircumflextilde Adieresis Adotbelow Agrave Ahookabove Amacron Aogonek Aring Atilde AE B C Cacute Ccaron Ccedilla Cdotaccent D Eth Dcaron Dcroat E Eacute Ecaron Ecircumflex Ecircumflexacute Ecircumflexdotbelow Ecircumflexgrave Ecircumflexhookabove Ecircumflextilde Edieresis Edotaccent Edotbelow Egrave Ehookabove Emacron Eogonek Etilde F G Gbreve Gcommaaccent Gdotaccent Gmacron H Hbar I IJ Iacute Icircumflex Idieresis Idotaccent Idotbelow Igrave Ihookabove Imacron Iogonek Itilde J Jacute Jcircumflex K Kcommaaccent L Lacute Lcaron Lcommaaccent Lslash M N Nacute Ncaron Ncommaaccent Ntilde Eng O Oacute Ocircumflex Ocircumflexacute Ocircumflexdotbelow Ocircumflexgrave Ocircumflexhookabove Ocircumflextilde Odieresis Odotbelow Ograve Ohookabove Ohorn Ohungarumlaut Omacron Oslash Otilde OE P Thorn Q R Racute Rcaron Rcommaaccent S Sacute Scaron Scedilla Scommaaccent Germandbls Schwa T Tcaron Tcedilla Tcommaaccent U Uacute Ucircumflex Udieresis Udotbelow Ugrave Uhookabove Uhorn Uhungarumlaut Umacron Uogonek Uring Utilde V W Wacute Wcircumflex Wdieresis Wgrave X Y Yacute Ycircumflex Ydieresis Ydotbelow Ygrave Yhookabove Ytilde Z Zacute Zcaron Zdotaccent Lcommaaccent.loclMAH Ncommaaccent.loclMAH C.ss01 Cacute.ss01 Ccaron.ss01 Ccedilla.ss01 Cdotaccent.ss01";
name = Uppercase;
}
);
customParameters = (
{
name = fsType;
value = (
);
},
{
name = panose;
value = (
2,
11,
7,
3,
4,
0,
0,
2,
0,
4
);
},
{
name = "Use Typo Metrics";
value = 1;
}
);
date = "2022-04-29 18:12:07 +0000";
familyName = "Cal Sans";
featurePrefixes = (
{
automatic = 1;
code = "languagesystem DFLT dflt;

languagesystem latn dflt;
languagesystem latn AZE;
languagesystem latn CRT;

glyphs = (
{
glyphname = A;
kernLeft = A;
kernRight = A;
lastChange = "2022-04-29 18:10:09 +0000";
layers = (
{
anchors = (
{
name = bottom;
pos = (666,0);
},
{
name = ogonek;
pos = (1042,0);
},
{
name = top;
pos = (654,1400);
},
{
name = top_ring;
pos = (654,1238);
}
);
background = {
shapes = (
{
closed = 1;
nodes = (
(624,880,o),
(644,936,o),
(660,1006,c),
(652,1006,l),
(668,936,o),
(682,880,o),
(724,776,cs),
(866,432,l),
(896,336,l),
(1030,0,l),
(1332,0,l),
(758,1400,l),
(554,1400,l),
(-20,0,l),
(278,0,l),
(412,336,l),
(444,432,l),
(582,776,ls)
);
}
);
};
layerId = "1B5AC656-48C3-4864-953F-2CD31E7BA751";
shapes = (
{
closed = 1;
nodes = (
(266,0,l),
(386,332,l),
(416,414,l),
(604,890,ls),
(638,976,o),
(662,1074,o),
(674,1162,c),
(632,1162,l),
(644,1074,o),
(670,978,o),
(704,890,cs),
(892,414,l),
(922,332,l),
(1042,0,l),
(1346,0,l),
(776,1400,l),
(534,1400,l),
(-38,0,l)
);
},
{
closed = 1;
nodes = (
(1020,266,l),
(1020,508,l),
(262,508,l),
(262,266,l)
);
}
);
width = 1308;
},
{
anchors = (
{
name = bottom;
pos = (666,0);
},
{
name = ogonek;
pos = (1042,0);
},
{
name = top;
pos = (654,1400);
},
{
name = top_ring;
pos = (654,1238);
}
);
background = {
shapes = (
{
closed = 1;
nodes = (
(624,880,o),
(644,936,o),
(660,1006,c),
(652,1006,l),
(668,936,o),
(682,880,o),
(724,776,cs),
(866,432,l),
(896,336,l),
(1030,0,l),
(1332,0,l),
(758,1400,l),
(554,1400,l),
(-20,0,l),
(278,0,l),
(412,336,l),
(444,432,l),
(582,776,ls)
);
}
);
};
layerId = "6B540EA0-879E-4877-ADBF-1E90C7170424";
shapes = (
{
closed = 1;
nodes = (
(266,0,l),
(386,332,l),
(416,414,l),
(604,890,ls),
(638,976,o),
(662,1074,o),
(674,1162,c),
(632,1162,l),
(644,1074,o),
(670,978,o),
(704,890,cs),
(892,414,l),
(922,332,l),
(1042,0,l),
(1346,0,l),
(776,1400,l),
(534,1400,l),
(-38,0,l)
);
},
{
closed = 1;
nodes = (
(1020,266,l),
(1020,508,l),
(262,508,l),
(262,266,l)
);
}
);
width = 1308;
}
);
unicode = 65;
},
{
glyphname = Aogonek;
kernLeft = A;
kernRight = A;
lastChange = "2022-04-29 18:10:09 +0000";
layers = (
{
anchors = (
{
name = _ogonek;
pos = (1156,0);
}
);
background = {
shapes = (
{
closed = 1;
nodes = (
(1372,-426,o),
(1510,-288,o),
(1510,-118,cs),
(1510,54,o),
(1372,192,o),
(1204,192,cs),
(1030,192,o),
(892,54,o),
(892,-118,cs),
(892,-288,o),
(1030,-426,o),
(1204,-426,cs)
);
},
{
closed = 1;
nodes = (
(1268,-238,o),
(1324,-184,o),
(1324,-118,cs),
(1324,-50,o),
(1268,6,o),
(1204,6,cs),
(1134,6,o),
(1080,-50,o),
(1080,-118,cs),
(1080,-184,o),
(1134,-238,o),
(1204,-238,cs)
);
},
{
closed = 1;
nodes = (
(1032,-464,o),
(1260,-412,c),
(1260,-242,l),
(1154,-278,o),
(1078,-220,o),
(1078,-132,cs),
(1078,-44,o),
(1128,0,o),
(1212,0,c),
(1138,12,l),
(1042,0,l),
(964,-18,o),
(892,-86,o),
(892,-212,cs),
(892,-326,o)
);
}
);
};
layerId = "1B5AC656-48C3-4864-953F-2CD31E7BA751";
shapes = (
{
ref = A;
},
{
pos = (1042,0);
ref = ogonekcomb;
}
);
width = 1308;
},
{
anchors = (
{
name = _ogonek;
pos = (1156,0);
}
);
background = {
shapes = (
{
closed = 1;
nodes = (
(1372,-426,o),
(1510,-288,o),
(1510,-118,cs),
(1510,54,o),
(1372,192,o),
(1204,192,cs),
(1030,192,o),
(892,54,o),
(892,-118,cs),
(892,-288,o),
(1030,-426,o),
(1204,-426,cs)
);
},
{
closed = 1;
nodes = (
(1268,-238,o),
(1324,-184,o),
(1324,-118,cs),
(1324,-50,o),
(1268,6,o),
(1204,6,cs),
(1134,6,o),
(1080,-50,o),
(1080,-118,cs),
(1080,-184,o),
(1134,-238,o),
(1204,-238,cs)
);
},
{
closed = 1;
nodes = (
(1032,-464,o),
(1260,-412,c),
(1260,-242,l),
(1154,-278,o),
(1078,-220,o),
(1078,-132,cs),
(1078,-44,o),
(1128,0,o),
(1212,0,c),
(1138,12,l),
(1042,0,l),
(964,-18,o),
(892,-86,o),
(892,-212,cs),
(892,-326,o)
);
}
);
};
layerId = "6B540EA0-879E-4877-ADBF-1E90C7170424";
shapes = (
{
ref = A;
},
{
pos = (1042,0);
ref = ogonekcomb;
}
);
width = 1308;
}
);
unicode = 260;
},
{
glyphname = AE;
kernLeft = AE;
kernRight = E;
lastChange = "2022-04-29 18:10:09 +0000";
layers = (
{
anchors = (
{
name = bottom;
pos = (1180,0);
},
{
name = ogonek;
pos = (1834,0);
},
{
name = top;
pos = (1180,1400);
}
);
background = {
shapes = (
{
closed = 1;
nodes = (
(206,0,l),
(326,332,l),
(356,414,l),
(544,890,ls),
(578,976,o),
(602,1074,o),
(614,1162,c),
(572,1162,l),
(584,1074,o),
(630,796,o),
(644,890,cs),
(716,1400,l),
(474,1400,l),
(-98,0,l)
);
},
{
closed = 1;
nodes = (
(960,266,l),
(960,508,l),
(202,508,l),
(202,266,l)
);
},
{
closed = 1;
nodes = (
(1864,0,l),
(1864,252,l),
(1230,252,l),
(1320,162,l),
(1320,678,l),
(1230,590,l),
(1850,590,l),
(1850,834,l),
(1230,834,l),
(1320,746,l),
(1320,1238,l),
(1230,1148,l),
(1860,1148,l),
(1860,1400,l),
(1040,1400,l),
(1040,0,l)
);
}
);
};
layerId = "1B5AC656-48C3-4864-953F-2CD31E7BA751";
shapes = (
{
closed = 1;
nodes = (
(264,0,l),
(472,332,l),
(512,414,l),
(832,890,ls),
(888,974,o),
(962,1074,o),
(1000,1164,c),
(946,1144,l),
(1040,1144,l),
(1040,0,l),
(1864,0,l),
(1864,252,l),
(1266,252,l),
(1320,162,l),
(1320,678,l),
(1230,590,l),
(1850,590,l),
(1850,834,l),
(1230,834,l),
(1320,746,l),
(1320,1238,l),
(1230,1148,l),
(1860,1148,l),
(1860,1400,l),
(884,1400,l),
(-60,0,l)
);
},
{
closed = 1;
nodes = (
(1224,278,l),
(1224,498,l),
(358,498,l),
(358,278,l)
);
}
);
width = 1942;
},
{
anchors = (
{
name = bottom;
pos = (1180,0);
},
{
name = ogonek;
pos = (1834,0);
},
{
name = top;
pos = (1180,1400);
}
);
background = {
shapes = (
{
closed = 1;
nodes = (
(206,0,l),
(326,332,l),
(356,414,l),
(544,890,ls),
(578,976,o),
(602,1074,o),
(614,1162,c),
(572,1162,l),
(584,1074,o),
(630,796,o),
(644,890,cs),
(716,1400,l),
(474,1400,l),
(-98,0,l)
);
},
{
closed = 1;
nodes = (
(960,266,l),
(960,508,l),
(202,508,l),
(202,266,l)
);
},
{
closed = 1;
nodes = (
(1864,0,l),
(1864,252,l),
(1230,252,l),
(1320,162,l),
(1320,678,l),
(1230,590,l),
(1850,590,l),
(1850,834,l),
(1230,834,l),
(1320,746,l),
(1320,1238,l),
(1230,1148,l),
(1860,1148,l),
(1860,1400,l),
(1040,1400,l),
(1040,0,l)
);
}
);
};
layerId = "6B540EA0-879E-4877-ADBF-1E90C7170424";
shapes = (
{
closed = 1;
nodes = (
(264,0,l),
(472,332,l),
(512,414,l),
(832,890,ls),
(888,974,o),
(962,1074,o),
(1000,1164,c),
(946,1144,l),
(1040,1144,l),
(1040,0,l),
(1864,0,l),
(1864,252,l),
(1266,252,l),
(1320,162,l),
(1320,678,l),
(1230,590,l),
(1850,590,l),
(1850,834,l),
(1230,834,l),
(1320,746,l),
(1320,1238,l),
(1230,1148,l),
(1860,1148,l),
(1860,1400,l),
(884,1400,l),
(-60,0,l)
);
},
{
closed = 1;
nodes = (
(1224,278,l),
(1224,498,l),
(358,498,l),
(358,278,l)
);
}
);
width = 1942;
}
);
metricRight = E;
unicode = 198;
},
{
glyphname = B;
kernLeft = H;
kernRight = B;
lastChange = "2022-04-29 18:10:09 +0000";
layers = (
{
anchors = (
{
name = bottom;
pos = (594,0);
},
{
name = ogonek;
pos = (602,0);
},
{
name = top;
pos = (586,1400);
}
);
background = {
shapes = (
{
closed = 1;
nodes = (
(1592,556,ls),
(1906,556,o),
(2098,700,o),
(2098,976,cs),
(2098,1250,o),
(1906,1404,o),
(1592,1402,cs),
(1280,1400,l),
(1280,556,l)
);
},
{
closed = 1;
nodes = (
(1380,0,l),
(1380,1400,l),
(1100,1400,l),
(1100,0,l)
);
},
{
closed = 1;
nodes = (
(1380,1150,l),
(1576,1150,ls),
(1728,1150,o),
(1814,1086,o),
(1814,974,cs),
(1814,860,o),
(1728,796,o),
(1576,796,cs),
(1380,796,l)
);
},
{
closed = 1;
nodes = (
(2156,0,l),
(1790,678,l),
(1476,678,l),
(1842,0,l)
);
},
{
closed = 1;
nodes = (
(592,586,ls),
(906,586,o),
(1098,710,o),
(1098,976,cs),
(1098,1250,o),
(906,1404,o),
(592,1402,cs),
(280,1400,l),
(280,586,l)
);
},
{
closed = 1;
nodes = (
(380,0,l),
(380,1400,l),
(100,1400,l),
(100,0,l)
);
},
{
closed = 1;
nodes = (
(334,1150,l),
(576,1150,ls),
(728,1150,o),
(814,1086,o),
(814,974,cs),
(814,870,o),
(728,816,o),
(576,816,cs),
(334,816,l)
);
},
{
closed = 1;
nodes = (
(206,2,l),
(592,0,ls),
(906,-2,o),
(1098,152,o),
(1098,426,cs),
(1098,692,o),
(906,816,o),
(592,816,cs),
(206,816,l)
);
},
{
closed = 1;
nodes = (
(576,586,ls),
(728,586,o),
(814,532,o),
(814,428,cs),
(814,316,o),
(728,252,o),
(576,252,cs),
(362,252,l),
(362,586,l)
);
}
);
};
layerId = "1B5AC656-48C3-4864-953F-2CD31E7BA751";
shapes = (
{
closed = 1;
nodes = (
(622,0,ls),
(926,0,o),
(1118,152,o),
(1118,386,cs),
(1118,578,o),
(1026,710,o),
(734,752,c),
(664,696,l),
(956,756,o),
(1040,866,o),
(1040,1032,cs),
(1040,1250,o),
(876,1400,o),
(572,1400,cs),
(100,1400,l),
(100,0,l)
);
},
{
closed = 1;
nodes = (
(380,594,l),
(596,594,ls),
(748,594,o),
(834,532,o),
(834,430,cs),
(834,308,o),
(748,252,o),
(596,252,cs),
(380,252,l)
);
},
{
closed = 1;
nodes = (
(380,1150,l),
(546,1150,ls),
(698,1150,o),
(756,1084,o),
(756,988,cs),
(756,876,o),
(698,822,o),
(546,822,cs),
(380,822,l)
);
}
);
width = 1148;
},
{
anchors = (
{
name = bottom;
pos = (594,0);
},
{
name = ogonek;
pos = (602,0);
},
{
name = top;
pos = (586,1400);
}
);
background = {
shapes = (
{
closed = 1;
nodes = (
(1592,556,ls),
(1906,556,o),
(2098,700,o),
(2098,976,cs),
(2098,1250,o),
(1906,1404,o),
(1592,1402,cs),
(1280,1400,l),
(1280,556,l)
);
},
{
closed = 1;
nodes = (
(1380,0,l),
(1380,1400,l),
(1100,1400,l),
(1100,0,l)
);
},
{
closed = 1;
nodes = (
(1380,1150,l),
(1576,1150,ls),
(1728,1150,o),
(1814,1086,o),
(1814,974,cs),
(1814,860,o),
(1728,796,o),
(1576,796,cs),
(1380,796,l)
);
},
{
closed = 1;
nodes = (
(2156,0,l),
(1790,678,l),
(1476,678,l),
(1842,0,l)
);
},
{
closed = 1;
nodes = (
(592,586,ls),
(906,586,o),
(1098,710,o),
(1098,976,cs),
(1098,1250,o),
(906,1404,o),
(592,1402,cs),
(280,1400,l),
(280,586,l)
);
},
{
closed = 1;
nodes = (
(380,0,l),
(380,1400,l),
(100,1400,l),
(100,0,l)
);
},
{
closed = 1;
nodes = (
(334,1150,l),
(576,1150,ls),
(728,1150,o),
(814,1086,o),
(814,974,cs),
(814,870,o),
(728,816,o),
(576,816,cs),
(334,816,l)
);
},
{
closed = 1;
nodes = (
(206,2,l),
(592,0,ls),
(906,-2,o),
(1098,152,o),
(1098,426,cs),
(1098,692,o),
(906,816,o),
(592,816,cs),
(206,816,l)
);
},
{
closed = 1;
nodes = (
(576,586,ls),
(728,586,o),
(814,532,o),
(814,428,cs),
(814,316,o),
(728,252,o),
(576,252,cs),
(362,252,l),
(362,586,l)
);
}
);
};
layerId = "6B540EA0-879E-4877-ADBF-1E90C7170424";
shapes = (
{
closed = 1;
nodes = (
(622,0,ls),
(926,0,o),
(1118,152,o),
(1118,386,cs),
(1118,578,o),
(1026,710,o),
(734,752,c),
(664,696,l),
(956,756,o),
(1040,866,o),
(1040,1032,cs),
(1040,1250,o),
(876,1400,o),
(572,1400,cs),
(100,1400,l),
(100,0,l)
);
},
{
closed = 1;
nodes = (
(380,594,l),
(596,594,ls),
(748,594,o),
(834,532,o),
(834,430,cs),
(834,308,o),
(748,252,o),
(596,252,cs),
(380,252,l)
);
},
{
closed = 1;
nodes = (
(380,1150,l),
(546,1150,ls),
(698,1150,o),
(756,1084,o),
(756,988,cs),
(756,876,o),
(698,822,o),
(546,822,cs),
(380,822,l)
);
}
);
width = 1148;
}
);
metricLeft = H;
unicode = 66;
},
{
glyphname = C;
kernLeft = O;
kernRight = C;
lastChange = "2022-04-29 18:10:09 +0000";
layers = (
{
anchors = (
{
name = bottom;
pos = (780,0);
},
{
name = ogonek;
pos = (998,0);
},
{
name = top;
pos = (780,1400);
}
);
background = {
shapes = (
{
closed = 1;
nodes = (
(1194,-26,o),
(1506,298,o),
(1506,698,cs),
(1506,1100,o),
(1194,1426,o),
(780,1426,cs),
(364,1426,o),
(50,1100,o),
(50,698,cs),
(50,298,o),
(364,-26,o),
(780,-26,cs)
);
},
{
closed = 1;
nodes = (
(508,232,o),
(340,444,o),
(340,698,cs),
(340,952,o),
(508,1166,o),
(780,1166,cs),
(1050,1166,o),
(1216,952,o),
(1216,698,cs),
(1216,444,o),
(1050,232,o),
(780,232,cs)
);
}
);
};
layerId = "1B5AC656-48C3-4864-953F-2CD31E7BA751";
shapes = (
{
closed = 1;
nodes = (
(1024,-26,o),
(1204,68,o),
(1310,196,c),
(1106,370,l),
(1024,280,o),
(922,234,o),
(786,234,cs),
(510,234,o),
(340,442,o),
(340,698,cs),
(340,954,o),
(510,1166,o),
(780,1166,cs),
(906,1166,o),
(1010,1122,o),
(1094,1034,c),
(1292,1206,l),
(1166,1356,o),
(1008,1426,o),
(780,1426,cs),
(348,1426,o),
(50,1100,o),
(50,698,cs),
(50,298,o),
(364,-26,o),
(780,-26,cs)
);
}
);
width = 1324;
},
{
anchors = (
{
name = bottom;
pos = (780,0);
},
{
name = ogonek;
pos = (998,0);
},
{
name = top;
pos = (780,1400);
}
);
background = {
shapes = (
{
closed = 1;
nodes = (
(1194,-26,o),
(1506,298,o),
(1506,698,cs),
(1506,1100,o),
(1194,1426,o),
(780,1426,cs),
(364,1426,o),
(50,1100,o),
(50,698,cs),
(50,298,o),
(364,-26,o),
(780,-26,cs)
);
},
{
closed = 1;
nodes = (
(508,232,o),
(340,444,o),
(340,698,cs),
(340,952,o),
(508,1166,o),
(780,1166,cs),
(1050,1166,o),
(1216,952,o),
(1216,698,cs),
(1216,444,o),
(1050,232,o),
(780,232,cs)
);
}
);
};
layerId = "6B540EA0-879E-4877-ADBF-1E90C7170424";
shapes = (
{
closed = 1;
nodes = (
(1024,-26,o),
(1204,68,o),
(1310,196,c),
(1106,370,l),
(1024,280,o),
(922,234,o),
(786,234,cs),
(510,234,o),
(340,442,o),
(340,698,cs),
(340,954,o),
(510,1166,o),
(780,1166,cs),
(906,1166,o),
(1010,1122,o),
(1094,1034,c),
(1292,1206,l),
(1166,1356,o),
(1008,1426,o),
(780,1426,cs),
(348,1426,o),
(50,1100,o),
(50,698,cs),
(50,298,o),
(364,-26,o),
(780,-26,cs)
);
}
);
width = 1324;
}
);
metricLeft = O;
unicode = 67;
},
{
glyphname = D;
kernLeft = H;
kernRight = O;
lastChange = "2022-04-29 18:10:09 +0000";
layers = (
{
anchors = (
{
name = bottom;
pos = (618,0);
},
{
name = center;
pos = (676,698);
},
{
name = ogonek;
pos = (642,0);
},
{
name = top;
pos = (654,1400);
}
);
background = {
shapes = (
{
closed = 1;
nodes = (
(1016,-26,o),
(1328,298,o),
(1328,698,cs),
(1328,1100,o),
(1016,1426,o),
(602,1426,cs),
(186,1426,o),
(-128,1100,o),
(-128,698,cs),
(-128,298,o),
(186,-26,o),
(602,-26,cs)
);
},
{
closed = 1;
nodes = (
(338,232,o),
(170,444,o),
(170,698,cs),
(170,952,o),
(338,1166,o),
(602,1166,cs),
(864,1166,o),
(1030,952,o),
(1030,698,cs),
(1030,444,o),
(864,232,o),
(602,232,cs)
);
}
);
};
layerId = "1B5AC656-48C3-4864-953F-2CD31E7BA751";
shapes = (
{
closed = 1;
nodes = (
(600,0,ls),
(1084,0,o),
(1318,298,o),
(1318,698,cs),
(1318,1100,o),
(1084,1400,o),
(600,1400,cs),
(242,1400,l),
(250,1148,l),
(566,1148,ls),
(898,1148,o),
(1028,952,o),
(1028,698,cs),
(1028,444,o),
(898,252,o),
(566,252,cs),
(300,252,l),
(310,0,l)
);
},
{
closed = 1;
nodes = (
(380,0,l),
(380,1400,l),
(100,1400,l),
(100,0,l)
);
}
);
width = 1368;
},
{
anchors = (
{
name = bottom;
pos = (618,0);
},
{
name = center;
pos = (676,698);
},
{
name = ogonek;
pos = (642,0);
},
{
name = top;
pos = (654,1400);
}
);
background = {
shapes = (
{
closed = 1;
nodes = (
(1016,-26,o),
(1328,298,o),
(1328,698,cs),
(1328,1100,o),
(1016,1426,o),
(602,1426,cs),
(186,1426,o),
(-128,1100,o),
(-128,698,cs),
(-128,298,o),
(186,-26,o),
(602,-26,cs)
);
},
{
closed = 1;
nodes = (
(338,232,o),
(170,444,o),
(170,698,cs),
(170,952,o),
(338,1166,o),
(602,1166,cs),
(864,1166,o),
(1030,952,o),
(1030,698,cs),
(1030,444,o),
(864,232,o),
(602,232,cs)
);
}
);
};
layerId = "6B540EA0-879E-4877-ADBF-1E90C7170424";
shapes = (
{
closed = 1;
nodes = (
(600,0,ls),
(1084,0,o),
(1318,298,o),
(1318,698,cs),
(1318,1100,o),
(1084,1400,o),
(600,1400,cs),
(242,1400,l),
(250,1148,l),
(566,1148,ls),
(898,1148,o),
(1028,952,o),
(1028,698,cs),
(1028,444,o),
(898,252,o),
(566,252,cs),
(300,252,l),
(310,0,l)
);
},
{
closed = 1;
nodes = (
(380,0,l),
(380,1400,l),
(100,1400,l),
(100,0,l)
);
}
);
width = 1368;
}
);
metricLeft = H;
metricRight = O;
unicode = 68;
},
{
glyphname = E;
kernLeft = H;
kernRight = E;
lastChange = "2022-04-29 18:10:09 +0000";
layers = (
{
anchors = (
{
name = bottom;
pos = (540,0);
},
{
name = ogonek;
pos = (718,0);
},
{
name = top;
pos = (520,1400);
}
);
layerId = "1B5AC656-48C3-4864-953F-2CD31E7BA751";
shapes = (
{
closed = 1;
nodes = (
(924,0,l),
(924,252,l),
(290,252,l),
(380,162,l),
(380,678,l),
(290,590,l),
(910,590,l),
(910,834,l),
(290,834,l),
(380,746,l),
(380,1238,l),
(290,1148,l),
(920,1148,l),
(920,1400,l),
(100,1400,l),
(100,0,l)
);
}
);
width = 1002;
},
{
anchors = (
{
name = bottom;
pos = (540,0);
},
{
name = ogonek;
pos = (718,0);
},
{
name = top;
pos = (520,1400);
}
);
layerId = "6B540EA0-879E-4877-ADBF-1E90C7170424";
shapes = (
{
closed = 1;
nodes = (
(924,0,l),
(924,252,l),
(290,252,l),
(380,162,l),
(380,678,l),
(290,590,l),
(910,590,l),
(910,834,l),
(290,834,l),
(380,746,l),
(380,1238,l),
(290,1148,l),
(920,1148,l),
(920,1400,l),
(100,1400,l),
(100,0,l)
);
}
);
width = 1002;
}
);
metricLeft = H;
unicode = 69;
},
{
glyphname = Schwa;
kernLeft = O;
kernRight = O;
lastChange = "2022-04-29 18:12:20 +0000";
layers = (
{
background = {
shapes = (
{
closed = 1;
nodes = (
(1157,-26,o),
(1469,298,o),
(1469,698,cs),
(1469,1100,o),
(1157,1426,o),
(743,1426,cs),
(327,1426,o),
(13,1100,o),
(13,698,cs),
(13,298,o),
(327,-26,o),
(743,-26,cs)
);
},
{
closed = 1;
nodes = (
(471,234,o),
(303,444,o),
(303,698,cs),
(303,952,o),
(471,1166,o),
(743,1166,cs),
(1013,1166,o),
(1179,952,o),
(1179,698,cs),
(1179,444,o),
(1013,234,o),
(743,234,cs)
);
}
);
};
layerId = "1B5AC656-48C3-4864-953F-2CD31E7BA751";
shapes = (
{
closed = 1;
nodes = (
(1167,-34,o),
(1463,296,o),
(1463,696,cs),
(1463,1096,o),
(1231,1422,o),
(725,1422,cs),
(477,1422,o),
(245,1304,o),
(133,1132,c),
(373,952,l),
(445,1074,o),
(581,1158,o),
(727,1158,cs),
(1001,1158,o),
(1121,1002,o),
(1149,788,c),
(1155,696,ls),
(1167,424,o),
(1009,220,o),
(763,220,cs),
(503,220,o),
(331,458,o),
(357,696,c),
(255,556,l),
(1237,574,l),
(1237,806,l),
(57,806,l),
(49,762,o),
(47,736,o),
(47,696,cs),
(47,296,o),
(335,-34,o),
(751,-34,cs)
);
}
);
width = 1513;
},
{
background = {
shapes = (
{
closed = 1;
nodes = (
(1157,-26,o),
(1469,298,o),
(1469,698,cs),
(1469,1100,o),
(1157,1426,o),
(743,1426,cs),
(327,1426,o),
(13,1100,o),
(13,698,cs),
(13,298,o),
(327,-26,o),
(743,-26,cs)
);
},
{
closed = 1;
nodes = (
(471,234,o),
(303,444,o),
(303,698,cs),
(303,952,o),
(471,1166,o),
(743,1166,cs),
(1013,1166,o),
(1179,952,o),
(1179,698,cs),
(1179,444,o),
(1013,234,o),
(743,234,cs)
);
}
);
};
layerId = "6B540EA0-879E-4877-ADBF-1E90C7170424";
shapes = (
{
closed = 1;
nodes = (
(1167,-34,o),
(1463,296,o),
(1463,696,cs),
(1463,1096,o),
(1231,1422,o),
(725,1422,cs),
(477,1422,o),
(245,1304,o),
(133,1132,c),
(373,952,l),
(445,1074,o),
(581,1158,o),
(727,1158,cs),
(1001,1158,o),
(1121,1002,o),
(1149,788,c),
(1155,696,ls),
(1167,424,o),
(1009,220,o),
(763,220,cs),
(503,220,o),
(331,458,o),
(357,696,c),
(255,556,l),
(1237,574,l),
(1237,806,l),
(57,806,l),
(49,762,o),
(47,736,o),
(47,696,cs),
(47,296,o),
(335,-34,o),
(751,-34,cs)
);
}
);
width = 1513;
}
);
metricLeft = "=O-3";
metricRight = O;
unicode = 399;
},
{
glyphname = F;
kernLeft = H;
lastChange = "2022-04-29 18:10:09 +0000";
layers = (
{
anchors = (
{
name = bottom;
pos = (242,0);
},
{
name = ogonek;
pos = (380,0);
},
{
name = top;
pos = (550,1400);
}
);
layerId = "1B5AC656-48C3-4864-953F-2CD31E7BA751";
shapes = (
{
closed = 1;
nodes = (
(380,0,l),
(380,660,l),
(290,572,l),
(912,572,l),
(912,820,l),
(290,820,l),
(380,732,l),
(380,1238,l),
(290,1148,l),
(922,1148,l),
(922,1400,l),
(100,1400,l),
(100,0,l)
);
}
);
width = 992;
},
{
anchors = (
{
name = bottom;
pos = (242,0);
},
{
name = ogonek;
pos = (380,0);
},
{
name = top;
pos = (550,1400);
}
);
layerId = "6B540EA0-879E-4877-ADBF-1E90C7170424";
shapes = (
{
closed = 1;
nodes = (
(380,0,l),
(380,660,l),
(290,572,l),
(912,572,l),
(912,820,l),
(290,820,l),
(380,732,l),
(380,1238,l),
(290,1148,l),
(922,1148,l),
(922,1400,l),
(100,1400,l),
(100,0,l)
);
}
);
width = 992;
}
);
metricLeft = H;
unicode = 70;
},
{
glyphname = G;
kernLeft = O;
kernRight = G;
lastChange = "2022-04-29 18:10:09 +0000";
layers = (
{
anchors = (
{
name = bottom;
pos = (780,0);
},
{
name = ogonek;
pos = (1042,18);
},
{
name = top;
pos = (780,1400);
}
);
background = {
shapes = (
{
closed = 1;
nodes = (
(364,-26,o),
(50,298,o),
(50,698,cs),
(50,1100,o),
(348,1426,o),
(780,1426,cs),
(1008,1426,o),
(1166,1356,o),
(1292,1206,c),
(1094,1034,l),
(1010,1122,o),
(906,1166,o),
(780,1166,cs),
(508,1166,o),
(340,954,o),
(340,698,cs),
(340,442,o),
(510,232,o),
(786,232,cs),
(922,232,o),
(1024,280,o),
(1106,370,c),
(1310,196,l),
(1204,68,o),
(1024,-26,o),
(780,-26,cs)
);
},
{
closed = 1;
nodes = (
(1194,-26,o),
(1506,298,o),
(1506,698,cs),
(1506,1100,o),
(1194,1426,o),
(780,1426,cs),
(364,1426,o),
(50,1100,o),
(50,698,cs),
(50,298,o),
(364,-26,o),
(780,-26,cs)
);
},
{
closed = 1;
nodes = (
(508,232,o),
(340,444,o),
(340,698,cs),
(340,952,o),
(508,1166,o),
(780,1166,cs),
(1050,1166,o),
(1216,952,o),
(1216,698,cs),
(1216,444,o),
(1050,232,o),
(780,232,cs)
);
}
);
};
layerId = "1B5AC656-48C3-4864-953F-2CD31E7BA751";
shapes = (
{
closed = 1;
nodes = (
(1200,-26,o),
(1454,256,o),
(1454,644,cs),
(1454,688,o),
(1450,758,o),
(1444,800,c),
(1176,570,l),
(1150,340,o),
(1008,230,o),
(780,230,cs),
(510,230,o),
(340,442,o),
(340,698,cs),
(340,954,o),
(510,1166,o),
(780,1166,cs),
(910,1166,o),
(1018,1116,o),
(1094,1034,c),
(1294,1206,l),
(1178,1348,o),
(1018,1426,o),
(780,1426,cs),
(364,1426,o),
(50,1100,o),
(50,698,cs),
(50,298,o),
(364,-26,o),
(780,-26,cs)
);
},
{
closed = 1;
nodes = (
(1332,554,l),
(1444,800,l),
(714,800,l),
(714,548,l)
);
}
);
width = 1504;
},
{
anchors = (
{
name = bottom;
pos = (780,0);
},
{
name = ogonek;
pos = (1042,18);
},
{
name = top;
pos = (780,1400);
}
);
background = {
shapes = (
{
closed = 1;
nodes = (
(364,-26,o),
(50,298,o),
(50,698,cs),
(50,1100,o),
(348,1426,o),
(780,1426,cs),
(1008,1426,o),
(1166,1356,o),
(1292,1206,c),
(1094,1034,l),
(1010,1122,o),
(906,1166,o),
(780,1166,cs),
(508,1166,o),
(340,954,o),
(340,698,cs),
(340,442,o),
(510,232,o),
(786,232,cs),
(922,232,o),
(1024,280,o),
(1106,370,c),
(1310,196,l),
(1204,68,o),
(1024,-26,o),
(780,-26,cs)
);
},
{
closed = 1;
nodes = (
(1194,-26,o),
(1506,298,o),
(1506,698,cs),
(1506,1100,o),
(1194,1426,o),
(780,1426,cs),
(364,1426,o),
(50,1100,o),
(50,698,cs),
(50,298,o),
(364,-26,o),
(780,-26,cs)
);
},
{
closed = 1;
nodes = (
(508,232,o),
(340,444,o),
(340,698,cs),
(340,952,o),
(508,1166,o),
(780,1166,cs),
(1050,1166,o),
(1216,952,o),
(1216,698,cs),
(1216,444,o),
(1050,232,o),
(780,232,cs)
);
}
);
};
layerId = "6B540EA0-879E-4877-ADBF-1E90C7170424";
shapes = (
{
closed = 1;
nodes = (
(1200,-26,o),
(1454,256,o),
(1454,644,cs),
(1454,688,o),
(1450,758,o),
(1444,800,c),
(1176,570,l),
(1150,340,o),
(1008,230,o),
(780,230,cs),
(510,230,o),
(340,442,o),
(340,698,cs),
(340,954,o),
(510,1166,o),
(780,1166,cs),
(910,1166,o),
(1018,1116,o),
(1094,1034,c),
(1294,1206,l),
(1178,1348,o),
(1018,1426,o),
(780,1426,cs),
(364,1426,o),
(50,1100,o),
(50,698,cs),
(50,298,o),
(364,-26,o),
(780,-26,cs)
);
},
{
closed = 1;
nodes = (
(1332,554,l),
(1444,800,l),
(714,800,l),
(714,548,l)
);
}
);
width = 1504;
}
);
metricLeft = O;
unicode = 71;
},
{
glyphname = H;
kernLeft = H;
kernRight = H;
lastChange = "2022-04-29 18:10:09 +0000";
layers = (
{
anchors = (
{
name = bottom;
pos = (670,0);
},
{
name = ogonek;
pos = (1240,0);
},
{
name = top;
pos = (670,1400);
}
);
background = {
shapes = (
{
closed = 1;
nodes = (
(924,0,l),
(924,252,l),
(290,252,l),
(380,162,l),
(380,670,l),
(290,580,l),
(910,580,l),
(910,832,l),
(290,832,l),
(380,742,l),
(380,1238,l),
(290,1148,l),
(920,1148,l),
(920,1400,l),
(100,1400,l),
(100,0,l)
);
}
);
};
layerId = "1B5AC656-48C3-4864-953F-2CD31E7BA751";
shapes = (
{
closed = 1;
nodes = (
(380,0,l),
(380,674,l),
(290,584,l),
(1050,584,l),
(960,674,l),
(960,0,l),
(1240,0,l),
(1240,1400,l),
(960,1400,l),
(960,746,l),
(1050,836,l),
(290,836,l),
(380,746,l),
(380,1400,l),
(100,1400,l),
(100,0,l)
);
}
);
width = 1340;
},
{
anchors = (
{
name = bottom;
pos = (670,0);
},
{
name = ogonek;
pos = (1240,0);
},
{
name = top;
pos = (670,1400);
}
);
background = {
shapes = (
{
closed = 1;
nodes = (
(924,0,l),
(924,252,l),
(290,252,l),
(380,162,l),
(380,670,l),
(290,580,l),
(910,580,l),
(910,832,l),
(290,832,l),
(380,742,l),
(380,1238,l),
(290,1148,l),
(920,1148,l),
(920,1400,l),
(100,1400,l),
(100,0,l)
);
}
);
};
layerId = "6B540EA0-879E-4877-ADBF-1E90C7170424";
shapes = (
{
closed = 1;
nodes = (
(380,0,l),
(380,674,l),
(290,584,l),
(1050,584,l),
(960,674,l),
(960,0,l),
(1240,0,l),
(1240,1400,l),
(960,1400,l),
(960,746,l),
(1050,836,l),
(290,836,l),
(380,746,l),
(380,1400,l),
(100,1400,l),
(100,0,l)
);
}
);
width = 1340;
}
);
unicode = 72;
},
{
glyphname = Hbar;
kernLeft = H;
kernRight = H;
lastChange = "2022-04-29 18:10:09 +0000";
layers = (
{
layerId = "1B5AC656-48C3-4864-953F-2CD31E7BA751";
shapes = (
{
closed = 1;
nodes = (
(1332,1022,l),
(1332,1210,l),
(8,1210,l),
(8,1022,l)
);
},
{
ref = H;
}
);
width = 1340;
},
{
layerId = "6B540EA0-879E-4877-ADBF-1E90C7170424";
shapes = (
{
closed = 1;
nodes = (
(1332,1022,l),
(1332,1210,l),
(8,1210,l),
(8,1022,l)
);
},
{
ref = H;
}
);
width = 1340;
}
);
unicode = 294;
},
{
glyphname = I;
kernLeft = H;
kernRight = H;
lastChange = "2022-04-29 18:10:09 +0000";
layers = (
{
anchors = (
{
name = bottom;
pos = (240,0);
},
{
name = ogonek;
pos = (196,0);
},
{
name = top;
pos = (240,1400);
}
);
layerId = "1B5AC656-48C3-4864-953F-2CD31E7BA751";
shapes = (
{
closed = 1;
nodes = (
(380,0,l),
(380,1400,l),
(100,1400,l),
(100,0,l)
);
}
);
width = 480;
},
{
anchors = (
{
name = bottom;
pos = (240,0);
},
{
name = ogonek;
pos = (196,0);
},
{
name = top;
pos = (240,1400);
}
);
layerId = "6B540EA0-879E-4877-ADBF-1E90C7170424";
shapes = (
{
closed = 1;
nodes = (
(380,0,l),
(380,1400,l),
(100,1400,l),
(100,0,l)
);
}
);
width = 480;
}
);
metricLeft = H;
metricRight = H;
unicode = 73;
},
{
glyphname = J;
kernLeft = J;
kernRight = U;
lastChange = "2022-04-29 18:10:09 +0000";
layers = (
{
anchors = (
{
name = bottom;
pos = (286,0);
},
{
name = ogonek;
pos = (412,0);
},
{
name = top;
pos = (542,1400);
}
);
background = {
shapes = (
{
closed = 1;
nodes = (
(796,2598,o),
(572,2374,o),
(230,2374,cs),
(-112,2374,o),
(-336,2598,o),
(-336,2918,cs),
(-336,3800,l),
(-54,3800,l),
(-54,2928,ls),
(-54,2750,o),
(38,2630,o),
(230,2630,cs),
(422,2630,o),
(514,2750,o),
(514,2928,cs),
(514,3800,l),
(796,3800,l),
(796,2918,ls)
);
},
{
closed = 1;
nodes = (
(488,2374,o),
(682,2504,o),
(682,2820,cs),
(682,3800,l),
(402,3800,l),
(402,2812,ls),
(402,2688,o),
(336,2630,o),
(232,2630,cs),
(174,2630,o),
(112,2656,o),
(74,2694,c),
(-100,2498,l),
(-12,2406,o),
(78,2374,o),
(236,2374,cs)
);
},
{
closed = 1;
nodes = (
(530,-24,o),
(682,104,o),
(682,384,cs),
(682,1400,l),
(402,1400,l),
(402,380,ls),
(402,272,o),
(332,230,o),
(224,230,cs),
(160,230,o),
(98,246,o),
(44,292,c),
(-108,88,l),
(-18,8,o),
(108,-24,o),
(254,-24,cs)
);
},
{
closed = 1;
nodes = (
(508,-24,o),
(682,104,o),
(682,368,cs),
(682,1400,l),
(402,1400,l),
(402,368,ls),
(402,278,o),
(334,218,o),
(224,218,cs),
(148,218,o),
(98,240,o),
(48,284,c),
(-108,88,l),
(-24,14,o),
(96,-24,o),
(298,-24,cs)
);
},
{
closed = 1;
nodes = (
(48,284,l),
(98,240,o),
(148,218,o),
(224,218,cs),
(334,218,o),
(402,278,o),
(402,368,cs),
(402,1400,l),
(682,1400,l),
(682,314,ls),
(682,110,o),
(528,-26,o),
(280,-26,cs),
(106,-26,o),
(-8,20,o),
(-110,84,c)
);
}
);
};
layerId = "1B5AC656-48C3-4864-953F-2CD31E7BA751";
shapes = (
{
closed = 1;
nodes = (
(510,-22,o),
(682,100,o),
(682,372,cs),
(682,1400,l),
(402,1400,l),
(402,382,ls),
(402,272,o),
(332,230,o),
(238,230,cs),
(184,230,o),
(138,242,o),
(110,262,c),
(4,32,l),
(60,-2,o),
(166,-22,o),
(276,-22,cs)
);
}
);
width = 772;
},
{
anchors = (
{
name = bottom;
pos = (286,0);
},
{
name = ogonek;
pos = (412,0);
},
{
name = top;
pos = (542,1400);
}
);
background = {
shapes = (
{
closed = 1;
nodes = (
(796,2598,o),
(572,2374,o),
(230,2374,cs),
(-112,2374,o),
(-336,2598,o),
(-336,2918,cs),
(-336,3800,l),
(-54,3800,l),
(-54,2928,ls),
(-54,2750,o),
(38,2630,o),
(230,2630,cs),
(422,2630,o),
(514,2750,o),
(514,2928,cs),
(514,3800,l),
(796,3800,l),
(796,2918,ls)
);
},
{
closed = 1;
nodes = (
(488,2374,o),
(682,2504,o),
(682,2820,cs),
(682,3800,l),
(402,3800,l),
(402,2812,ls),
(402,2688,o),
(336,2630,o),
(232,2630,cs),
(174,2630,o),
(112,2656,o),
(74,2694,c),
(-100,2498,l),
(-12,2406,o),
(78,2374,o),
(236,2374,cs)
);
},
{
closed = 1;
nodes = (
(530,-24,o),
(682,104,o),
(682,384,cs),
(682,1400,l),
(402,1400,l),
(402,380,ls),
(402,272,o),
(332,230,o),
(224,230,cs),
(160,230,o),
(98,246,o),
(44,292,c),
(-108,88,l),
(-18,8,o),
(108,-24,o),
(254,-24,cs)
);
},
{
closed = 1;
nodes = (
(508,-24,o),
(682,104,o),
(682,368,cs),
(682,1400,l),
(402,1400,l),
(402,368,ls),
(402,278,o),
(334,218,o),
(224,218,cs),
(148,218,o),
(98,240,o),
(48,284,c),
(-108,88,l),
(-24,14,o),
(96,-24,o),
(298,-24,cs)
);
},
{
closed = 1;
nodes = (
(48,284,l),
(98,240,o),
(148,218,o),
(224,218,cs),
(334,218,o),
(402,278,o),
(402,368,cs),
(402,1400,l),
(682,1400,l),
(682,314,ls),
(682,110,o),
(528,-26,o),
(280,-26,cs),
(106,-26,o),
(-8,20,o),
(-110,84,c)
);
}
);
};
layerId = "6B540EA0-879E-4877-ADBF-1E90C7170424";
shapes = (
{
closed = 1;
nodes = (
(510,-22,o),
(682,100,o),
(682,372,cs),
(682,1400,l),
(402,1400,l),
(402,382,ls),
(402,272,o),
(332,230,o),
(238,230,cs),
(184,230,o),
(138,242,o),
(110,262,c),
(4,32,l),
(60,-2,o),
(166,-22,o),
(276,-22,cs)
);
}
);
width = 772;
}
);
unicode = 74;
},
{
glyphname = K;
kernLeft = H;
kernRight = K;
lastChange = "2022-04-29 18:10:09 +0000";
layers = (
{
anchors = (
{
name = bottom;
pos = (606,0);
},
{
name = ogonek;
pos = (1222,0);
},
{
name = top;
pos = (586,1402);
}
);
background = {
shapes = (
{
closed = 1;
nodes = (
(100,0,l),
(470,0,l),
(470,1400,l),
(100,1400,l)
);
},
{
closed = 1;
nodes = (
(956,0,l),
(1386,0,l),
(818,726,l),
(388,726,l)
);
},
{
closed = 1;
nodes = (
(822,742,l),
(1366,1400,l),
(896,1400,l),
(440,768,l)
);
},
{
closed = 1;
nodes = (
(592,556,ls),
(906,556,o),
(1098,700,o),
(1098,976,cs),
(1098,1250,o),
(906,1404,o),
(592,1402,cs),
(280,1400,l),
(280,556,l)
);
},
{
closed = 1;
nodes = (
(380,0,l),
(380,1400,l),
(100,1400,l),
(100,0,l)
);
},
{
closed = 1;
nodes = (
(380,1150,l),
(576,1150,ls),
(728,1150,o),
(814,1086,o),
(814,974,cs),
(814,860,o),
(728,796,o),
(576,796,cs),
(380,796,l)
);
},
{
closed = 1;
nodes = (
(1156,0,l),
(790,678,l),
(476,678,l),
(842,0,l)
);
}
);
};
layerId = "1B5AC656-48C3-4864-953F-2CD31E7BA751";
shapes = (
{
closed = 1;
nodes = (
(1222,0,l),
(594,802,l),
(572,662,l),
(1182,1400,l),
(816,1400,l),
(302,718,l),
(864,0,l)
);
},
{
closed = 1;
nodes = (
(380,0,l),
(380,1400,l),
(100,1400,l),
(100,0,l)
);
}
);
width = 1176;
},
{
anchors = (
{
name = bottom;
pos = (606,0);
},
{
name = ogonek;
pos = (1222,0);
},
{
name = top;
pos = (586,1402);
}
);
background = {
shapes = (
{
closed = 1;
nodes = (
(100,0,l),
(470,0,l),
(470,1400,l),
(100,1400,l)
);
},
{
closed = 1;
nodes = (
(956,0,l),
(1386,0,l),
(818,726,l),
(388,726,l)
);
},
{
closed = 1;
nodes = (
(822,742,l),
(1366,1400,l),
(896,1400,l),
(440,768,l)
);
},
{
closed = 1;
nodes = (
(592,556,ls),
(906,556,o),
(1098,700,o),
(1098,976,cs),
(1098,1250,o),
(906,1404,o),
(592,1402,cs),
(280,1400,l),
(280,556,l)
);
},
{
closed = 1;
nodes = (
(380,0,l),
(380,1400,l),
(100,1400,l),
(100,0,l)
);
},
{
closed = 1;
nodes = (
(380,1150,l),
(576,1150,ls),
(728,1150,o),
(814,1086,o),
(814,974,cs),
(814,860,o),
(728,796,o),
(576,796,cs),
(380,796,l)
);
},
{
closed = 1;
nodes = (
(1156,0,l),
(790,678,l),
(476,678,l),
(842,0,l)
);
}
);
};
layerId = "6B540EA0-879E-4877-ADBF-1E90C7170424";
shapes = (
{
closed = 1;
nodes = (
(1222,0,l),
(594,802,l),
(572,662,l),
(1182,1400,l),
(816,1400,l),
(302,718,l),
(864,0,l)
);
},
{
closed = 1;
nodes = (
(380,0,l),
(380,1400,l),
(100,1400,l),
(100,0,l)
);
}
);
width = 1176;
}
);
metricLeft = H;
unicode = 75;
},
{
glyphname = L;
kernLeft = H;
kernRight = L;
lastChange = "2022-04-29 18:10:09 +0000";
layers = (
{
anchors = (
{
name = bottom;
pos = (526,0);
},
{
name = center;
pos = (576,740);
},
{
name = ogonek;
pos = (902,0);
},
{
name = top;
pos = (232,1400);
},
{
name = topright;
pos = (556,1400);
}
);
background = {
shapes = (
{
closed = 1;
nodes = (
(982,0,l),
(982,252,l),
(290,252,l),
(380,162,l),
(380,1400,l),
(100,1400,l),
(100,0,l)
);
}
);
};
layerId = "1B5AC656-48C3-4864-953F-2CD31E7BA751";
shapes = (
{
closed = 1;
nodes = (
(902,0,l),
(902,252,l),
(290,252,l),
(380,162,l),
(380,1400,l),
(100,1400,l),
(100,0,l)
);
}
);
width = 952;
},
{
anchors = (
{
name = bottom;
pos = (526,0);
},
{
name = center;
pos = (576,740);
},
{
name = ogonek;
pos = (902,0);
},
{
name = top;
pos = (232,1400);
},
{
name = topright;
pos = (556,1400);
}
);
background = {
shapes = (
{
closed = 1;
nodes = (
(982,0,l),
(982,252,l),
(290,252,l),
(380,162,l),
(380,1400,l),
(100,1400,l),
(100,0,l)
);
}
);
};
layerId = "6B540EA0-879E-4877-ADBF-1E90C7170424";
shapes = (
{
closed = 1;
nodes = (
(902,0,l),
(902,252,l),
(290,252,l),
(380,162,l),
(380,1400,l),
(100,1400,l),
(100,0,l)
);
}
);
width = 952;
}
);
metricLeft = H;
unicode = 76;
},
{
glyphname = Lslash;
kernLeft = lslash;
kernRight = L;
lastChange = "2022-04-29 18:10:09 +0000";
layers = (
{
background = {
shapes = (
{
closed = 1;
nodes = (
(666,928,l),
(566,1070,l),
(-94,610,l),
(6,468,l)
);
},
{
closed = 0;
nodes = (
(228,896,l),
(228,558,l)
);
},
{
closed = 0;
nodes = (
(248,896,l),
(248,558,l)
);
},
{
closed = 1;
nodes = (
(204,566,l),
(224,566,l),
(482,746,l),
(482,998,l),
(224,794,l),
(204,818,l),
(-48,642,l),
(-48,390,l)
);
},
{
closed = 1;
nodes = (
(228,566,l),
(248,566,l),
(566,788,l),
(566,1056,l),
(248,834,l),
(228,834,l),
(6,680,l),
(6,412,l)
);
}
);
};
layerId = "1B5AC656-48C3-4864-953F-2CD31E7BA751";
shapes = (
{
closed = 1;
nodes = (
(204,566,l),
(224,552,l),
(566,790,l),
(566,1056,l),
(244,814,l),
(204,818,l),
(-48,642,l),
(-48,390,l)
);
},
{
ref = L;
}
);
width = 952;
},
{
background = {
shapes = (
{
closed = 1;
nodes = (
(666,928,l),
(566,1070,l),
(-94,610,l),
(6,468,l)
);
},
{
closed = 0;
nodes = (
(228,896,l),
(228,558,l)
);
},
{
closed = 0;
nodes = (
(248,896,l),
(248,558,l)
);
},
{
closed = 1;
nodes = (
(204,566,l),
(224,566,l),
(482,746,l),
(482,998,l),
(224,794,l),
(204,818,l),
(-48,642,l),
(-48,390,l)
);
},
{
closed = 1;
nodes = (
(228,566,l),
(248,566,l),
(566,788,l),
(566,1056,l),
(248,834,l),
(228,834,l),
(6,680,l),
(6,412,l)
);
}
);
};
layerId = "6B540EA0-879E-4877-ADBF-1E90C7170424";
shapes = (
{
closed = 1;
nodes = (
(204,566,l),
(224,552,l),
(566,790,l),
(566,1056,l),
(244,814,l),
(204,818,l),
(-48,642,l),
(-48,390,l)
);
},
{
ref = L;
}
);
width = 952;
}
);
unicode = 321;
},
{
glyphname = M;
kernLeft = H;
kernRight = H;
lastChange = "2022-04-29 18:10:09 +0000";
layers = (
{
anchors = (
{
name = bottom;
pos = (888,0);
},
{
name = ogonek;
pos = (1626,0);
},
{
name = top;
pos = (886,1400);
}
);
background = {
shapes = (
{
closed = 1;
nodes = (
(390,0,l),
(390,938,l),
(350,928,l),
(802,0,l),
(968,0,l),
(1418,924,l),
(1378,934,l),
(1378,0,l),
(1634,0,l),
(1634,1400,l),
(1374,1400,l),
(838,276,l),
(942,278,l),
(404,1400,l),
(134,1400,l),
(134,0,l)
);
}
);
};
layerId = "1B5AC656-48C3-4864-953F-2CD31E7BA751";
shapes = (
{
closed = 1;
nodes = (
(374,0,l),
(374,566,ls),
(374,804,o),
(366,892,o),
(342,1072,c),
(306,1074,l),
(820,0,l),
(956,0,l),
(1470,1074,l),
(1434,1072,l),
(1410,892,o),
(1402,804,o),
(1402,566,cs),
(1402,0,l),
(1676,0,l),
(1676,1400,l),
(1340,1400,l),
(1048,782,ls),
(904,476,o),
(896,422,o),
(874,324,c),
(914,324,l),
(892,422,o),
(882,476,o),
(738,782,cs),
(448,1400,l),
(100,1400,l),
(100,0,l)
);
}
);
width = 1776;
},
{
anchors = (
{
name = bottom;
pos = (888,0);
},
{
name = ogonek;
pos = (1626,0);
},
{
name = top;
pos = (886,1400);
}
);
background = {
shapes = (
{
closed = 1;
nodes = (
(390,0,l),
(390,938,l),
(350,928,l),
(802,0,l),
(968,0,l),
(1418,924,l),
(1378,934,l),
(1378,0,l),
(1634,0,l),
(1634,1400,l),
(1374,1400,l),
(838,276,l),
(942,278,l),
(404,1400,l),
(134,1400,l),
(134,0,l)
);
}
);
};
layerId = "6B540EA0-879E-4877-ADBF-1E90C7170424";
shapes = (
{
closed = 1;
nodes = (
(374,0,l),
(374,566,ls),
(374,804,o),
(366,892,o),
(342,1072,c),
(306,1074,l),
(820,0,l),
(956,0,l),
(1470,1074,l),
(1434,1072,l),
(1410,892,o),
(1402,804,o),
(1402,566,cs),
(1402,0,l),
(1676,0,l),
(1676,1400,l),
(1340,1400,l),
(1048,782,ls),
(904,476,o),
(896,422,o),
(874,324,c),
(914,324,l),
(892,422,o),
(882,476,o),
(738,782,cs),
(448,1400,l),
(100,1400,l),
(100,0,l)
);
}
);
width = 1776;
}
);
metricLeft = H;
metricRight = H;
unicode = 77;
},
{
glyphname = N;
kernLeft = H;
kernRight = H;
lastChange = "2022-04-29 18:10:09 +0000";
layers = (
{
anchors = (
{
name = bottom;
pos = (770,0);
},
{
name = ogonek;
pos = (1332,0);
},
{
name = top;
pos = (752,1400);
}
);
background = {
shapes = (
{
closed = 1;
nodes = (
(100,0,l),
(356,0,l),
(356,1400,l),
(100,1400,l)
);
},
{
closed = 1;
nodes = (
(1080,0,l),
(1336,0,l),
(1336,1400,l),
(1080,1400,l)
);
},
{
closed = 1;
nodes = (
(1158,-6,l),
(1354,158,l),
(338,1376,l),
(142,1210,l)
);
}
);
};
layerId = "1B5AC656-48C3-4864-953F-2CD31E7BA751";
shapes = (
{
closed = 1;
nodes = (
(360,0,l),
(360,730,ls),
(360,830,o),
(358,934,o),
(344,992,c),
(330,990,l),
(362,936,o),
(402,888,o),
(442,842,cs),
(1150,0,l),
(1332,0,l),
(1332,1400,l),
(1076,1400,l),
(1076,702,ls),
(1076,602,o),
(1078,498,o),
(1092,440,c),
(1106,442,l),
(1074,496,o),
(1034,544,o),
(994,590,cs),
(312,1400,l),
(100,1400,l),
(100,0,l)
);
}
);
width = 1432;
},
{
anchors = (
{
name = bottom;
pos = (770,0);
},
{
name = ogonek;
pos = (1332,0);
},
{
name = top;
pos = (752,1400);
}
);
background = {
shapes = (
{
closed = 1;
nodes = (
(100,0,l),
(356,0,l),
(356,1400,l),
(100,1400,l)
);
},
{
closed = 1;
nodes = (
(1080,0,l),
(1336,0,l),
(1336,1400,l),
(1080,1400,l)
);
},
{
closed = 1;
nodes = (
(1158,-6,l),
(1354,158,l),
(338,1376,l),
(142,1210,l)
);
}
);
};
layerId = "6B540EA0-879E-4877-ADBF-1E90C7170424";
shapes = (
{
closed = 1;
nodes = (
(360,0,l),
(360,730,ls),
(360,830,o),
(358,934,o),
(344,992,c),
(330,990,l),
(362,936,o),
(402,888,o),
(442,842,cs),
(1150,0,l),
(1332,0,l),
(1332,1400,l),
(1076,1400,l),
(1076,702,ls),
(1076,602,o),
(1078,498,o),
(1092,440,c),
(1106,442,l),
(1074,496,o),
(1034,544,o),
(994,590,cs),
(312,1400,l),
(100,1400,l),
(100,0,l)
);
}
);
width = 1432;
}
);
metricLeft = H;
metricRight = H;
unicode = 78;
},
{
glyphname = Eng;
kernLeft = H;
kernRight = H;
lastChange = "2022-04-29 18:10:09 +0000";
layers = (
{
layerId = "1B5AC656-48C3-4864-953F-2CD31E7BA751";
shapes = (
{
closed = 1;
nodes = (
(1014,-400,ls),
(1220,-400,o),
(1332,-304,o),
(1332,-78,cs),
(1332,248,l),
(1090,240,l),
(1090,-64,ls),
(1090,-130,o),
(1058,-160,o),
(1006,-160,cs),
(926,-160,l),
(926,-400,l)
);
},
{
ref = N;
}
);
width = 1432;
},
{
layerId = "6B540EA0-879E-4877-ADBF-1E90C7170424";
shapes = (
{
closed = 1;
nodes = (
(1014,-400,ls),
(1220,-400,o),
(1332,-304,o),
(1332,-78,cs),
(1332,248,l),
(1090,240,l),
(1090,-64,ls),
(1090,-130,o),
(1058,-160,o),
(1006,-160,cs),
(926,-160,l),
(926,-400,l)
);
},
{
ref = N;
}
);
width = 1432;
}
);
metricLeft = H;
metricRight = H;
unicode = 330;
},
{
glyphname = O;
kernLeft = O;
kernRight = O;
lastChange = "2022-04-29 18:10:09 +0000";
layers = (
{
anchors = (
{
name = bottom;
pos = (780,0);
},
{
name = center;
pos = (766,676);
},
{
name = ogonek;
pos = (980,0);
},
{
name = top;
pos = (780,1400);
},
{
name = topleft;
pos = (16,1400);
},
{
name = topright;
pos = (968,1400);
}
);
background = {
shapes = (
{
closed = 1;
nodes = (
(406,0,l),
(406,1052,l),
(298,1044,l),
(1234,0,l),
(1444,0,l),
(1444,1400,l),
(1162,1400,l),
(1162,366,l),
(1272,386,l),
(362,1400,l),
(124,1400,l),
(124,0,l)
);
},
{
closed = 1;
nodes = (
(1194,-26,o),
(1506,298,o),
(1506,698,cs),
(1506,1100,o),
(1194,1426,o),
(780,1426,cs),
(364,1426,o),
(50,1100,o),
(50,698,cs),
(50,298,o),
(364,-26,o),
(780,-26,cs)
);
},
{
closed = 1;
nodes = (
(516,232,o),
(348,444,o),
(348,698,cs),
(348,952,o),
(516,1166,o),
(780,1166,cs),
(1042,1166,o),
(1208,952,o),
(1208,698,cs),
(1208,444,o),
(1042,232,o),
(780,232,cs)
);
}
);
};
layerId = "1B5AC656-48C3-4864-953F-2CD31E7BA751";
shapes = (
{
closed = 1;
nodes = (
(1194,-26,o),
(1506,298,o),
(1506,698,cs),
(1506,1100,o),
(1194,1426,o),
(780,1426,cs),
(364,1426,o),
(50,1100,o),
(50,698,cs),
(50,298,o),
(364,-26,o),
(780,-26,cs)
);
},
{
closed = 1;
nodes = (
(508,234,o),
(340,444,o),
(340,698,cs),
(340,952,o),
(508,1166,o),
(780,1166,cs),
(1050,1166,o),
(1216,952,o),
(1216,698,cs),
(1216,444,o),
(1050,234,o),
(780,234,cs)
);
}
);
width = 1556;
},
{
anchors = (
{
name = bottom;
pos = (780,0);
},
{
name = center;
pos = (766,676);
},
{
name = ogonek;
pos = (980,0);
},
{
name = top;
pos = (780,1400);
},
{
name = topleft;
pos = (16,1400);
},
{
name = topright;
pos = (968,1400);
}
);
background = {
shapes = (
{
closed = 1;
nodes = (
(406,0,l),
(406,1052,l),
(298,1044,l),
(1234,0,l),
(1444,0,l),
(1444,1400,l),
(1162,1400,l),
(1162,366,l),
(1272,386,l),
(362,1400,l),
(124,1400,l),
(124,0,l)
);
},
{
closed = 1;
nodes = (
(1194,-26,o),
(1506,298,o),
(1506,698,cs),
(1506,1100,o),
(1194,1426,o),
(780,1426,cs),
(364,1426,o),
(50,1100,o),
(50,698,cs),
(50,298,o),
(364,-26,o),
(780,-26,cs)
);
},
{
closed = 1;
nodes = (
(516,232,o),
(348,444,o),
(348,698,cs),
(348,952,o),
(516,1166,o),
(780,1166,cs),
(1042,1166,o),
(1208,952,o),
(1208,698,cs),
(1208,444,o),
(1042,232,o),
(780,232,cs)
);
}
);
};
layerId = "6B540EA0-879E-4877-ADBF-1E90C7170424";
shapes = (
{
closed = 1;
nodes = (
(1194,-26,o),
(1506,298,o),
(1506,698,cs),
(1506,1100,o),
(1194,1426,o),
(780,1426,cs),
(364,1426,o),
(50,1100,o),
(50,698,cs),
(50,298,o),
(364,-26,o),
(780,-26,cs)
);
},
{
closed = 1;
nodes = (
(508,234,o),
(340,444,o),
(340,698,cs),
(340,952,o),
(508,1166,o),
(780,1166,cs),
(1050,1166,o),
(1216,952,o),
(1216,698,cs),
(1216,444,o),
(1050,234,o),
(780,234,cs)
);
}
);
width = 1556;
}
);
unicode = 79;
},
{
glyphname = OE;
kernLeft = O;
kernRight = E;
lastChange = "2022-04-29 18:10:09 +0000";
layers = (
{
anchors = (
{
name = bottom;
pos = (1210,0);
},
{
name = ogonek;
pos = (1986,0);
},
{
name = top;
pos = (1154,1400);
}
);
background = {
shapes = (
{
closed = 1;
nodes = (
(1144,-26,o),
(1456,298,o),
(1456,698,cs),
(1456,1100,o),
(1144,1426,o),
(730,1426,cs),
(314,1426,o),
(0,1100,o),
(0,698,cs),
(0,298,o),
(314,-26,o),
(730,-26,cs)
);
},
{
closed = 1;
nodes = (
(458,234,o),
(290,444,o),
(290,698,cs),
(290,952,o),
(458,1166,o),
(730,1166,cs),
(1000,1166,o),
(1166,952,o),
(1166,698,cs),
(1166,444,o),
(1000,234,o),
(730,234,cs)
);
},
{
closed = 1;
nodes = (
(1994,0,l),
(1994,252,l),
(1360,252,l),
(1450,162,l),
(1450,678,l),
(1360,590,l),
(1980,590,l),
(1980,834,l),
(1360,834,l),
(1450,746,l),
(1450,1238,l),
(1360,1148,l),
(1990,1148,l),
(1990,1400,l),
(1170,1400,l),
(1170,0,l)
);
}
);
};
layerId = "1B5AC656-48C3-4864-953F-2CD31E7BA751";
shapes = (
{
closed = 1;
nodes = (
(1194,-26,o),
(1358,298,o),
(1358,698,cs),
(1358,1100,o),
(1194,1426,o),
(760,1426,cs),
(364,1426,o),
(50,1100,o),
(50,698,cs),
(50,298,o),
(364,-26,o),
(760,-26,cs)
);
},
{
closed = 1;
nodes = (
(508,234,o),
(340,444,o),
(340,698,cs),
(340,952,o),
(508,1166,o),
(780,1166,cs),
(1064,1166,o),
(1202,952,o),
(1202,698,cs),
(1202,444,o),
(1064,234,o),
(780,234,cs)
);
},
{
closed = 1;
nodes = (
(1986,0,l),
(1986,252,l),
(1388,252,l),
(1442,162,l),
(1442,678,l),
(1352,590,l),
(1972,590,l),
(1972,834,l),
(1352,834,l),
(1442,746,l),
(1442,1238,l),
(1352,1148,l),
(1982,1148,l),
(1982,1400,l),
(1210,1400,l),
(1210,0,l)
);
}
);
width = 2064;
},
{
anchors = (
{
name = bottom;
pos = (1210,0);
},
{
name = ogonek;
pos = (1986,0);
},
{
name = top;
pos = (1154,1400);
}
);
background = {
shapes = (
{
closed = 1;
nodes = (
(1144,-26,o),
(1456,298,o),
(1456,698,cs),
(1456,1100,o),
(1144,1426,o),
(730,1426,cs),
(314,1426,o),
(0,1100,o),
(0,698,cs),
(0,298,o),
(314,-26,o),
(730,-26,cs)
);
},
{
closed = 1;
nodes = (
(458,234,o),
(290,444,o),
(290,698,cs),
(290,952,o),
(458,1166,o),
(730,1166,cs),
(1000,1166,o),
(1166,952,o),
(1166,698,cs),
(1166,444,o),
(1000,234,o),
(730,234,cs)
);
},
{
closed = 1;
nodes = (
(1994,0,l),
(1994,252,l),
(1360,252,l),
(1450,162,l),
(1450,678,l),
(1360,590,l),
(1980,590,l),
(1980,834,l),
(1360,834,l),
(1450,746,l),
(1450,1238,l),
(1360,1148,l),
(1990,1148,l),
(1990,1400,l),
(1170,1400,l),
(1170,0,l)
);
}
);
};
layerId = "6B540EA0-879E-4877-ADBF-1E90C7170424";
shapes = (
{
closed = 1;
nodes = (
(1194,-26,o),
(1358,298,o),
(1358,698,cs),
(1358,1100,o),
(1194,1426,o),
(760,1426,cs),
(364,1426,o),
(50,1100,o),
(50,698,cs),
(50,298,o),
(364,-26,o),
(760,-26,cs)
);
},
{
closed = 1;
nodes = (
(508,234,o),
(340,444,o),
(340,698,cs),
(340,952,o),
(508,1166,o),
(780,1166,cs),
(1064,1166,o),
(1202,952,o),
(1202,698,cs),
(1202,444,o),
(1064,234,o),
(780,234,cs)
);
},
{
closed = 1;
nodes = (
(1986,0,l),
(1986,252,l),
(1388,252,l),
(1442,162,l),
(1442,678,l),
(1352,590,l),
(1972,590,l),
(1972,834,l),
(1352,834,l),
(1442,746,l),
(1442,1238,l),
(1352,1148,l),
(1982,1148,l),
(1982,1400,l),
(1210,1400,l),
(1210,0,l)
);
}
);
width = 2064;
}
);
metricLeft = O;
metricRight = E;
unicode = 338;
},
{
glyphname = P;
kernLeft = H;
kernRight = P;
lastChange = "2022-04-29 18:10:09 +0000";
layers = (
{
anchors = (
{
name = bottom;
pos = (240,0);
},
{
name = ogonek;
pos = (380,0);
},
{
name = top;
pos = (570,1400);
}
);
layerId = "1B5AC656-48C3-4864-953F-2CD31E7BA751";
shapes = (
{
closed = 1;
nodes = (
(380,0,l),
(380,508,l),
(572,508,ls),
(886,508,o),
(1078,662,o),
(1078,958,cs),
(1078,1252,o),
(886,1400,o),
(572,1400,cs),
(100,1400,l),
(100,0,l)
);
},
{
closed = 1;
nodes = (
(380,1150,l),
(556,1150,ls),
(708,1150,o),
(794,1088,o),
(794,956,cs),
(794,822,o),
(708,760,o),
(556,760,cs),
(380,760,l)
);
}
);
width = 1098;
},
{
anchors = (
{
name = bottom;
pos = (240,0);
},
{
name = ogonek;
pos = (380,0);
},
{
name = top;
pos = (570,1400);
}
);
layerId = "6B540EA0-879E-4877-ADBF-1E90C7170424";
shapes = (
{
closed = 1;
nodes = (
(380,0,l),
(380,508,l),
(572,508,ls),
(886,508,o),
(1078,662,o),
(1078,958,cs),
(1078,1252,o),
(886,1400,o),
(572,1400,cs),
(100,1400,l),
(100,0,l)
);
},
{
closed = 1;
nodes = (
(380,1150,l),
(556,1150,ls),
(708,1150,o),
(794,1088,o),
(794,956,cs),
(794,822,o),
(708,760,o),
(556,760,cs),
(380,760,l)
);
}
);
width = 1098;
}
);
metricLeft = H;
unicode = 80;
},
{
glyphname = Thorn;
kernLeft = H;
kernRight = Thorn;
lastChange = "2022-04-29 18:10:09 +0000";
layers = (
{
anchors = (
{
name = bottom;
pos = (240,0);
},
{
name = ogonek;
pos = (380,0);
},
{
name = top;
pos = (240,1400);
}
);
layerId = "1B5AC656-48C3-4864-953F-2CD31E7BA751";
shapes = (
{
closed = 1;
nodes = (
(380,0,l),
(380,238,l),
(574,238,ls),
(888,238,o),
(1080,408,o),
(1080,704,cs),
(1080,998,o),
(888,1164,o),
(574,1164,cs),
(376,1164,l),
(376,1400,l),
(100,1400,l),
(100,0,l)
);
},
{
closed = 1;
nodes = (
(380,912,l),
(558,912,ls),
(710,912,o),
(796,844,o),
(796,702,cs),
(796,558,o),
(710,490,o),
(558,490,cs),
(380,490,l)
);
}
);
width = 1106;
},
{
anchors = (
{
name = bottom;
pos = (240,0);
},
{
name = ogonek;
pos = (380,0);
},
{
name = top;
pos = (240,1400);
}
);
layerId = "6B540EA0-879E-4877-ADBF-1E90C7170424";
shapes = (
{
closed = 1;
nodes = (
(380,0,l),
(380,238,l),
(574,238,ls),
(888,238,o),
(1080,408,o),
(1080,704,cs),
(1080,998,o),
(888,1164,o),
(574,1164,cs),
(376,1164,l),
(376,1400,l),
(100,1400,l),
(100,0,l)
);
},
{
closed = 1;
nodes = (
(380,912,l),
(558,912,ls),
(710,912,o),
(796,844,o),
(796,702,cs),
(796,558,o),
(710,490,o),
(558,490,cs),
(380,490,l)
);
}
);
width = 1106;
}
);
unicode = 222;
},
{
glyphname = Q;
kernLeft = O;
kernRight = O;
lastChange = "2022-04-29 18:10:09 +0000";
layers = (
{
anchors = (
{
name = bottom;
pos = (780,0);
},
{
name = ogonek;
pos = (1480,-114);
},
{
name = top;
pos = (780,1400);
}
);
background = {
shapes = (
{
closed = 1;
nodes = (
(1506,-186,l),
(1798,-186,l),
(1798,960,l),
(1506,960,l)
);
}
);
};
layerId = "1B5AC656-48C3-4864-953F-2CD31E7BA751";
shapes = (
{
closed = 1;
nodes = (
(1480,-114,l),
(1204,300,l),
(1194,344,l),
(1078,516,l),
(774,516,l),
(996,182,l),
(1002,142,l),
(1176,-114,l)
);
},
{
ref = O;
}
);
width = 1556;
},
{
anchors = (
{
name = bottom;
pos = (780,0);
},
{
name = ogonek;
pos = (1480,-114);
},
{
name = top;
pos = (780,1400);
}
);
background = {
shapes = (
{
closed = 1;
nodes = (
(1506,-186,l),
(1798,-186,l),
(1798,960,l),
(1506,960,l)
);
}
);
};
layerId = "6B540EA0-879E-4877-ADBF-1E90C7170424";
shapes = (
{
closed = 1;
nodes = (
(1480,-114,l),
(1204,300,l),
(1194,344,l),
(1078,516,l),
(774,516,l),
(996,182,l),
(1002,142,l),
(1176,-114,l)
);
},
{
ref = O;
}
);
width = 1556;
}
);
metricLeft = O;
unicode = 81;
},
{
glyphname = R;
kernLeft = H;
kernRight = R;
lastChange = "2022-04-29 18:10:09 +0000";
layers = (
{
anchors = (
{
name = bottom;
pos = (610,0);
},
{
name = ogonek;
pos = (1114,0);
},
{
name = top;
pos = (560,1400);
}
);
background = {
shapes = (
{
closed = 1;
nodes = (
(1156,0,l),
(848,678,l),
(514,678,l),
(822,0,l)
);
},
{
closed = 1;
nodes = (
(592,544,ls),
(906,544,o),
(1098,700,o),
(1098,976,cs),
(1098,1250,o),
(906,1404,o),
(592,1402,cs),
(280,1400,l),
(280,544,l)
);
},
{
closed = 1;
nodes = (
(380,0,l),
(380,1400,l),
(100,1400,l),
(100,0,l)
);
},
{
closed = 1;
nodes = (
(380,1150,l),
(576,1150,ls),
(728,1150,o),
(814,1086,o),
(814,974,cs),
(814,860,o),
(728,796,o),
(576,796,cs),
(380,796,l)
);
},
{
closed = 1;
nodes = (
(1156,0,l),
(790,678,l),
(476,678,l),
(842,0,l)
);
}
);
};
layerId = "1B5AC656-48C3-4864-953F-2CD31E7BA751";
shapes = (
{
closed = 1;
nodes = (
(380,0,l),
(380,546,l),
(542,546,l),
(552,556,l),
(866,556,o),
(1058,700,o),
(1058,976,cs),
(1058,1250,o),
(866,1404,o),
(552,1402,cs),
(100,1400,l),
(100,0,l)
);
},
{
closed = 1;
nodes = (
(1114,0,l),
(650,678,l),
(328,678,l),
(420,576,l),
(444,516,o),
(462,480,o),
(486,444,cs),
(784,0,l)
);
},
{
closed = 1;
nodes = (
(380,1148,l),
(536,1148,ls),
(688,1148,o),
(774,1086,o),
(774,974,cs),
(774,860,o),
(688,798,o),
(536,798,cs),
(380,798,l)
);
}
);
width = 1102;
},
{
anchors = (
{
name = bottom;
pos = (610,0);
},
{
name = ogonek;
pos = (1114,0);
},
{
name = top;
pos = (560,1400);
}
);
background = {
shapes = (
{
closed = 1;
nodes = (
(1156,0,l),
(848,678,l),
(514,678,l),
(822,0,l)
);
},
{
closed = 1;
nodes = (
(592,544,ls),
(906,544,o),
(1098,700,o),
(1098,976,cs),
(1098,1250,o),
(906,1404,o),
(592,1402,cs),
(280,1400,l),
(280,544,l)
);
},
{
closed = 1;
nodes = (
(380,0,l),
(380,1400,l),
(100,1400,l),
(100,0,l)
);
},
{
closed = 1;
nodes = (
(380,1150,l),
(576,1150,ls),
(728,1150,o),
(814,1086,o),
(814,974,cs),
(814,860,o),
(728,796,o),
(576,796,cs),
(380,796,l)
);
},
{
closed = 1;
nodes = (
(1156,0,l),
(790,678,l),
(476,678,l),
(842,0,l)
);
}
);
};
layerId = "6B540EA0-879E-4877-ADBF-1E90C7170424";
shapes = (
{
closed = 1;
nodes = (
(380,0,l),
(380,546,l),
(542,546,l),
(552,556,l),
(866,556,o),
(1058,700,o),
(1058,976,cs),
(1058,1250,o),
(866,1404,o),
(552,1402,cs),
(100,1400,l),
(100,0,l)
);
},
{
closed = 1;
nodes = (
(1114,0,l),
(650,678,l),
(328,678,l),
(420,576,l),
(444,516,o),
(462,480,o),
(486,444,cs),
(784,0,l)
);
},
{
closed = 1;
nodes = (
(380,1148,l),
(536,1148,ls),
(688,1148,o),
(774,1086,o),
(774,974,cs),
(774,860,o),
(688,798,o),
(536,798,cs),
(380,798,l)
);
}
);
width = 1102;
}
);
unicode = 82;
},
{
glyphname = S;
kernLeft = S;
kernRight = S;
lastChange = "2022-04-29 18:10:09 +0000";
layers = (
{
anchors = (
{
name = bottom;
pos = (564,0);
},
{
name = ogonek;
pos = (764,0);
},
{
name = top;
pos = (598,1400);
}
);
background = {
shapes = (
{
closed = 1;
nodes = (
(114,5452,o),
(300,5624,o),
(588,5624,cs),
(844,5624,o),
(980,5528,o),
(1084,5364,c),
(844,5216,l),
(776,5324,o),
(716,5374,o),
(594,5374,cs),
(478,5374,o),
(404,5320,o),
(404,5228,cs),
(404,5148,o),
(454,5110,o),
(554,5078,cs),
(730,5022,ls),
(918,4962,o),
(1074,4854,o),
(1074,4600,cs),
(1074,4336,o),
(874,4174,o),
(572,4174,cs),
(312,4174,o),
(146,4264,o),
(12,4476,c),
(262,4636,l),
(338,4498,o),
(442,4424,o),
(588,4424,cs),
(706,4424,o),
(784,4488,o),
(784,4586,cs),
(784,4682,o),
(698,4742,o),
(588,4776,cs),
(412,4830,ls),
(258,4878,o),
(114,4988,o),
(114,5216,cs)
);
},
{
closed = 1;
nodes = (
(860,2574,o),
(1062,2720,o),
(1062,2998,cs),
(1062,3320,o),
(790,3390,o),
(626,3444,cs),
(504,3484,o),
(414,3530,o),
(414,3632,cs),
(414,3716,o),
(474,3774,o),
(598,3774,cs),
(714,3774,o),
(776,3724,o),
(844,3616,c),
(1084,3764,l),
(980,3928,o),
(844,4024,o),
(614,4024,cs),
(310,4024,o),
(124,3858,o),
(124,3612,cs),
(124,3372,o),
(300,3268,o),
(472,3208,cs),
(632,3152,o),
(772,3114,o),
(772,2978,cs),
(772,2882,o),
(704,2824,o),
(576,2824,cs),
(442,2824,o),
(334,2886,o),
(262,3030,c),
(20,2876,l),
(142,2662,o),
(326,2574,o),
(560,2574,cs)
);
},
{
closed = 1;
nodes = (
(858,-26,o),
(1072,126,o),
(1072,404,cs),
(1072,728,o),
(780,796,o),
(616,848,cs),
(494,886,o),
(394,920,o),
(394,1022,cs),
(394,1114,o),
(476,1174,o),
(588,1174,cs),
(692,1174,o),
(756,1124,o),
(824,1016,c),
(1064,1164,l),
(960,1328,o),
(820,1424,o),
(602,1424,cs),
(306,1424,o),
(104,1254,o),
(104,1002,cs),
(104,786,o),
(246,664,o),
(462,608,cs),
(634,564,o),
(782,520,o),
(782,384,cs),
(782,288,o),
(702,224,o),
(572,224,cs),
(450,224,o),
(334,286,o),
(262,430,c),
(20,276,l),
(142,62,o),
(334,-26,o),
(556,-26,cs)
);
}
);
};
layerId = "1B5AC656-48C3-4864-953F-2CD31E7BA751";
shapes = (
{
closed = 1;
nodes = (
(874,-26,o),
(1068,146,o),
(1068,400,cs),
(1068,720,o),
(780,792,o),
(616,844,cs),
(494,882,o),
(394,916,o),
(394,1020,cs),
(394,1114,o),
(476,1174,o),
(588,1174,cs),
(692,1174,o),
(756,1124,o),
(824,1016,c),
(1064,1164,l),
(960,1328,o),
(820,1424,o),
(602,1424,cs),
(306,1424,o),
(108,1258,o),
(108,1006,cs),
(108,794,o),
(246,668,o),
(462,612,cs),
(634,568,o),
(782,524,o),
(782,384,cs),
(782,288,o),
(702,224,o),
(572,224,cs),
(450,224,o),
(334,286,o),
(262,430,c),
(20,276,l),
(142,62,o),
(334,-26,o),
(556,-26,cs)
);
}
);
width = 1112;
},
{
anchors = (
{
name = bottom;
pos = (564,0);
},
{
name = ogonek;
pos = (764,0);
},
{
name = top;
pos = (598,1400);
}
);
background = {
shapes = (
{
closed = 1;
nodes = (
(114,5452,o),
(300,5624,o),
(588,5624,cs),
(844,5624,o),
(980,5528,o),
(1084,5364,c),
(844,5216,l),
(776,5324,o),
(716,5374,o),
(594,5374,cs),
(478,5374,o),
(404,5320,o),
(404,5228,cs),
(404,5148,o),
(454,5110,o),
(554,5078,cs),
(730,5022,ls),
(918,4962,o),
(1074,4854,o),
(1074,4600,cs),
(1074,4336,o),
(874,4174,o),
(572,4174,cs),
(312,4174,o),
(146,4264,o),
(12,4476,c),
(262,4636,l),
(338,4498,o),
(442,4424,o),
(588,4424,cs),
(706,4424,o),
(784,4488,o),
(784,4586,cs),
(784,4682,o),
(698,4742,o),
(588,4776,cs),
(412,4830,ls),
(258,4878,o),
(114,4988,o),
(114,5216,cs)
);
},
{
closed = 1;
nodes = (
(860,2574,o),
(1062,2720,o),
(1062,2998,cs),
(1062,3320,o),
(790,3390,o),
(626,3444,cs),
(504,3484,o),
(414,3530,o),
(414,3632,cs),
(414,3716,o),
(474,3774,o),
(598,3774,cs),
(714,3774,o),
(776,3724,o),
(844,3616,c),
(1084,3764,l),
(980,3928,o),
(844,4024,o),
(614,4024,cs),
(310,4024,o),
(124,3858,o),
(124,3612,cs),
(124,3372,o),
(300,3268,o),
(472,3208,cs),
(632,3152,o),
(772,3114,o),
(772,2978,cs),
(772,2882,o),
(704,2824,o),
(576,2824,cs),
(442,2824,o),
(334,2886,o),
(262,3030,c),
(20,2876,l),
(142,2662,o),
(326,2574,o),
(560,2574,cs)
);
},
{
closed = 1;
nodes = (
(858,-26,o),
(1072,126,o),
(1072,404,cs),
(1072,728,o),
(780,796,o),
(616,848,cs),
(494,886,o),
(394,920,o),
(394,1022,cs),
(394,1114,o),
(476,1174,o),
(588,1174,cs),
(692,1174,o),
(756,1124,o),
(824,1016,c),
(1064,1164,l),
(960,1328,o),
(820,1424,o),
(602,1424,cs),
(306,1424,o),
(104,1254,o),
(104,1002,cs),
(104,786,o),
(246,664,o),
(462,608,cs),
(634,564,o),
(782,520,o),
(782,384,cs),
(782,288,o),
(702,224,o),
(572,224,cs),
(450,224,o),
(334,286,o),
(262,430,c),
(20,276,l),
(142,62,o),
(334,-26,o),
(556,-26,cs)
);
}
);
};
layerId = "6B540EA0-879E-4877-ADBF-1E90C7170424";
shapes = (
{
closed = 1;
nodes = (
(874,-26,o),
(1068,146,o),
(1068,400,cs),
(1068,720,o),
(780,792,o),
(616,844,cs),
(494,882,o),
(394,916,o),
(394,1020,cs),
(394,1114,o),
(476,1174,o),
(588,1174,cs),
(692,1174,o),
(756,1124,o),
(824,1016,c),
(1064,1164,l),
(960,1328,o),
(820,1424,o),
(602,1424,cs),
(306,1424,o),
(108,1258,o),
(108,1006,cs),
(108,794,o),
(246,668,o),
(462,612,cs),
(634,568,o),
(782,524,o),
(782,384,cs),
(782,288,o),
(702,224,o),
(572,224,cs),
(450,224,o),
(334,286,o),
(262,430,c),
(20,276,l),
(142,62,o),
(334,-26,o),
(556,-26,cs)
);
}
);
width = 1112;
}
);
unicode = 83;
},
{
glyphname = Saltillo;
lastChange = "2022-04-29 18:10:09 +0000";
layers = (
{
layerId = "1B5AC656-48C3-4864-953F-2CD31E7BA751";
shapes = (
{
closed = 1;
nodes = (
(382,386,l),
(428,1154,l),
(428,1400,l),
(148,1400,l),
(148,1154,l),
(194,386,l)
);
}
);
width = 576;
},
{
layerId = "6B540EA0-879E-4877-ADBF-1E90C7170424";
shapes = (
{
closed = 1;
nodes = (
(382,386,l),
(428,1154,l),
(428,1400,l),
(148,1400,l),
(148,1154,l),
(194,386,l)
);
}
);
width = 576;
}
);
unicode = 42891;
},
{
glyphname = Germandbls;
kernLeft = H;
kernRight = Germandbls;
lastChange = "2022-04-29 18:12:24 +0000";
layers = (
{
background = {
shapes = (
{
closed = 1;
nodes = (
(971,4388,o),
(1145,4608,o),
(1145,4858,cs),
(1145,5060,o),
(1023,5228,o),
(675,5228,c),
(697,5170,l),
(919,5194,o),
(999,5360,o),
(999,5498,cs),
(999,5698,o),
(845,5884,o),
(537,5884,cs),
(249,5884,o),
(75,5698,o),
(75,5448,cs),
(75,4400,l),
(345,4400,l),
(345,5448,ls),
(345,5572,o),
(419,5646,o),
(539,5646,cs),
(655,5646,o),
(731,5572,o),
(731,5468,cs),
(731,5322,o),
(635,5272,o),
(543,5272,c),
(543,5070,l),
(759,5070,o),
(867,4978,o),
(867,4858,cs),
(867,4744,o),
(781,4642,o),
(529,4642,c),
(529,4388,l)
);
},
{
closed = 1;
nodes = (
(269,2258,l),
(203,2292,o),
(147,2346,o),
(107,2430,c),
(-135,2276,l),
(-57,2138,o),
(51,2052,o),
(177,2010,c)
);
},
{
closed = 1;
nodes = (
(337,2010,l),
(407,1986,o),
(483,1974,o),
(561,1974,cs),
(863,1974,o),
(1077,2126,o),
(1077,2404,cs),
(1077,2728,o),
(785,2796,o),
(621,2848,cs),
(499,2886,o),
(399,2920,o),
(399,3022,cs),
(399,3114,o),
(481,3174,o),
(593,3174,cs),
(697,3174,o),
(761,3124,o),
(829,3016,c),
(1069,3164,l),
(965,3328,o),
(825,3424,o),
(607,3424,cs),
(311,3424,o),
(109,3254,o),
(109,3002,cs),
(109,2786,o),
(251,2664,o),
(467,2608,cs),
(639,2564,o),
(787,2520,o),
(787,2384,cs),
(787,2288,o),
(707,2224,o),
(577,2224,cs),
(525,2224,o),
(475,2236,o),
(429,2258,c)
);
},
{
closed = 1;
nodes = (
(1039,-26,o),
(1201,200,o),
(1201,424,cs),
(1201,618,o),
(1059,850,o),
(675,850,c),
(675,718,l),
(995,756,o),
(1079,960,o),
(1079,1098,cs),
(1079,1298,o),
(909,1486,o),
(641,1486,cs),
(357,1486,o),
(175,1282,o),
(175,1028,cs),
(175,0,l),
(445,0,l),
(445,1028,ls),
(445,1168,o),
(527,1240,o),
(633,1240,cs),
(737,1240,o),
(811,1164,o),
(811,1068,cs),
(811,922,o),
(709,870,o),
(589,870,c),
(589,654,l),
(839,692,o),
(933,560,o),
(933,430,cs),
(933,280,o),
(823,216,o),
(731,216,cs),
(673,216,o),
(623,236,o),
(585,260,c),
(483,28,l),
(543,-6,o),
(623,-26,o),
(739,-26,cs)
);
},
{
closed = 1;
nodes = (
(1639,606,l),
(1639,852,l),
(919,852,l),
(919,810,l),
(953,844,o),
(981,880,o),
(1003,916,cs),
(1639,1976,l),
(1639,2006,l),
(549,2006,l),
(549,1760,l),
(1231,1760,l),
(1231,1802,l),
(1197,1768,o),
(1169,1732,o),
(1147,1696,cs),
(511,636,l),
(511,606,l)
);
}
);
};
layerId = "1B5AC656-48C3-4864-953F-2CD31E7BA751";
shapes = (
{
closed = 1;
nodes = (
(1053,-26,o),
(1201,198,o),
(1201,412,cs),
(1201,582,o),
(1117,814,o),
(743,814,c),
(847,692,l),
(1249,1372,l),
(1249,1404,l),
(647,1404,ls),
(279,1404,o),
(95,1218,o),
(95,868,cs),
(95,0,l),
(373,0,l),
(373,848,ls),
(373,1072,o),
(449,1154,o),
(649,1154,cs),
(879,1154,l),
(899,1196,l),
(845,1162,o),
(817,1126,o),
(795,1090,cs),
(523,638,l),
(523,612,l),
(701,612,ls),
(847,612,o),
(933,538,o),
(933,414,cs),
(933,312,o),
(865,216,o),
(733,216,cs),
(659,216,o),
(615,238,o),
(577,272,c),
(425,58,l),
(523,-8,o),
(611,-26,o),
(757,-26,cs)
);
}
);
width = 1283;
},
{
background = {
shapes = (
{
closed = 1;
nodes = (
(971,4388,o),
(1145,4608,o),
(1145,4858,cs),
(1145,5060,o),
(1023,5228,o),
(675,5228,c),
(697,5170,l),
(919,5194,o),
(999,5360,o),
(999,5498,cs),
(999,5698,o),
(845,5884,o),
(537,5884,cs),
(249,5884,o),
(75,5698,o),
(75,5448,cs),
(75,4400,l),
(345,4400,l),
(345,5448,ls),
(345,5572,o),
(419,5646,o),
(539,5646,cs),
(655,5646,o),
(731,5572,o),
(731,5468,cs),
(731,5322,o),
(635,5272,o),
(543,5272,c),
(543,5070,l),
(759,5070,o),
(867,4978,o),
(867,4858,cs),
(867,4744,o),
(781,4642,o),
(529,4642,c),
(529,4388,l)
);
},
{
closed = 1;
nodes = (
(269,2258,l),
(203,2292,o),
(147,2346,o),
(107,2430,c),
(-135,2276,l),
(-57,2138,o),
(51,2052,o),
(177,2010,c)
);
},
{
closed = 1;
nodes = (
(337,2010,l),
(407,1986,o),
(483,1974,o),
(561,1974,cs),
(863,1974,o),
(1077,2126,o),
(1077,2404,cs),
(1077,2728,o),
(785,2796,o),
(621,2848,cs),
(499,2886,o),
(399,2920,o),
(399,3022,cs),
(399,3114,o),
(481,3174,o),
(593,3174,cs),
(697,3174,o),
(761,3124,o),
(829,3016,c),
(1069,3164,l),
(965,3328,o),
(825,3424,o),
(607,3424,cs),
(311,3424,o),
(109,3254,o),
(109,3002,cs),
(109,2786,o),
(251,2664,o),
(467,2608,cs),
(639,2564,o),
(787,2520,o),
(787,2384,cs),
(787,2288,o),
(707,2224,o),
(577,2224,cs),
(525,2224,o),
(475,2236,o),
(429,2258,c)
);
},
{
closed = 1;
nodes = (
(1039,-26,o),
(1201,200,o),
(1201,424,cs),
(1201,618,o),
(1059,850,o),
(675,850,c),
(675,718,l),
(995,756,o),
(1079,960,o),
(1079,1098,cs),
(1079,1298,o),
(909,1486,o),
(641,1486,cs),
(357,1486,o),
(175,1282,o),
(175,1028,cs),
(175,0,l),
(445,0,l),
(445,1028,ls),
(445,1168,o),
(527,1240,o),
(633,1240,cs),
(737,1240,o),
(811,1164,o),
(811,1068,cs),
(811,922,o),
(709,870,o),
(589,870,c),
(589,654,l),
(839,692,o),
(933,560,o),
(933,430,cs),
(933,280,o),
(823,216,o),
(731,216,cs),
(673,216,o),
(623,236,o),
(585,260,c),
(483,28,l),
(543,-6,o),
(623,-26,o),
(739,-26,cs)
);
},
{
closed = 1;
nodes = (
(1639,606,l),
(1639,852,l),
(919,852,l),
(919,810,l),
(953,844,o),
(981,880,o),
(1003,916,cs),
(1639,1976,l),
(1639,2006,l),
(549,2006,l),
(549,1760,l),
(1231,1760,l),
(1231,1802,l),
(1197,1768,o),
(1169,1732,o),
(1147,1696,cs),
(511,636,l),
(511,606,l)
);
}
);
};
layerId = "6B540EA0-879E-4877-ADBF-1E90C7170424";
shapes = (
{
closed = 1;
nodes = (
(1053,-26,o),
(1201,198,o),
(1201,412,cs),
(1201,582,o),
(1117,814,o),
(743,814,c),
(847,692,l),
(1249,1372,l),
(1249,1404,l),
(647,1404,ls),
(279,1404,o),
(95,1218,o),
(95,868,cs),
(95,0,l),
(373,0,l),
(373,848,ls),
(373,1072,o),
(449,1154,o),
(649,1154,cs),
(879,1154,l),
(899,1196,l),
(845,1162,o),
(817,1126,o),
(795,1090,cs),
(523,638,l),
(523,612,l),
(701,612,ls),
(847,612,o),
(933,538,o),
(933,414,cs),
(933,312,o),
(865,216,o),
(733,216,cs),
(659,216,o),
(615,238,o),
(577,272,c),
(425,58,l),
(523,-8,o),
(611,-26,o),
(757,-26,cs)
);
}
);
width = 1283;
}
);
metricLeft = "=H-5";
unicode = 7838;
},
{
glyphname = T;
kernLeft = T;
kernRight = T;
lastChange = "2022-04-29 18:10:09 +0000";
layers = (
{
anchors = (
{
name = bottom;
pos = (570,0);
},
{
name = center;
pos = (570,646);
},
{
name = ogonek;
pos = (710,0);
},
{
name = top;
pos = (570,1400);
}
);
layerId = "1B5AC656-48C3-4864-953F-2CD31E7BA751";
shapes = (
{
closed = 1;
nodes = (
(710,0,l),
(710,1238,l),
(620,1148,l),
(1110,1148,l),
(1110,1400,l),
(30,1400,l),
(30,1148,l),
(520,1148,l),
(430,1238,l),
(430,0,l)
);
}
);
width = 1140;
},
{
anchors = (
{
name = bottom;
pos = (570,0);
},
{
name = center;
pos = (570,646);
},
{
name = ogonek;
pos = (710,0);
},
{
name = top;
pos = (570,1400);
}
);
layerId = "6B540EA0-879E-4877-ADBF-1E90C7170424";
shapes = (
{
closed = 1;
nodes = (
(710,0,l),
(710,1238,l),
(620,1148,l),
(1110,1148,l),
(1110,1400,l),
(30,1400,l),
(30,1148,l),
(520,1148,l),
(430,1238,l),
(430,0,l)
);
}
);
width = 1140;
}
);
unicode = 84;
},
{
glyphname = U;
kernLeft = U;
kernRight = U;
lastChange = "2022-04-29 18:10:09 +0000";
layers = (
{
anchors = (
{
name = bottom;
pos = (646,0);
},
{
name = ogonek;
pos = (704,28);
},
{
name = top;
pos = (646,1368);
},
{
name = top_ring;
pos = (646,1294);
},
{
name = topright;
pos = (1228,1400);
}
);
background = {
shapes = (
{
closed = 1;
nodes = (
(360,0,l),
(360,1400,l),
(80,1400,l),
(80,0,l)
);
},
{
closed = 1;
nodes = (
(218,584,l),
(1042,584,l),
(1042,836,l),
(218,836,l)
);
},
{
closed = 1;
nodes = (
(1260,0,l),
(1260,1400,l),
(980,1400,l),
(980,0,l)
);
},
{
closed = 1;
nodes = (
(1062,-26,o),
(1374,298,o),
(1374,698,cs),
(1374,1100,o),
(1062,1426,o),
(648,1426,cs),
(232,1426,o),
(-82,1100,o),
(-82,698,cs),
(-82,298,o),
(232,-26,o),
(648,-26,cs)
);
},
{
closed = 1;
nodes = (
(384,232,o),
(216,444,o),
(216,698,cs),
(216,952,o),
(384,1166,o),
(648,1166,cs),
(910,1166,o),
(1076,952,o),
(1076,698,cs),
(1076,444,o),
(910,232,o),
(648,232,cs)
);
}
);
};
layerId = "1B5AC656-48C3-4864-953F-2CD31E7BA751";
shapes = (
{
closed = 1;
nodes = (
(988,-26,o),
(1212,198,o),
(1212,518,cs),
(1212,1400,l),
(932,1400,l),
(932,548,ls),
(932,350,o),
(838,230,o),
(646,230,cs),
(454,230,o),
(360,350,o),
(360,548,cs),
(360,1400,l),
(80,1400,l),
(80,518,ls),
(80,198,o),
(304,-26,o),
(646,-26,cs)
);
}
);
width = 1292;
},
{
anchors = (
{
name = bottom;
pos = (646,0);
},
{
name = ogonek;
pos = (704,28);
},
{
name = top;
pos = (646,1368);
},
{
name = top_ring;
pos = (646,1294);
},
{
name = topright;
pos = (1228,1400);
}
);
background = {
shapes = (
{
closed = 1;
nodes = (
(360,0,l),
(360,1400,l),
(80,1400,l),
(80,0,l)
);
},
{
closed = 1;
nodes = (
(218,584,l),
(1042,584,l),
(1042,836,l),
(218,836,l)
);
},
{
closed = 1;
nodes = (
(1260,0,l),
(1260,1400,l),
(980,1400,l),
(980,0,l)
);
},
{
closed = 1;
nodes = (
(1062,-26,o),
(1374,298,o),
(1374,698,cs),
(1374,1100,o),
(1062,1426,o),
(648,1426,cs),
(232,1426,o),
(-82,1100,o),
(-82,698,cs),
(-82,298,o),
(232,-26,o),
(648,-26,cs)
);
},
{
closed = 1;
nodes = (
(384,232,o),
(216,444,o),
(216,698,cs),
(216,952,o),
(384,1166,o),
(648,1166,cs),
(910,1166,o),
(1076,952,o),
(1076,698,cs),
(1076,444,o),
(910,232,o),
(648,232,cs)
);
}
);
};
layerId = "6B540EA0-879E-4877-ADBF-1E90C7170424";
shapes = (
{
closed = 1;
nodes = (
(988,-26,o),
(1212,198,o),
(1212,518,cs),
(1212,1400,l),
(932,1400,l),
(932,548,ls),
(932,350,o),
(838,230,o),
(646,230,cs),
(454,230,o),
(360,350,o),
(360,548,cs),
(360,1400,l),
(80,1400,l),
(80,518,ls),
(80,198,o),
(304,-26,o),
(646,-26,cs)
);
}
);
width = 1292;
}
);
unicode = 85;
},
{
glyphname = Uogonek;
kernLeft = U;
kernRight = U;
lastChange = "2022-04-29 18:10:09 +0000";
layers = (
{
anchors = (
{
name = _ogonek;
pos = (836,0);
}
);
background = {
shapes = (
{
closed = 1;
nodes = (
(698,-464,o),
(926,-412,c),
(926,-242,l),
(820,-278,o),
(744,-220,o),
(744,-132,cs),
(744,-64,o),
(794,-12,o),
(850,4,c),
(804,12,l),
(708,0,l),
(630,-18,o),
(558,-86,o),
(558,-212,cs),
(558,-326,o)
);
}
);
};
layerId = "1B5AC656-48C3-4864-953F-2CD31E7BA751";
shapes = (
{
ref = U;
},
{
pos = (704,28);
ref = ogonekcomb;
scale = (1,1.07);
}
);
width = 1292;
},
{
anchors = (
{
name = _ogonek;
pos = (836,0);
}
);
background = {
shapes = (
{
closed = 1;
nodes = (
(698,-464,o),
(926,-412,c),
(926,-242,l),
(820,-278,o),
(744,-220,o),
(744,-132,cs),
(744,-64,o),
(794,-12,o),
(850,4,c),
(804,12,l),
(708,0,l),
(630,-18,o),
(558,-86,o),
(558,-212,cs),
(558,-326,o)
);
}
);
};
layerId = "6B540EA0-879E-4877-ADBF-1E90C7170424";
shapes = (
{
ref = U;
},
{
pos = (704,28);
ref = ogonekcomb;
scale = (1,1.07);
}
);
width = 1292;
}
);
unicode = 370;
},
{
glyphname = V;
lastChange = "2022-04-29 18:12:24 +0000";
layers = (
{
anchors = (
{
name = bottom;
pos = (658,0);
},
{
name = ogonek;
pos = (812,0);
},
{
name = top;
pos = (658,1400);
}
);
background = {
shapes = (
{
closed = 1;
nodes = (
(778,0,l),
(1332,1400,l),
(1028,1400,l),
(908,1068,l),
(882,986,l),
(708,510,ls),
(676,422,o),
(650,326,o),
(638,238,c),
(680,238,l),
(668,326,o),
(640,420,o),
(608,510,cs),
(434,986,l),
(408,1068,l),
(288,1400,l),
(-16,1400,l),
(536,0,l)
);
}
);
};
layerId = "1B5AC656-48C3-4864-953F-2CD31E7BA751";
shapes = (
{
closed = 1;
nodes = (
(792,0,l),
(1346,1400,l),
(1028,1400,l),
(708,510,ls),
(676,422,o),
(654,326,o),
(642,238,c),
(676,238,l),
(664,326,o),
(640,420,o),
(608,510,cs),
(288,1400,l),
(-36,1400,l),
(522,0,l)
);
}
);
width = 1310;
},
{
anchors = (
{
name = bottom;
pos = (658,0);
},
{
name = ogonek;
pos = (812,0);
},
{
name = top;
pos = (658,1400);
}
);
background = {
shapes = (
{
closed = 1;
nodes = (
(778,0,l),
(1332,1400,l),
(1028,1400,l),
(908,1068,l),
(882,986,l),
(708,510,ls),
(676,422,o),
(650,326,o),
(638,238,c),
(680,238,l),
(668,326,o),
(640,420,o),
(608,510,cs),
(434,986,l),
(408,1068,l),
(288,1400,l),
(-16,1400,l),
(536,0,l)
);
}
);
};
layerId = "6B540EA0-879E-4877-ADBF-1E90C7170424";
shapes = (
{
closed = 1;
nodes = (
(792,0,l),
(1346,1400,l),
(1028,1400,l),
(708,510,ls),
(676,422,o),
(654,326,o),
(642,238,c),
(676,238,l),
(664,326,o),
(640,420,o),
(608,510,cs),
(288,1400,l),
(-36,1400,l),
(522,0,l)
);
}
);
width = 1310;
}
);
metricLeft = "=A+2";
metricRight = "=A+2";
unicode = 86;
},
{
glyphname = W;
kernLeft = W;
kernRight = W;
lastChange = "2022-04-29 18:12:24 +0000";
layers = (
{
anchors = (
{
name = bottom;
pos = (1034,0);
},
{
name = ogonek;
pos = (1628,0);
},
{
name = top;
pos = (1046,1400);
}
);
background = {
shapes = (
{
closed = 0;
nodes = (
(626,2110,ls),
(594,2022,o),
(572,1926,o),
(560,1838,c),
(594,1838,l),
(582,1926,o),
(558,2020,o),
(526,2110,cs)
);
},
{
closed = 0;
nodes = (
(1580,2110,l),
(1548,2022,o),
(1526,1926,o),
(1514,1838,c),
(1548,1838,l),
(1536,1926,o),
(1512,2020,o),
(1480,2110,c)
);
},
{
closed = 0;
nodes = (
(1006,2520,l),
(1038,2608,o),
(1060,2704,o),
(1072,2792,c),
(1038,2792,l),
(1050,2704,o),
(1074,2610,o),
(1106,2520,c)
);
},
{
closed = 1;
nodes = (
(970,2496,ls),
(994,2584,o),
(1018,2680,o),
(1030,2768,c),
(1020,2768,l),
(1032,2680,o),
(1056,2586,o),
(1080,2496,cs),
(1314,1600,l),
(1682,1600,l),
(2096,3000,l),
(1778,3000,l),
(1552,2104,ls),
(1530,2016,o),
(1506,1920,o),
(1496,1832,c),
(1504,1832,l),
(1494,1920,o),
(1466,2014,o),
(1442,2104,cs),
(1210,3000,l),
(834,3000,l),
(600,2104,ls),
(578,2016,o),
(550,1920,o),
(540,1832,c),
(548,1832,l),
(538,1920,o),
(516,2014,o),
(494,2104,cs),
(266,3000,l),
(-54,3000,l),
(364,1600,l),
(728,1600,l)
);
},
{
closed = 0;
nodes = (
(-36,1440,l),
(512,-234,l)
);
},
{
closed = 0;
nodes = (
(2106,1440,l),
(1558,-234,l)
);
},
{
closed = 0;
nodes = (
(282,1440,l),
(756,-234,l)
);
},
{
closed = 1;
nodes = (
(3512,0,l),
(4066,1400,l),
(3748,1400,l),
(3428,510,ls),
(3396,422,o),
(3374,326,o),
(3362,238,c),
(3396,238,l),
(3384,326,o),
(3360,420,o),
(3328,510,cs),
(3008,1400,l),
(2684,1400,l),
(3242,0,l)
);
},
{
closed = 0;
nodes = (
(1034,1486,l),
(1034,-400,l)
);
},
{
closed = 0;
nodes = (
(574,1486,l),
(572,-400,l)
);
},
{
closed = 0;
nodes = (
(1502,1486,l),
(1500,-400,l)
);
}
);
};
layerId = "1B5AC656-48C3-4864-953F-2CD31E7BA751";
shapes = (
{
closed = 1;
nodes = (
(692,0,l),
(976,790,ls),
(1008,878,o),
(1028,974,o),
(1040,1062,c),
(1028,1062,l),
(1038,974,o),
(1060,878,o),
(1092,790,cs),
(1376,0,l),
(1628,0,l),
(2096,1400,l),
(1776,1400,l),
(1552,608,ls),
(1526,518,o),
(1506,424,o),
(1496,336,c),
(1504,336,l),
(1494,424,o),
(1470,520,o),
(1438,608,cs),
(1160,1400,l),
(908,1400,l),
(630,608,ls),
(598,520,o),
(578,424,o),
(568,336,c),
(576,336,l),
(566,424,o),
(542,518,o),
(516,608,cs),
(292,1400,l),
(-28,1400,l),
(440,0,l)
);
}
);
width = 2068;
},
{
anchors = (
{
name = bottom;
pos = (1034,0);
},
{
name = ogonek;
pos = (1628,0);
},
{
name = top;
pos = (1046,1400);
}
);
background = {
shapes = (
{
closed = 0;
nodes = (
(626,2110,ls),
(594,2022,o),
(572,1926,o),
(560,1838,c),
(594,1838,l),
(582,1926,o),
(558,2020,o),
(526,2110,cs)
);
},
{
closed = 0;
nodes = (
(1580,2110,l),
(1548,2022,o),
(1526,1926,o),
(1514,1838,c),
(1548,1838,l),
(1536,1926,o),
(1512,2020,o),
(1480,2110,c)
);
},
{
closed = 0;
nodes = (
(1006,2520,l),
(1038,2608,o),
(1060,2704,o),
(1072,2792,c),
(1038,2792,l),
(1050,2704,o),
(1074,2610,o),
(1106,2520,c)
);
},
{
closed = 1;
nodes = (
(970,2496,ls),
(994,2584,o),
(1018,2680,o),
(1030,2768,c),
(1020,2768,l),
(1032,2680,o),
(1056,2586,o),
(1080,2496,cs),
(1314,1600,l),
(1682,1600,l),
(2096,3000,l),
(1778,3000,l),
(1552,2104,ls),
(1530,2016,o),
(1506,1920,o),
(1496,1832,c),
(1504,1832,l),
(1494,1920,o),
(1466,2014,o),
(1442,2104,cs),
(1210,3000,l),
(834,3000,l),
(600,2104,ls),
(578,2016,o),
(550,1920,o),
(540,1832,c),
(548,1832,l),
(538,1920,o),
(516,2014,o),
(494,2104,cs),
(266,3000,l),
(-54,3000,l),
(364,1600,l),
(728,1600,l)
);
},
{
closed = 0;
nodes = (
(-36,1440,l),
(512,-234,l)
);
},
{
closed = 0;
nodes = (
(2106,1440,l),
(1558,-234,l)
);
},
{
closed = 0;
nodes = (
(282,1440,l),
(756,-234,l)
);
},
{
closed = 1;
nodes = (
(3512,0,l),
(4066,1400,l),
(3748,1400,l),
(3428,510,ls),
(3396,422,o),
(3374,326,o),
(3362,238,c),
(3396,238,l),
(3384,326,o),
(3360,420,o),
(3328,510,cs),
(3008,1400,l),
(2684,1400,l),
(3242,0,l)
);
},
{
closed = 0;
nodes = (
(1034,1486,l),
(1034,-400,l)
);
},
{
closed = 0;
nodes = (
(574,1486,l),
(572,-400,l)
);
},
{
closed = 0;
nodes = (
(1502,1486,l),
(1500,-400,l)
);
}
);
};
layerId = "6B540EA0-879E-4877-ADBF-1E90C7170424";
shapes = (
{
closed = 1;
nodes = (
(692,0,l),
(976,790,ls),
(1008,878,o),
(1028,974,o),
(1040,1062,c),
(1028,1062,l),
(1038,974,o),
(1060,878,o),
(1092,790,cs),
(1376,0,l),
(1628,0,l),
(2096,1400,l),
(1776,1400,l),
(1552,608,ls),
(1526,518,o),
(1506,424,o),
(1496,336,c),
(1504,336,l),
(1494,424,o),
(1470,520,o),
(1438,608,cs),
(1160,1400,l),
(908,1400,l),
(630,608,ls),
(598,520,o),
(578,424,o),
(568,336,c),
(576,336,l),
(566,424,o),
(542,518,o),
(516,608,cs),
(292,1400,l),
(-28,1400,l),
(440,0,l)
);
}
);
width = 2068;
}
);
metricLeft = "=A+10";
metricRight = "=A+10";
unicode = 87;
},
{
glyphname = X;
lastChange = "2022-04-29 18:10:09 +0000";
layers = (
{
anchors = (
{
name = bottom;
pos = (616,0);
},
{
name = ogonek;
pos = (1242,0);
},
{
name = top;
pos = (610,1400);
}
);
layerId = "1B5AC656-48C3-4864-953F-2CD31E7BA751";
shapes = (
{
closed = 1;
nodes = (
(312,0,l),
(616,472,l),
(608,472,l),
(904,0,l),
(1242,0,l),
(712,802,l),
(740,628,l),
(1220,1400,l),
(894,1400,l),
(608,932,l),
(614,932,l),
(336,1400,l),
(2,1400,l),
(486,628,l),
(506,802,l),
(-20,0,l)
);
}
);
width = 1216;
},
{
anchors = (
{
name = bottom;
pos = (616,0);
},
{
name = ogonek;
pos = (1242,0);
},
{
name = top;
pos = (610,1400);
}
);
layerId = "6B540EA0-879E-4877-ADBF-1E90C7170424";
shapes = (
{
closed = 1;
nodes = (
(312,0,l),
(616,472,l),
(608,472,l),
(904,0,l),
(1242,0,l),
(712,802,l),
(740,628,l),
(1220,1400,l),
(894,1400,l),
(608,932,l),
(614,932,l),
(336,1400,l),
(2,1400,l),
(486,628,l),
(506,802,l),
(-20,0,l)
);
}
);
width = 1216;
}
);
unicode = 88;
},
{
glyphname = Y;
kernLeft = Y;
kernRight = Y;
lastChange = "2022-04-29 18:10:09 +0000";
layers = (
{
anchors = (
{
name = bottom;
pos = (568,0);
},
{
name = ogonek;
pos = (702,0);
},
{
name = top;
pos = (566,1400);
}
);
layerId = "1B5AC656-48C3-4864-953F-2CD31E7BA751";
shapes = (
{
closed = 1;
nodes = (
(702,0,l),
(702,662,l),
(666,492,l),
(1176,1400,l),
(870,1400,l),
(660,998,ls),
(622,926,o),
(582,848,o),
(566,774,c),
(576,774,l),
(560,848,o),
(514,928,o),
(476,998,cs),
(256,1400,l),
(-52,1400,l),
(462,492,l),
(422,662,l),
(422,0,l)
);
}
);
width = 1132;
},
{
anchors = (
{
name = bottom;
pos = (568,0);
},
{
name = ogonek;
pos = (702,0);
},
{
name = top;
pos = (566,1400);
}
);
layerId = "6B540EA0-879E-4877-ADBF-1E90C7170424";
shapes = (
{
closed = 1;
nodes = (
(702,0,l),
(702,662,l),
(666,492,l),
(1176,1400,l),
(870,1400,l),
(660,998,ls),
(622,926,o),
(582,848,o),
(566,774,c),
(576,774,l),
(560,848,o),
(514,928,o),
(476,998,cs),
(256,1400,l),
(-52,1400,l),
(462,492,l),
(422,662,l),
(422,0,l)
);
}
);
width = 1132;
}
);
unicode = 89;
},
{
glyphname = Z;
kernLeft = Z;
kernRight = Z;
lastChange = "2022-04-29 18:10:09 +0000";
layers = (
{
anchors = (
{
name = bottom;
pos = (610,0);
},
{
name = ogonek;
pos = (1148,0);
},
{
name = top;
pos = (570,1400);
}
);
background = {
shapes = (
{
closed = 1;
nodes = (
(262,1800,l),
(262,3200,l),
(-18,3200,l),
(-18,1800,l)
);
},
{
closed = 1;
nodes = (
(120,2384,l),
(944,2384,l),
(944,2636,l),
(120,2636,l)
);
},
{
closed = 1;
nodes = (
(1162,1800,l),
(1162,3200,l),
(882,3200,l),
(882,1800,l)
);
},
{
closed = 1;
nodes = (
(338,1844,l),
(1062,3042,l),
(824,3186,l),
(98,1988,l)
);
},
{
closed = 1;
nodes = (
(1148,0,l),
(1148,252,l),
(432,252,l),
(432,210,l),
(466,244,o),
(494,280,o),
(516,316,cs),
(1148,1370,l),
(1148,1400,l),
(58,1400,l),
(58,1148,l),
(736,1148,l),
(736,1190,l),
(702,1156,o),
(674,1120,o),
(652,1084,cs),
(20,30,l),
(20,0,l)
);
}
);
};
layerId = "1B5AC656-48C3-4864-953F-2CD31E7BA751";
shapes = (
{
closed = 1;
nodes = (
(1148,0,l),
(1148,246,l),
(428,246,l),
(428,204,l),
(462,238,o),
(490,274,o),
(512,310,cs),
(1148,1370,l),
(1148,1400,l),
(58,1400,l),
(58,1154,l),
(740,1154,l),
(740,1196,l),
(706,1162,o),
(678,1126,o),
(656,1090,cs),
(20,30,l),
(20,0,l)
);
}
);
width = 1176;
},
{
anchors = (
{
name = bottom;
pos = (610,0);
},
{
name = ogonek;
pos = (1148,0);
},
{
name = top;
pos = (570,1400);
}
);
background = {
shapes = (
{
closed = 1;
nodes = (
(262,1800,l),
(262,3200,l),
(-18,3200,l),
(-18,1800,l)
);
},
{
closed = 1;
nodes = (
(120,2384,l),
(944,2384,l),
(944,2636,l),
(120,2636,l)
);
},
{
closed = 1;
nodes = (
(1162,1800,l),
(1162,3200,l),
(882,3200,l),
(882,1800,l)
);
},
{
closed = 1;
nodes = (
(338,1844,l),
(1062,3042,l),
(824,3186,l),
(98,1988,l)
);
},
{
closed = 1;
nodes = (
(1148,0,l),
(1148,252,l),
(432,252,l),
(432,210,l),
(466,244,o),
(494,280,o),
(516,316,cs),
(1148,1370,l),
(1148,1400,l),
(58,1400,l),
(58,1148,l),
(736,1148,l),
(736,1190,l),
(702,1156,o),
(674,1120,o),
(652,1084,cs),
(20,30,l),
(20,0,l)
);
}
);
};
layerId = "6B540EA0-879E-4877-ADBF-1E90C7170424";
shapes = (
{
closed = 1;
nodes = (
(1148,0,l),
(1148,246,l),
(428,246,l),
(428,204,l),
(462,238,o),
(490,274,o),
(512,310,cs),
(1148,1370,l),
(1148,1400,l),
(58,1400,l),
(58,1154,l),
(740,1154,l),
(740,1196,l),
(706,1162,o),
(678,1126,o),
(656,1090,cs),
(20,30,l),
(20,0,l)
);
}
);
width = 1176;
}
);
unicode = 90;
},
{
glyphname = C.ss01;
kernLeft = O;
kernRight = C.ss01;
lastChange = "2022-04-29 18:10:09 +0000";
layers = (
{
anchors = (
{
name = bottom;
pos = (780,0);
},
{
name = ogonek;
pos = (998,0);
},
{
name = top;
pos = (760,1400);
}
);
background = {
shapes = (
{
closed = 1;
nodes = (
(364,-26,o),
(50,298,o),
(50,698,cs),
(50,1100,o),
(348,1426,o),
(780,1426,cs),
(1008,1426,o),
(1166,1356,o),
(1292,1206,c),
(1094,1034,l),
(1010,1122,o),
(906,1166,o),
(780,1166,cs),
(508,1166,o),
(340,954,o),
(340,698,cs),
(340,442,o),
(510,232,o),
(786,232,cs),
(922,232,o),
(1024,280,o),
(1106,370,c),
(1310,196,l),
(1204,68,o),
(1024,-26,o),
(780,-26,cs)
);
},
{
closed = 1;
nodes = (
(360,-26,o),
(50,298,o),
(50,698,cs),
(50,1100,o),
(344,1426,o),
(776,1426,cs),
(888,1426,o),
(982,1408,o),
(1090,1352,c),
(1090,1036,l),
(1004,1122,o),
(900,1166,o),
(776,1166,cs),
(494,1166,o),
(340,954,o),
(340,698,cs),
(340,442,o),
(510,234,o),
(776,234,cs),
(900,234,o),
(1008,250,o),
(1096,324,c),
(1072,28,l),
(982,-10,o),
(886,-26,o),
(776,-26,cs)
);
}
);
};
layerId = "1B5AC656-48C3-4864-953F-2CD31E7BA751";
shapes = (
{
closed = 1;
nodes = (
(886,-26,o),
(982,-10,o),
(1074,38,c),
(1096,342,l),
(1008,268,o),
(904,236,o),
(780,236,cs),
(510,236,o),
(340,442,o),
(340,698,cs),
(340,950,o),
(498,1166,o),
(776,1166,cs),
(900,1166,o),
(1008,1126,o),
(1094,1034,c),
(1094,1346,l),
(1014,1398,o),
(898,1426,o),
(776,1426,cs),
(344,1426,o),
(50,1100,o),
(50,698,cs),
(50,298,o),
(360,-26,o),
(776,-26,cs)
);
}
);
width = 1156;
},
{
anchors = (
{
name = bottom;
pos = (780,0);
},
{
name = ogonek;
pos = (998,0);
},
{
name = top;
pos = (760,1400);
}
);
background = {
shapes = (
{
closed = 1;
nodes = (
(364,-26,o),
(50,298,o),
(50,698,cs),
(50,1100,o),
(348,1426,o),
(780,1426,cs),
(1008,1426,o),
(1166,1356,o),
(1292,1206,c),
(1094,1034,l),
(1010,1122,o),
(906,1166,o),
(780,1166,cs),
(508,1166,o),
(340,954,o),
(340,698,cs),
(340,442,o),
(510,232,o),
(786,232,cs),
(922,232,o),
(1024,280,o),
(1106,370,c),
(1310,196,l),
(1204,68,o),
(1024,-26,o),
(780,-26,cs)
);
},
{
closed = 1;
nodes = (
(360,-26,o),
(50,298,o),
(50,698,cs),
(50,1100,o),
(344,1426,o),
(776,1426,cs),
(888,1426,o),
(982,1408,o),
(1090,1352,c),
(1090,1036,l),
(1004,1122,o),
(900,1166,o),
(776,1166,cs),
(494,1166,o),
(340,954,o),
(340,698,cs),
(340,442,o),
(510,234,o),
(776,234,cs),
(900,234,o),
(1008,250,o),
(1096,324,c),
(1072,28,l),
(982,-10,o),
(886,-26,o),
(776,-26,cs)
);
}
);
};
layerId = "6B540EA0-879E-4877-ADBF-1E90C7170424";
shapes = (
{
closed = 1;
nodes = (
(886,-26,o),
(982,-10,o),
(1074,38,c),
(1096,342,l),
(1008,268,o),
(904,236,o),
(780,236,cs),
(510,236,o),
(340,442,o),
(340,698,cs),
(340,950,o),
(498,1166,o),
(776,1166,cs),
(900,1166,o),
(1008,1126,o),
(1094,1034,c),
(1094,1346,l),
(1014,1398,o),
(898,1426,o),
(776,1426,cs),
(344,1426,o),
(50,1100,o),
(50,698,cs),
(50,298,o),
(360,-26,o),
(776,-26,cs)
);
}
);
width = 1156;
}
);
metricLeft = O;
},
{
glyphname = a;
kernLeft = o;
kernRight = u;
lastChange = "2022-04-29 18:10:09 +0000";
layers = (
{
anchors = (
{
name = bottom;
pos = (604,0);
},
{
name = ogonek;
pos = (890,0);
},
{
name = top;
pos = (612,1040);
}
);
background = {
anchors = (
{
name = bottom;
pos = (596,0);
},
{
name = center;
pos = (588,530);
},
{
name = ogonek;
pos = (770,0);
},
{
name = top;
pos = (594,1040);
},
{
name = topright;
pos = (912,1040);
}
);
};
backgroundImage = {
imagePath = "../google fonts/Reference/IMG_5180.jpeg";
pos = (-26,1478);
scale = (0.4022,0.4022);
};
layerId = "1B5AC656-48C3-4864-953F-2CD31E7BA751";
shapes = (
{
closed = 1;
nodes = (
(794,-26,o),
(880,104,o),
(930,280,c),
(890,280,l),
(890,0,l),
(1152,0,l),
(1152,1040,l),
(884,1040,l),
(884,752,l),
(930,752,l),
(880,930,o),
(794,1062,o),
(554,1062,cs),
(268,1062,o),
(40,816,o),
(40,516,cs),
(40,216,o),
(268,-26,o),
(554,-26,cs)
);
},
{
closed = 1;
nodes = (
(426,218,o),
(310,360,o),
(310,518,cs),
(310,680,o),
(426,818,o),
(598,818,cs),
(776,818,o),
(890,678,o),
(890,516,cs),
(890,354,o),
(776,218,o),
(598,218,cs)
);
}
);
width = 1232;
},
{
anchors = (
{
name = bottom;
pos = (604,0);
},
{
name = ogonek;
pos = (890,0);
},
{
name = top;
pos = (612,1040);
}
);
background = {
anchors = (
{
name = bottom;
pos = (596,0);
},
{
name = center;
pos = (588,530);
},
{
name = ogonek;
pos = (770,0);
},
{
name = top;
pos = (594,1040);
},
{
name = topright;
pos = (912,1040);
}
);
};
backgroundImage = {
imagePath = "../google fonts/Reference/IMG_5180.jpeg";
pos = (-26,1478);
scale = (0.4022,0.4022);
};
layerId = "6B540EA0-879E-4877-ADBF-1E90C7170424";
shapes = (
{
closed = 1;
nodes = (
(794,-26,o),
(880,104,o),
(930,280,c),
(890,280,l),
(890,0,l),
(1152,0,l),
(1152,1040,l),
(884,1040,l),
(884,752,l),
(930,752,l),
(880,930,o),
(794,1062,o),
(554,1062,cs),
(268,1062,o),
(40,816,o),
(40,516,cs),
(40,216,o),
(268,-26,o),
(554,-26,cs)
);
},
{
closed = 1;
nodes = (
(426,218,o),
(310,360,o),
(310,518,cs),
(310,680,o),
(426,818,o),
(598,818,cs),
(776,818,o),
(890,678,o),
(890,516,cs),
(890,354,o),
(776,218,o),
(598,218,cs)
);
}
);
width = 1232;
}
);
metricLeft = o;
unicode = 97;
},
{
glyphname = abreve;
kernLeft = o;
kernRight = u;
lastChange = "2022-04-29 18:10:09 +0000";
layers = (
{
background = {
shapes = (
{
closed = 1;
nodes = (
(864,1094,o),
(944,1238,o),
(944,1394,c),
(762,1394,l),
(762,1342,o),
(756,1276,o),
(696,1276,cs),
(652,1276,o),
(624,1306,o),
(588,1336,cs),
(548,1368,o),
(500,1402,o),
(410,1402,cs),
(268,1402,o),
(136,1280,o),
(136,1108,c),
(316,1108,l),
(316,1164,o),
(360,1222,o),
(410,1222,cs),
(454,1222,o),
(478,1190,o),
(518,1160,cs),
(558,1126,o),
(612,1094,o),
(694,1094,cs)
);
}
);
};
layerId = "1B5AC656-48C3-4864-953F-2CD31E7BA751";
shapes = (
{
ref = a;
},
{
pos = (612,0);
ref = brevecomb;
}
);
width = 1232;
},
{
background = {
shapes = (
{
closed = 1;
nodes = (
(864,1094,o),
(944,1238,o),
(944,1394,c),
(762,1394,l),
(762,1342,o),
(756,1276,o),
(696,1276,cs),
(652,1276,o),
(624,1306,o),
(588,1336,cs),
(548,1368,o),
(500,1402,o),
(410,1402,cs),
(268,1402,o),
(136,1280,o),
(136,1108,c),
(316,1108,l),
(316,1164,o),
(360,1222,o),
(410,1222,cs),
(454,1222,o),
(478,1190,o),
(518,1160,cs),
(558,1126,o),
(612,1094,o),
(694,1094,cs)
);
}
);
};
layerId = "6B540EA0-879E-4877-ADBF-1E90C7170424";
shapes = (
{
ref = a;
},
{
pos = (612,0);
ref = brevecomb;
}
);
width = 1232;
}
);
unicode = 259;
},
{
glyphname = ae;
kernLeft = o;
kernRight = e;
lastChange = "2022-04-29 18:10:09 +0000";
layers = (
{
anchors = (
{
name = top;
pos = (1014,1040);
}
);
background = {
shapes = (
{
closed = 1;
nodes = (
(1702,-24,o),
(1876,66,o),
(1960,196,c),
(1746,354,l),
(1702,274,o),
(1612,220,o),
(1486,220,cs),
(1326,220,o),
(1236,318,o),
(1218,458,c),
(1206,518,l),
(1196,698,o),
(1310,834,o),
(1482,834,cs),
(1664,834,o),
(1776,676,o),
(1760,518,c),
(1828,640,l),
(1108,640,l),
(1108,420,l),
(2016,420,l),
(2022,454,o),
(2024,488,o),
(2024,518,cs),
(2024,818,o),
(1808,1064,o),
(1506,1064,cs),
(1146,1064,o),
(1114,798,o),
(1058,518,c),
(1114,238,o),
(1146,-24,o),
(1506,-24,cs)
);
},
{
closed = 1;
nodes = (
(894,-26,o),
(926,236,o),
(982,516,c),
(926,796,o),
(894,1062,o),
(554,1062,cs),
(268,1062,o),
(40,816,o),
(40,516,cs),
(40,216,o),
(268,-26,o),
(554,-26,cs)
);
},
{
closed = 1;
nodes = (
(426,218,o),
(314,360,o),
(314,518,cs),
(314,680,o),
(426,818,o),
(598,818,cs),
(776,818,o),
(890,678,o),
(890,516,cs),
(890,354,o),
(776,218,o),
(598,218,cs)
);
},
{
closed = 1;
nodes = (
(1152,0,l),
(1152,1040,l),
(882,1040,l),
(882,742,l),
(902,516,l),
(890,266,l),
(890,0,l)
);
}
);
};
layerId = "1B5AC656-48C3-4864-953F-2CD31E7BA751";
shapes = (
{
closed = 1;
nodes = (
(766,-26,o),
(900,76,o),
(952,224,c),
(890,260,l),
(890,0,l),
(1152,0,l),
(1152,262,l),
(1090,224,l),
(1144,78,o),
(1282,-24,o),
(1506,-24,cs),
(1702,-24,o),
(1876,66,o),
(1960,196,c),
(1746,354,l),
(1702,274,o),
(1612,220,o),
(1486,220,cs),
(1316,220,o),
(1226,328,o),
(1214,484,c),
(1174,420,l),
(2016,420,l),
(2022,454,o),
(2024,488,o),
(2024,518,cs),
(2024,818,o),
(1808,1064,o),
(1506,1064,cs),
(1282,1064,o),
(1144,960,o),
(1090,814,c),
(1152,776,l),
(1152,1040,l),
(882,1040,l),
(882,790,l),
(944,828,l),
(892,966,o),
(758,1062,o),
(554,1062,cs),
(268,1062,o),
(40,816,o),
(40,516,cs),
(40,216,o),
(268,-26,o),
(554,-26,cs)
);
},
{
closed = 1;
nodes = (
(426,218,o),
(314,360,o),
(314,518,cs),
(314,680,o),
(426,818,o),
(598,818,cs),
(776,818,o),
(890,678,o),
(890,516,cs),
(890,354,o),
(776,218,o),
(598,218,cs)
);
},
{
closed = 1;
nodes = (
(1222,728,o),
(1330,834,o),
(1482,834,cs),
(1638,834,o),
(1744,716,o),
(1762,584,c),
(1790,640,l),
(1170,640,l),
(1208,578,l)
);
}
);
width = 2062;
},
{
anchors = (
{
name = top;
pos = (1014,1040);
}
);
background = {
shapes = (
{
closed = 1;
nodes = (
(1702,-24,o),
(1876,66,o),
(1960,196,c),
(1746,354,l),
(1702,274,o),
(1612,220,o),
(1486,220,cs),
(1326,220,o),
(1236,318,o),
(1218,458,c),
(1206,518,l),
(1196,698,o),
(1310,834,o),
(1482,834,cs),
(1664,834,o),
(1776,676,o),
(1760,518,c),
(1828,640,l),
(1108,640,l),
(1108,420,l),
(2016,420,l),
(2022,454,o),
(2024,488,o),
(2024,518,cs),
(2024,818,o),
(1808,1064,o),
(1506,1064,cs),
(1146,1064,o),
(1114,798,o),
(1058,518,c),
(1114,238,o),
(1146,-24,o),
(1506,-24,cs)
);
},
{
closed = 1;
nodes = (
(894,-26,o),
(926,236,o),
(982,516,c),
(926,796,o),
(894,1062,o),
(554,1062,cs),
(268,1062,o),
(40,816,o),
(40,516,cs),
(40,216,o),
(268,-26,o),
(554,-26,cs)
);
},
{
closed = 1;
nodes = (
(426,218,o),
(314,360,o),
(314,518,cs),
(314,680,o),
(426,818,o),
(598,818,cs),
(776,818,o),
(890,678,o),
(890,516,cs),
(890,354,o),
(776,218,o),
(598,218,cs)
);
},
{
closed = 1;
nodes = (
(1152,0,l),
(1152,1040,l),
(882,1040,l),
(882,742,l),
(902,516,l),
(890,266,l),
(890,0,l)
);
}
);
};
layerId = "6B540EA0-879E-4877-ADBF-1E90C7170424";
shapes = (
{
closed = 1;
nodes = (
(766,-26,o),
(900,76,o),
(952,224,c),
(890,260,l),
(890,0,l),
(1152,0,l),
(1152,262,l),
(1090,224,l),
(1144,78,o),
(1282,-24,o),
(1506,-24,cs),
(1702,-24,o),
(1876,66,o),
(1960,196,c),
(1746,354,l),
(1702,274,o),
(1612,220,o),
(1486,220,cs),
(1316,220,o),
(1226,328,o),
(1214,484,c),
(1174,420,l),
(2016,420,l),
(2022,454,o),
(2024,488,o),
(2024,518,cs),
(2024,818,o),
(1808,1064,o),
(1506,1064,cs),
(1282,1064,o),
(1144,960,o),
(1090,814,c),
(1152,776,l),
(1152,1040,l),
(882,1040,l),
(882,790,l),
(944,828,l),
(892,966,o),
(758,1062,o),
(554,1062,cs),
(268,1062,o),
(40,816,o),
(40,516,cs),
(40,216,o),
(268,-26,o),
(554,-26,cs)
);
},
{
closed = 1;
nodes = (
(426,218,o),
(314,360,o),
(314,518,cs),
(314,680,o),
(426,818,o),
(598,818,cs),
(776,818,o),
(890,678,o),
(890,516,cs),
(890,354,o),
(776,218,o),
(598,218,cs)
);
},
{
closed = 1;
nodes = (
(1222,728,o),
(1330,834,o),
(1482,834,cs),
(1638,834,o),
(1744,716,o),
(1762,584,c),
(1790,640,l),
(1170,640,l),
(1208,578,l)
);
}
);
width = 2062;
}
);
metricLeft = a;
metricRight = e;
unicode = 230;
},
{
glyphname = b;
kernLeft = l;
kernRight = o;
lastChange = "2022-04-29 18:10:09 +0000";
layers = (
{
anchors = (
{
name = bottom;
pos = (638,2);
},
{
name = ogonek;
pos = (836,0);
},
{
name = top;
pos = (212,1460);
}
);
layerId = "1B5AC656-48C3-4864-953F-2CD31E7BA751";
shapes = (
{
closed = 1;
nodes = (
(964,-26,o),
(1192,216,o),
(1192,516,cs),
(1192,816,o),
(964,1062,o),
(678,1062,cs),
(438,1062,o),
(352,930,o),
(302,752,c),
(350,752,l),
(350,1460,l),
(80,1460,l),
(80,0,l),
(342,0,l),
(342,280,l),
(302,280,l),
(352,104,o),
(438,-26,o),
(678,-26,cs)
);
},
{
closed = 1;
nodes = (
(456,218,o),
(342,354,o),
(342,516,cs),
(342,678,o),
(456,818,o),
(634,818,cs),
(806,818,o),
(922,680,o),
(922,518,cs),
(922,360,o),
(806,218,o),
(634,218,cs)
);
}
);
width = 1232;
},
{
anchors = (
{
name = bottom;
pos = (638,2);
},
{
name = ogonek;
pos = (836,0);
},
{
name = top;
pos = (212,1460);
}
);
layerId = "6B540EA0-879E-4877-ADBF-1E90C7170424";
shapes = (
{
closed = 1;
nodes = (
(964,-26,o),
(1192,216,o),
(1192,516,cs),
(1192,816,o),
(964,1062,o),
(678,1062,cs),
(438,1062,o),
(352,930,o),
(302,752,c),
(350,752,l),
(350,1460,l),
(80,1460,l),
(80,0,l),
(342,0,l),
(342,280,l),
(302,280,l),
(352,104,o),
(438,-26,o),
(678,-26,cs)
);
},
{
closed = 1;
nodes = (
(456,218,o),
(342,354,o),
(342,516,cs),
(342,678,o),
(456,818,o),
(634,818,cs),
(806,818,o),
(922,680,o),
(922,518,cs),
(922,360,o),
(806,218,o),
(634,218,cs)
);
}
);
width = 1232;
}
);
metricLeft = l;
metricRight = o;
unicode = 98;
},
{
glyphname = c;
kernLeft = o;
kernRight = c;
lastChange = "2022-04-29 18:10:09 +0000";
layers = (
{
anchors = (
{
name = bottom;
pos = (598,0);
},
{
name = ogonek;
pos = (776,0);
},
{
name = top;
pos = (598,1040);
}
);
background = {
shapes = (
{
closed = 1;
nodes = (
(916,-26,o),
(1148,218,o),
(1148,518,cs),
(1148,818,o),
(916,1064,o),
(594,1064,cs),
(272,1064,o),
(40,818,o),
(40,518,cs),
(40,218,o),
(272,-26,o),
(594,-26,cs)
);
},
{
closed = 1;
nodes = (
(422,220,o),
(310,356,o),
(310,518,cs),
(310,680,o),
(422,818,o),
(594,818,cs),
(766,818,o),
(878,680,o),
(878,518,cs),
(878,356,o),
(766,220,o),
(594,220,cs)
);
}
);
};
layerId = "1B5AC656-48C3-4864-953F-2CD31E7BA751";
shapes = (
{
closed = 1;
nodes = (
(780,-26,o),
(924,48,o),
(1022,174,c),
(826,344,l),
(772,272,o),
(704,220,o),
(600,220,cs),
(428,220,o),
(310,358,o),
(310,520,cs),
(310,682,o),
(422,820,o),
(594,820,cs),
(686,820,o),
(766,774,o),
(814,702,c),
(1022,872,l),
(934,994,o),
(780,1068,o),
(590,1066,cs),
(272,1064,o),
(40,822,o),
(40,520,cs),
(40,218,o),
(278,-26,o),
(576,-26,cs)
);
}
);
width = 1048;
},
{
anchors = (
{
name = bottom;
pos = (598,0);
},
{
name = ogonek;
pos = (776,0);
},
{
name = top;
pos = (598,1040);
}
);
background = {
shapes = (
{
closed = 1;
nodes = (
(916,-26,o),
(1148,218,o),
(1148,518,cs),
(1148,818,o),
(916,1064,o),
(594,1064,cs),
(272,1064,o),
(40,818,o),
(40,518,cs),
(40,218,o),
(272,-26,o),
(594,-26,cs)
);
},
{
closed = 1;
nodes = (
(422,220,o),
(310,356,o),
(310,518,cs),
(310,680,o),
(422,818,o),
(594,818,cs),
(766,818,o),
(878,680,o),
(878,518,cs),
(878,356,o),
(766,220,o),
(594,220,cs)
);
}
);
};
layerId = "6B540EA0-879E-4877-ADBF-1E90C7170424";
shapes = (
{
closed = 1;
nodes = (
(780,-26,o),
(924,48,o),
(1022,174,c),
(826,344,l),
(772,272,o),
(704,220,o),
(600,220,cs),
(428,220,o),
(310,358,o),
(310,520,cs),
(310,682,o),
(422,820,o),
(594,820,cs),
(686,820,o),
(766,774,o),
(814,702,c),
(1022,872,l),
(934,994,o),
(780,1068,o),
(590,1066,cs),
(272,1064,o),
(40,822,o),
(40,520,cs),
(40,218,o),
(278,-26,o),
(576,-26,cs)
);
}
);
width = 1048;
}
);
metricLeft = o;
unicode = 99;
},
{
glyphname = d;
kernLeft = o;
kernRight = l;
lastChange = "2022-04-29 18:10:09 +0000";
layers = (
{
anchors = (
{
name = bottom;
pos = (558,0);
},
{
name = center;
pos = (578,510);
},
{
name = top;
pos = (974,1460);
},
{
name = topright;
pos = (1246,1460);
}
);
layerId = "1B5AC656-48C3-4864-953F-2CD31E7BA751";
shapes = (
{
closed = 1;
nodes = (
(794,-26,o),
(880,104,o),
(930,280,c),
(890,280,l),
(890,0,l),
(1152,0,l),
(1152,1460,l),
(882,1460,l),
(882,752,l),
(930,752,l),
(880,930,o),
(794,1062,o),
(554,1062,cs),
(268,1062,o),
(40,816,o),
(40,516,cs),
(40,216,o),
(268,-26,o),
(554,-26,cs)
);
},
{
closed = 1;
nodes = (
(426,218,o),
(310,360,o),
(310,518,cs),
(310,680,o),
(426,818,o),
(598,818,cs),
(776,818,o),
(890,678,o),
(890,516,cs),
(890,354,o),
(776,218,o),
(598,218,cs)
);
}
);
width = 1232;
},
{
anchors = (
{
name = bottom;
pos = (558,0);
},
{
name = center;
pos = (578,510);
},
{
name = top;
pos = (974,1460);
},
{
name = topright;
pos = (1246,1460);
}
);
layerId = "6B540EA0-879E-4877-ADBF-1E90C7170424";
shapes = (
{
closed = 1;
nodes = (
(794,-26,o),
(880,104,o),
(930,280,c),
(890,280,l),
(890,0,l),
(1152,0,l),
(1152,1460,l),
(882,1460,l),
(882,752,l),
(930,752,l),
(880,930,o),
(794,1062,o),
(554,1062,cs),
(268,1062,o),
(40,816,o),
(40,516,cs),
(40,216,o),
(268,-26,o),
(554,-26,cs)
);
},
{
closed = 1;
nodes = (
(426,218,o),
(310,360,o),
(310,518,cs),
(310,680,o),
(426,818,o),
(598,818,cs),
(776,818,o),
(890,678,o),
(890,516,cs),
(890,354,o),
(776,218,o),
(598,218,cs)
);
}
);
width = 1232;
}
);
metricLeft = o;
metricRight = l;
unicode = 100;
},
{
glyphname = eth;
kernLeft = o;
kernRight = o;
lastChange = "2022-04-29 18:10:09 +0000";
layers = (
{
background = {
shapes = (
{
closed = 1;
nodes = (
(890,1974,o),
(1114,2188,o),
(1114,2484,cs),
(1114,2590,o),
(1100,2686,o),
(994,2846,cs),
(592,3460,l),
(336,3324,l),
(608,2912,l),
(630,2958,l),
(264,3016,o),
(24,2808,o),
(24,2484,cs),
(24,2188,o),
(250,1974,o),
(572,1974,cs)
);
},
{
closed = 1;
nodes = (
(418,2248,o),
(332,2354,o),
(332,2484,cs),
(332,2610,o),
(418,2734,o),
(570,2734,cs),
(718,2734,o),
(808,2610,o),
(808,2484,cs),
(808,2354,o),
(718,2248,o),
(572,2248,cs)
);
},
{
closed = 1;
nodes = (
(978,3876,l),
(920,4058,l),
(604,3974,l),
(500,3904,l),
(258,3862,l),
(318,3692,l)
);
},
{
closed = 1;
nodes = (
(1022,3168,l),
(962,3358,l),
(632,3268,l),
(522,3196,l),
(270,3152,l),
(332,2976,l)
);
},
{
closed = 1;
nodes = (
(864,-26,o),
(1082,204,o),
(1082,486,cs),
(1082,768,o),
(864,998,o),
(562,998,cs),
(258,998,o),
(40,768,o),
(40,486,cs),
(40,204,o),
(258,-26,o),
(562,-26,cs)
);
},
{
closed = 1;
nodes = (
(400,206,o),
(294,334,o),
(294,486,cs),
(294,638,o),
(400,768,o),
(562,768,cs),
(722,768,o),
(828,638,o),
(828,486,cs),
(828,334,o),
(722,206,o),
(562,206,cs)
);
}
);
};
layerId = "1B5AC656-48C3-4864-953F-2CD31E7BA751";
shapes = (
{
closed = 1;
nodes = (
(864,-26,o),
(1080,178,o),
(1080,526,cs),
(1080,752,o),
(962,940,o),
(832,1090,cs),
(488,1486,l),
(266,1314,l),
(560,1018,ls),
(638,938,o),
(712,898,o),
(756,744,c),
(790,726,l),
(750,836,o),
(682,958,o),
(488,958,cs),
(286,958,o),
(40,786,o),
(40,482,cs),
(40,202,o),
(256,-26,o),
(566,-26,cs)
);
},
{
closed = 1;
nodes = (
(412,228,o),
(314,346,o),
(314,482,cs),
(314,622,o),
(412,738,o),
(566,738,cs),
(720,738,o),
(818,622,o),
(818,482,cs),
(818,342,o),
(722,228,o),
(566,228,cs)
);
},
{
closed = 1;
nodes = (
(760,1362,l),
(646,1492,l),
(260,1156,l),
(376,1026,l)
);
}
);
width = 1120;
},
{
background = {
shapes = (
{
closed = 1;
nodes = (
(890,1974,o),
(1114,2188,o),
(1114,2484,cs),
(1114,2590,o),
(1100,2686,o),
(994,2846,cs),
(592,3460,l),
(336,3324,l),
(608,2912,l),
(630,2958,l),
(264,3016,o),
(24,2808,o),
(24,2484,cs),
(24,2188,o),
(250,1974,o),
(572,1974,cs)
);
},
{
closed = 1;
nodes = (
(418,2248,o),
(332,2354,o),
(332,2484,cs),
(332,2610,o),
(418,2734,o),
(570,2734,cs),
(718,2734,o),
(808,2610,o),
(808,2484,cs),
(808,2354,o),
(718,2248,o),
(572,2248,cs)
);
},
{
closed = 1;
nodes = (
(978,3876,l),
(920,4058,l),
(604,3974,l),
(500,3904,l),
(258,3862,l),
(318,3692,l)
);
},
{
closed = 1;
nodes = (
(1022,3168,l),
(962,3358,l),
(632,3268,l),
(522,3196,l),
(270,3152,l),
(332,2976,l)
);
},
{
closed = 1;
nodes = (
(864,-26,o),
(1082,204,o),
(1082,486,cs),
(1082,768,o),
(864,998,o),
(562,998,cs),
(258,998,o),
(40,768,o),
(40,486,cs),
(40,204,o),
(258,-26,o),
(562,-26,cs)
);
},
{
closed = 1;
nodes = (
(400,206,o),
(294,334,o),
(294,486,cs),
(294,638,o),
(400,768,o),
(562,768,cs),
(722,768,o),
(828,638,o),
(828,486,cs),
(828,334,o),
(722,206,o),
(562,206,cs)
);
}
);
};
layerId = "6B540EA0-879E-4877-ADBF-1E90C7170424";
shapes = (
{
closed = 1;
nodes = (
(864,-26,o),
(1080,178,o),
(1080,526,cs),
(1080,752,o),
(962,940,o),
(832,1090,cs),
(488,1486,l),
(266,1314,l),
(560,1018,ls),
(638,938,o),
(712,898,o),
(756,744,c),
(790,726,l),
(750,836,o),
(682,958,o),
(488,958,cs),
(286,958,o),
(40,786,o),
(40,482,cs),
(40,202,o),
(256,-26,o),
(566,-26,cs)
);
},
{
closed = 1;
nodes = (
(412,228,o),
(314,346,o),
(314,482,cs),
(314,622,o),
(412,738,o),
(566,738,cs),
(720,738,o),
(818,622,o),
(818,482,cs),
(818,342,o),
(722,228,o),
(566,228,cs)
);
},
{
closed = 1;
nodes = (
(760,1362,l),
(646,1492,l),
(260,1156,l),
(376,1026,l)
);
}
);
width = 1120;
}
);
metricLeft = o;
metricRight = o;
unicode = 240;
},
{
glyphname = dcroat;
kernLeft = o;
kernRight = l;
lastChange = "2022-04-29 18:10:09 +0000";
layers = (
{
anchors = (
{
name = _center;
pos = (578,510);
}
);
layerId = "1B5AC656-48C3-4864-953F-2CD31E7BA751";
shapes = (
{
closed = 1;
nodes = (
(1282,1142,l),
(1282,1342,l),
(600,1342,l),
(600,1142,l)
);
},
{
ref = d;
}
);
width = 1232;
},
{
anchors = (
{
name = _center;
pos = (578,510);
}
);
layerId = "6B540EA0-879E-4877-ADBF-1E90C7170424";
shapes = (
{
closed = 1;
nodes = (
(1282,1142,l),
(1282,1342,l),
(600,1342,l),
(600,1142,l)
);
},
{
ref = d;
}
);
width = 1232;
}
);
metricLeft = d;
unicode = 273;
},
{
glyphname = e;
kernLeft = o;
kernRight = e;
lastChange = "2022-04-29 18:10:09 +0000";
layers = (
{
anchors = (
{
name = bottom;
pos = (578,0);
},
{
name = ogonek;
pos = (680,52);
},
{
name = top;
pos = (572,1040);
}
);
background = {
shapes = (
{
closed = 1;
nodes = (
(794,-24,o),
(968,66,o),
(1052,196,c),
(838,354,l),
(794,274,o),
(704,220,o),
(578,220,cs),
(418,220,o),
(328,318,o),
(310,458,c),
(298,518,l),
(288,698,o),
(402,834,o),
(574,834,cs),
(756,834,o),
(868,676,o),
(852,518,c),
(920,640,l),
(200,640,l),
(200,420,l),
(1108,420,l),
(1114,454,o),
(1116,488,o),
(1116,518,cs),
(1116,818,o),
(900,1066,o),
(578,1066,cs),
(256,1066,o),
(30,818,o),
(30,518,cs),
(30,218,o),
(246,-24,o),
(578,-24,cs)
);
},
{
closed = 1;
nodes = (
(906,-26,o),
(1138,218,o),
(1138,518,cs),
(1138,818,o),
(906,1064,o),
(584,1064,cs),
(262,1064,o),
(30,818,o),
(30,518,cs),
(30,218,o),
(262,-26,o),
(584,-26,cs)
);
},
{
closed = 1;
nodes = (
(412,220,o),
(300,356,o),
(300,518,cs),
(300,680,o),
(412,818,o),
(584,818,cs),
(756,818,o),
(868,680,o),
(868,518,cs),
(868,356,o),
(756,220,o),
(584,220,cs)
);
}
);
};
layerId = "1B5AC656-48C3-4864-953F-2CD31E7BA751";
shapes = (
{
closed = 1;
nodes = (
(784,-26,o),
(958,66,o),
(1042,196,c),
(832,354,l),
(784,274,o),
(694,214,o),
(578,214,cs),
(428,214,o),
(332,318,o),
(314,458,c),
(312,518,ls),
(302,698,o),
(412,834,o),
(574,834,cs),
(746,834,o),
(858,676,o),
(842,518,c),
(910,624,l),
(210,624,l),
(210,422,l),
(1098,422,l),
(1104,456,o),
(1106,488,o),
(1106,518,cs),
(1106,818,o),
(890,1066,o),
(578,1066,cs),
(266,1066,o),
(40,818,o),
(40,518,cs),
(40,218,o),
(256,-26,o),
(578,-26,cs)
);
}
);
width = 1144;
},
{
anchors = (
{
name = bottom;
pos = (578,0);
},
{
name = ogonek;
pos = (680,52);
},
{
name = top;
pos = (572,1040);
}
);
background = {
shapes = (
{
closed = 1;
nodes = (
(794,-24,o),
(968,66,o),
(1052,196,c),
(838,354,l),
(794,274,o),
(704,220,o),
(578,220,cs),
(418,220,o),
(328,318,o),
(310,458,c),
(298,518,l),
(288,698,o),
(402,834,o),
(574,834,cs),
(756,834,o),
(868,676,o),
(852,518,c),
(920,640,l),
(200,640,l),
(200,420,l),
(1108,420,l),
(1114,454,o),
(1116,488,o),
(1116,518,cs),
(1116,818,o),
(900,1066,o),
(578,1066,cs),
(256,1066,o),
(30,818,o),
(30,518,cs),
(30,218,o),
(246,-24,o),
(578,-24,cs)
);
},
{
closed = 1;
nodes = (
(906,-26,o),
(1138,218,o),
(1138,518,cs),
(1138,818,o),
(906,1064,o),
(584,1064,cs),
(262,1064,o),
(30,818,o),
(30,518,cs),
(30,218,o),
(262,-26,o),
(584,-26,cs)
);
},
{
closed = 1;
nodes = (
(412,220,o),
(300,356,o),
(300,518,cs),
(300,680,o),
(412,818,o),
(584,818,cs),
(756,818,o),
(868,680,o),
(868,518,cs),
(868,356,o),
(756,220,o),
(584,220,cs)
);
}
);
};
layerId = "6B540EA0-879E-4877-ADBF-1E90C7170424";
shapes = (
{
closed = 1;
nodes = (
(784,-26,o),
(958,66,o),
(1042,196,c),
(832,354,l),
(784,274,o),
(694,214,o),
(578,214,cs),
(428,214,o),
(332,318,o),
(314,458,c),
(312,518,ls),
(302,698,o),
(412,834,o),
(574,834,cs),
(746,834,o),
(858,676,o),
(842,518,c),
(910,624,l),
(210,624,l),
(210,422,l),
(1098,422,l),
(1104,456,o),
(1106,488,o),
(1106,518,cs),
(1106,818,o),
(890,1066,o),
(578,1066,cs),
(266,1066,o),
(40,818,o),
(40,518,cs),
(40,218,o),
(256,-26,o),
(578,-26,cs)
);
}
);
width = 1144;
}
);
metricLeft = o;
unicode = 101;
},
{
glyphname = eogonek;
kernLeft = o;
kernRight = e;
lastChange = "2022-04-29 18:10:09 +0000";
layers = (
{
anchors = (
{
name = _ogonek;
pos = (762,0);
},
{
name = _ogonek_;
pos = (762,0);
},
{
name = _ogonek__;
pos = (764,0);
}
);
background = {
shapes = (
{
closed = 1;
nodes = (
(664,-464,o),
(892,-412,c),
(892,-242,l),
(788,-276,o),
(710,-220,o),
(710,-122,cs),
(710,-66,o),
(730,-18,o),
(808,16,c),
(770,40,l),
(674,28,l),
(596,-10,o),
(524,-78,o),
(524,-202,cs),
(524,-326,o)
);
}
);
};
layerId = "1B5AC656-48C3-4864-953F-2CD31E7BA751";
shapes = (
{
ref = e;
},
{
pos = (680,52);
ref = ogonekcomb;
scale = (1,1.1);
}
);
width = 1144;
},
{
anchors = (
{
name = _ogonek;
pos = (762,0);
},
{
name = _ogonek_;
pos = (762,0);
},
{
name = _ogonek__;
pos = (764,0);
}
);
background = {
shapes = (
{
closed = 1;
nodes = (
(664,-464,o),
(892,-412,c),
(892,-242,l),
(788,-276,o),
(710,-220,o),
(710,-122,cs),
(710,-66,o),
(730,-18,o),
(808,16,c),
(770,40,l),
(674,28,l),
(596,-10,o),
(524,-78,o),
(524,-202,cs),
(524,-326,o)
);
}
);
};
layerId = "6B540EA0-879E-4877-ADBF-1E90C7170424";
shapes = (
{
ref = e;
},
{
pos = (680,52);
ref = ogonekcomb;
scale = (1,1.1);
}
);
width = 1144;
}
);
unicode = 281;
},
{
glyphname = schwa;
kernLeft = o;
kernRight = o;
lastChange = "2022-04-29 18:10:09 +0000";
layers = (
{
layerId = "1B5AC656-48C3-4864-953F-2CD31E7BA751";
shapes = (
{
closed = 1;
nodes = (
(878,-34,o),
(1100,214,o),
(1100,514,cs),
(1100,814,o),
(926,1058,o),
(546,1058,cs),
(360,1058,o),
(186,970,o),
(102,840,c),
(312,682,l),
(360,762,o),
(450,818,o),
(546,818,cs),
(728,818,o),
(808,714,o),
(826,574,c),
(828,514,ls),
(838,334,o),
(732,198,o),
(570,198,cs),
(398,198,o),
(286,356,o),
(302,514,c),
(234,408,l),
(930,408,l),
(930,610,l),
(46,610,l),
(40,576,o),
(38,544,o),
(38,514,cs),
(38,214,o),
(254,-34,o),
(566,-34,cs)
);
}
);
width = 1140;
},
{
layerId = "6B540EA0-879E-4877-ADBF-1E90C7170424";
shapes = (
{
closed = 1;
nodes = (
(878,-34,o),
(1100,214,o),
(1100,514,cs),
(1100,814,o),
(926,1058,o),
(546,1058,cs),
(360,1058,o),
(186,970,o),
(102,840,c),
(312,682,l),
(360,762,o),
(450,818,o),
(546,818,cs),
(728,818,o),
(808,714,o),
(826,574,c),
(828,514,ls),
(838,334,o),
(732,198,o),
(570,198,cs),
(398,198,o),
(286,356,o),
(302,514,c),
(234,408,l),
(930,408,l),
(930,610,l),
(46,610,l),
(40,576,o),
(38,544,o),
(38,514,cs),
(38,214,o),
(254,-34,o),
(566,-34,cs)
);
}
);
width = 1140;
}
);
metricLeft = "=|e";
metricRight = "=|e";
unicode = 601;
},
{
glyphname = f;
kernLeft = f;
kernRight = f;
lastChange = "2022-04-29 18:10:09 +0000";
layers = (
{
anchors = (
{
name = bottom;
pos = (290,0);
},
{
name = ogonek;
pos = (426,0);
},
{
name = top;
pos = (416,1456);
}
);
background = {
shapes = (
{
closed = 1;
nodes = (
(426,0,l),
(426,1134,ls),
(426,1200,o),
(458,1230,o),
(510,1230,cs),
(622,1230,l),
(622,1460,l),
(474,1460,ls),
(268,1460,o),
(156,1364,o),
(156,1138,cs),
(156,0,l)
);
}
);
};
layerId = "1B5AC656-48C3-4864-953F-2CD31E7BA751";
shapes = (
{
closed = 1;
nodes = (
(426,0,l),
(426,1106,ls),
(426,1188,o),
(464,1230,o),
(544,1230,cs),
(614,1230,l),
(614,1460,l),
(502,1460,ls),
(292,1460,o),
(156,1320,o),
(156,1110,cs),
(156,0,l)
);
},
{
closed = 1;
nodes = (
(638,810,l),
(638,1040,l),
(10,1040,l),
(10,810,l)
);
}
);
width = 648;
},
{
anchors = (
{
name = bottom;
pos = (290,0);
},
{
name = ogonek;
pos = (426,0);
},
{
name = top;
pos = (416,1456);
}
);
background = {
shapes = (
{
closed = 1;
nodes = (
(426,0,l),
(426,1134,ls),
(426,1200,o),
(458,1230,o),
(510,1230,cs),
(622,1230,l),
(622,1460,l),
(474,1460,ls),
(268,1460,o),
(156,1364,o),
(156,1138,cs),
(156,0,l)
);
}
);
};
layerId = "6B540EA0-879E-4877-ADBF-1E90C7170424";
shapes = (
{
closed = 1;
nodes = (
(426,0,l),
(426,1106,ls),
(426,1188,o),
(464,1230,o),
(544,1230,cs),
(614,1230,l),
(614,1460,l),
(502,1460,ls),
(292,1460,o),
(156,1320,o),
(156,1110,cs),
(156,0,l)
);
},
{
closed = 1;
nodes = (
(638,810,l),
(638,1040,l),
(10,1040,l),
(10,810,l)
);
}
);
width = 648;
}
);
unicode = 102;
},
{
glyphname = g;
kernLeft = o;
kernRight = g;
lastChange = "2022-04-29 18:10:09 +0000";
layers = (
{
anchors = (
{
name = bottom;
pos = (586,-410);
},
{
name = ogonek;
pos = (778,-400);
},
{
name = top;
pos = (576,1040);
}
);
layerId = "1B5AC656-48C3-4864-953F-2CD31E7BA751";
shapes = (
{
closed = 1;
nodes = (
(904,-426,o),
(1128,-228,o),
(1128,92,cs),
(1128,1040,l),
(862,1040,l),
(862,782,l),
(908,782,l),
(860,946,o),
(776,1066,o),
(544,1066,cs),
(258,1066,o),
(40,830,o),
(40,530,cs),
(40,230,o),
(258,-6,o),
(544,-6,cs),
(776,-6,o),
(860,114,o),
(908,278,c),
(858,278,l),
(858,108,ls),
(858,-58,o),
(732,-176,o),
(588,-176,cs),
(458,-176,o),
(354,-144,o),
(256,-32,c),
(88,-230,l),
(212,-376,o),
(376,-426,o),
(586,-426,cs)
);
},
{
closed = 1;
nodes = (
(412,240,o),
(310,372,o),
(310,530,cs),
(310,692,o),
(412,820,o),
(588,820,cs),
(766,820,o),
(870,692,o),
(870,530,cs),
(870,368,o),
(766,240,o),
(588,240,cs)
);
}
);
width = 1208;
},
{
anchors = (
{
name = bottom;
pos = (586,-410);
},
{
name = ogonek;
pos = (778,-400);
},
{
name = top;
pos = (576,1040);
}
);
layerId = "6B540EA0-879E-4877-ADBF-1E90C7170424";
shapes = (
{
closed = 1;
nodes = (
(904,-426,o),
(1128,-228,o),
(1128,92,cs),
(1128,1040,l),
(862,1040,l),
(862,782,l),
(908,782,l),
(860,946,o),
(776,1066,o),
(544,1066,cs),
(258,1066,o),
(40,830,o),
(40,530,cs),
(40,230,o),
(258,-6,o),
(544,-6,cs),
(776,-6,o),
(860,114,o),
(908,278,c),
(858,278,l),
(858,108,ls),
(858,-58,o),
(732,-176,o),
(588,-176,cs),
(458,-176,o),
(354,-144,o),
(256,-32,c),
(88,-230,l),
(212,-376,o),
(376,-426,o),
(586,-426,cs)
);
},
{
closed = 1;
nodes = (
(412,240,o),
(310,372,o),
(310,530,cs),
(310,692,o),
(412,820,o),
(588,820,cs),
(766,820,o),
(870,692,o),
(870,530,cs),
(870,368,o),
(766,240,o),
(588,240,cs)
);
}
);
width = 1208;
}
);
unicode = 103;
},
{
glyphname = h;
kernLeft = l;
kernRight = n;
lastChange = "2022-04-29 18:10:09 +0000";
layers = (
{
anchors = (
{
name = bottom;
pos = (580,0);
},
{
name = ogonek;
pos = (1060,0);
},
{
name = top;
pos = (212,1460);
}
);
layerId = "1B5AC656-48C3-4864-953F-2CD31E7BA751";
shapes = (
{
closed = 1;
nodes = (
(350,0,l),
(350,570,ls),
(350,750,o),
(452,828,o),
(566,828,cs),
(700,828,o),
(790,750,o),
(790,570,cs),
(790,0,l),
(1060,0,l),
(1060,636,ls),
(1060,898,o),
(888,1064,o),
(664,1064,cs),
(452,1064,o),
(340,960,o),
(308,756,c),
(350,802,l),
(350,1460,l),
(80,1460,l),
(80,0,l)
);
}
);
width = 1130;
},
{
anchors = (
{
name = bottom;
pos = (580,0);
},
{
name = ogonek;
pos = (1060,0);
},
{
name = top;
pos = (212,1460);
}
);
layerId = "6B540EA0-879E-4877-ADBF-1E90C7170424";
shapes = (
{
closed = 1;
nodes = (
(350,0,l),
(350,570,ls),
(350,750,o),
(452,828,o),
(566,828,cs),
(700,828,o),
(790,750,o),
(790,570,cs),
(790,0,l),
(1060,0,l),
(1060,636,ls),
(1060,898,o),
(888,1064,o),
(664,1064,cs),
(452,1064,o),
(340,960,o),
(308,756,c),
(350,802,l),
(350,1460,l),
(80,1460,l),
(80,0,l)
);
}
);
width = 1130;
}
);
metricLeft = l;
metricRight = n;
unicode = 104;
},
{
glyphname = idotless;
kernLeft = n;
kernRight = u;
lastChange = "2022-04-29 18:10:09 +0000";
layers = (
{
anchors = (
{
name = bottom;
pos = (212,0);
},
{
name = ogonek;
pos = (170,0);
},
{
name = top;
pos = (212,1040);
}
);
layerId = "1B5AC656-48C3-4864-953F-2CD31E7BA751";
shapes = (
{
closed = 1;
nodes = (
(350,0,l),
(350,1040,l),
(80,1040,l),
(80,0,l)
);
}
);
width = 430;
},
{
anchors = (
{
name = bottom;
pos = (212,0);
},
{
name = ogonek;
pos = (170,0);
},
{
name = top;
pos = (212,1040);
}
);
layerId = "6B540EA0-879E-4877-ADBF-1E90C7170424";
shapes = (
{
closed = 1;
nodes = (
(350,0,l),
(350,1040,l),
(80,1040,l),
(80,0,l)
);
}
);
width = 430;
}
);
unicode = 305;
},
{
glyphname = itilde;
kernLeft = itilde;
kernRight = itilde;
lastChange = "2022-04-29 18:10:09 +0000";
layers = (
{
anchors = (
{
name = _top;
pos = (212,1040);
},
{
name = top;
pos = (212,1412);
}
);
background = {
shapes = (
{
closed = 1;
nodes = (
(536,1114,o),
(616,1258,o),
(616,1414,c),
(442,1414,l),
(442,1362,o),
(436,1288,o),
(368,1288,cs),
(320,1288,o),
(292,1326,o),
(256,1356,cs),
(216,1388,o),
(168,1422,o),
(82,1422,cs),
(-60,1422,o),
(-192,1300,o),
(-192,1128,c),
(-20,1128,l),
(-20,1184,o),
(24,1248,o),
(82,1248,cs),
(134,1248,o),
(158,1210,o),
(198,1180,cs),
(238,1146,o),
(292,1114,o),
(366,1114,cs)
);
}
);
};
layerId = "1B5AC656-48C3-4864-953F-2CD31E7BA751";
shapes = (
{
closed = 1;
nodes = (
(496,1114,o),
(576,1258,o),
(576,1400,c),
(402,1400,l),
(402,1338,o),
(396,1288,o),
(342,1288,cs),
(266,1288,o),
(274,1422,o),
(82,1422,cs),
(-40,1422,o),
(-152,1300,o),
(-152,1136,c),
(20,1136,l),
(20,1204,o),
(44,1248,o),
(98,1248,cs),
(168,1248,o),
(182,1114,o),
(358,1114,cs)
);
},
{
ref = idotless;
}
);
width = 430;
},
{
anchors = (
{
name = _top;
pos = (212,1040);
},
{
name = top;
pos = (212,1412);
}
);
background = {
shapes = (
{
closed = 1;
nodes = (
(536,1114,o),
(616,1258,o),
(616,1414,c),
(442,1414,l),
(442,1362,o),
(436,1288,o),
(368,1288,cs),
(320,1288,o),
(292,1326,o),
(256,1356,cs),
(216,1388,o),
(168,1422,o),
(82,1422,cs),
(-60,1422,o),
(-192,1300,o),
(-192,1128,c),
(-20,1128,l),
(-20,1184,o),
(24,1248,o),
(82,1248,cs),
(134,1248,o),
(158,1210,o),
(198,1180,cs),
(238,1146,o),
(292,1114,o),
(366,1114,cs)
);
}
);
};
layerId = "6B540EA0-879E-4877-ADBF-1E90C7170424";
shapes = (
{
closed = 1;
nodes = (
(496,1114,o),
(576,1258,o),
(576,1400,c),
(402,1400,l),
(402,1338,o),
(396,1288,o),
(342,1288,cs),
(266,1288,o),
(274,1422,o),
(82,1422,cs),
(-40,1422,o),
(-152,1300,o),
(-152,1136,c),
(20,1136,l),
(20,1204,o),
(44,1248,o),
(98,1248,cs),
(168,1248,o),
(182,1114,o),
(358,1114,cs)
);
},
{
ref = idotless;
}
);
width = 430;
}
);
unicode = 297;
},
{
glyphname = jdotless;
kernLeft = n;
kernRight = u;
lastChange = "2022-04-29 18:10:09 +0000";
layers = (
{
anchors = (
{
name = bottom;
pos = (32,-400);
},
{
name = ogonek;
pos = (60,-400);
},
{
name = top;
pos = (212,1040);
}
);
layerId = "1B5AC656-48C3-4864-953F-2CD31E7BA751";
shapes = (
{
closed = 1;
nodes = (
(32,-400,ls),
(238,-400,o),
(350,-304,o),
(350,-78,cs),
(350,1040,l),
(80,1040,l),
(80,-64,ls),
(80,-130,o),
(48,-160,o),
(-4,-160,cs),
(-56,-160,l),
(-56,-400,l)
);
}
);
width = 430;
},
{
anchors = (
{
name = bottom;
pos = (32,-400);
},
{
name = ogonek;
pos = (60,-400);
},
{
name = top;
pos = (212,1040);
}
);
layerId = "6B540EA0-879E-4877-ADBF-1E90C7170424";
shapes = (
{
closed = 1;
nodes = (
(32,-400,ls),
(238,-400,o),
(350,-304,o),
(350,-78,cs),
(350,1040,l),
(80,1040,l),
(80,-64,ls),
(80,-130,o),
(48,-160,o),
(-4,-160,cs),
(-56,-160,l),
(-56,-400,l)
);
}
);
width = 430;
}
);
unicode = 567;
},
{
glyphname = k;
kernLeft = l;
kernRight = k;
lastChange = "2022-04-29 18:10:09 +0000";
layers = (
{
anchors = (
{
name = bottom;
pos = (546,0);
},
{
name = top;
pos = (212,1460);
}
);
layerId = "1B5AC656-48C3-4864-953F-2CD31E7BA751";
shapes = (
{
closed = 1;
nodes = (
(1126,0,l),
(512,694,l),
(550,472,l),
(1124,1040,l),
(740,1040,l),
(154,410,l),
(186,688,l),
(768,0,l)
);
},
{
closed = 1;
nodes = (
(350,0,l),
(350,1460,l),
(80,1460,l),
(80,0,l)
);
}
);
width = 1116;
},
{
anchors = (
{
name = bottom;
pos = (546,0);
},
{
name = top;
pos = (212,1460);
}
);
layerId = "6B540EA0-879E-4877-ADBF-1E90C7170424";
shapes = (
{
closed = 1;
nodes = (
(1126,0,l),
(512,694,l),
(550,472,l),
(1124,1040,l),
(740,1040,l),
(154,410,l),
(186,688,l),
(768,0,l)
);
},
{
closed = 1;
nodes = (
(350,0,l),
(350,1460,l),
(80,1460,l),
(80,0,l)
);
}
);
width = 1116;
}
);
unicode = 107;
},
{
glyphname = kgreenlandic;
kernLeft = n;
kernRight = k;
lastChange = "2022-04-29 18:10:09 +0000";
layers = (
{
anchors = (
{
name = bottom;
pos = (546,0);
},
{
name = top;
pos = (536,1040);
}
);
layerId = "1B5AC656-48C3-4864-953F-2CD31E7BA751";
shapes = (
{
closed = 1;
nodes = (
(1126,0,l),
(512,688,l),
(550,466,l),
(1124,1040,l),
(740,1040,l),
(154,404,l),
(186,682,l),
(768,0,l)
);
},
{
closed = 1;
nodes = (
(350,0,l),
(350,1040,l),
(80,1040,l),
(80,0,l)
);
}
);
width = 1116;
},
{
anchors = (
{
name = bottom;
pos = (546,0);
},
{
name = top;
pos = (536,1040);
}
);
layerId = "6B540EA0-879E-4877-ADBF-1E90C7170424";
shapes = (
{
closed = 1;
nodes = (
(1126,0,l),
(512,688,l),
(550,466,l),
(1124,1040,l),
(740,1040,l),
(154,404,l),
(186,682,l),
(768,0,l)
);
},
{
closed = 1;
nodes = (
(350,0,l),
(350,1040,l),
(80,1040,l),
(80,0,l)
);
}
);
width = 1116;
}
);
metricLeft = n;
metricRight = k;
unicode = 312;
},
{
glyphname = l;
kernLeft = l;
kernRight = l;
lastChange = "2022-04-29 18:10:09 +0000";
layers = (
{
anchors = (
{
name = bottom;
pos = (220,0);
},
{
name = center;
pos = (204,786);
},
{
name = ogonek;
pos = (350,0);
},
{
name = top;
pos = (206,1460);
},
{
name = topright;
pos = (444,1460);
}
);
layerId = "1B5AC656-48C3-4864-953F-2CD31E7BA751";
shapes = (
{
closed = 1;
nodes = (
(350,0,l),
(350,1460,l),
(80,1460,l),
(80,0,l)
);
}
);
width = 430;
},
{
anchors = (
{
name = bottom;
pos = (220,0);
},
{
name = center;
pos = (204,786);
},
{
name = ogonek;
pos = (350,0);
},
{
name = top;
pos = (206,1460);
},
{
name = topright;
pos = (444,1460);
}
);
layerId = "6B540EA0-879E-4877-ADBF-1E90C7170424";
shapes = (
{
closed = 1;
nodes = (
(350,0,l),
(350,1460,l),
(80,1460,l),
(80,0,l)
);
}
);
width = 430;
}
);
unicode = 108;
},
{
glyphname = lslash;
kernLeft = lslash;
kernRight = lslash;
lastChange = "2022-04-29 18:10:09 +0000";
layers = (
{
background = {
shapes = (
{
closed = 1;
nodes = (
(536,830,l),
(436,972,l),
(-82,610,l),
(18,468,l)
);
},
{
closed = 0;
nodes = (
(216,896,l),
(216,558,l)
);
},
{
closed = 0;
nodes = (
(236,896,l),
(236,558,l)
);
},
{
closed = 1;
nodes = (
(548,810,l),
(548,1040,l),
(-88,1040,l),
(-88,810,l)
);
}
);
};
layerId = "1B5AC656-48C3-4864-953F-2CD31E7BA751";
shapes = (
{
closed = 1;
nodes = (
(216,566,l),
(236,566,l),
(494,746,l),
(494,998,l),
(236,794,l),
(216,818,l),
(-36,642,l),
(-36,390,l)
);
},
{
pos = (12,0);
ref = l;
}
);
width = 454;
},
{
background = {
shapes = (
{
closed = 1;
nodes = (
(536,830,l),
(436,972,l),
(-82,610,l),
(18,468,l)
);
},
{
closed = 0;
nodes = (
(216,896,l),
(216,558,l)
);
},
{
closed = 0;
nodes = (
(236,896,l),
(236,558,l)
);
},
{
closed = 1;
nodes = (
(548,810,l),
(548,1040,l),
(-88,1040,l),
(-88,810,l)
);
}
);
};
layerId = "6B540EA0-879E-4877-ADBF-1E90C7170424";
shapes = (
{
closed = 1;
nodes = (
(216,566,l),
(236,566,l),
(494,746,l),
(494,998,l),
(236,794,l),
(216,818,l),
(-36,642,l),
(-36,390,l)
);
},
{
pos = (12,0);
ref = l;
}
);
width = 454;
}
);
unicode = 322;
},
{
glyphname = m;
kernLeft = n;
kernRight = n;
lastChange = "2022-04-29 18:10:09 +0000";
layers = (
{
anchors = (
{
name = bottom;
pos = (922,0);
},
{
name = ogonek;
pos = (1750,0);
},
{
name = top;
pos = (946,1040);
}
);
layerId = "1B5AC656-48C3-4864-953F-2CD31E7BA751";
shapes = (
{
closed = 1;
nodes = (
(350,0,l),
(350,570,ls),
(350,750,o),
(452,828,o),
(566,828,cs),
(700,828,o),
(790,750,o),
(790,570,cs),
(790,0,l),
(1060,0,l),
(1060,570,ls),
(1060,770,o),
(1146,828,o),
(1272,828,cs),
(1394,828,o),
(1480,750,o),
(1480,570,cs),
(1480,0,l),
(1750,0,l),
(1750,636,ls),
(1750,898,o),
(1578,1064,o),
(1354,1064,cs),
(1142,1064,o),
(1042,970,o),
(972,802,c),
(1032,802,l),
(972,970,o),
(834,1064,o),
(664,1064,cs),
(452,1064,o),
(340,960,o),
(308,756,c),
(346,802,l),
(346,1040,l),
(80,1040,l),
(80,0,l)
);
}
);
width = 1820;
},
{
anchors = (
{
name = bottom;
pos = (922,0);
},
{
name = ogonek;
pos = (1750,0);
},
{
name = top;
pos = (946,1040);
}
);
layerId = "6B540EA0-879E-4877-ADBF-1E90C7170424";
shapes = (
{
closed = 1;
nodes = (
(350,0,l),
(350,570,ls),
(350,750,o),
(452,828,o),
(566,828,cs),
(700,828,o),
(790,750,o),
(790,570,cs),
(790,0,l),
(1060,0,l),
(1060,570,ls),
(1060,770,o),
(1146,828,o),
(1272,828,cs),
(1394,828,o),
(1480,750,o),
(1480,570,cs),
(1480,0,l),
(1750,0,l),
(1750,636,ls),
(1750,898,o),
(1578,1064,o),
(1354,1064,cs),
(1142,1064,o),
(1042,970,o),
(972,802,c),
(1032,802,l),
(972,970,o),
(834,1064,o),
(664,1064,cs),
(452,1064,o),
(340,960,o),
(308,756,c),
(346,802,l),
(346,1040,l),
(80,1040,l),
(80,0,l)
);
}
);
width = 1820;
}
);
metricLeft = n;
metricRight = n;
unicode = 109;
},
{
glyphname = n;
kernLeft = n;
kernRight = n;
lastChange = "2022-04-29 18:10:09 +0000";
layers = (
{
anchors = (
{
name = bottom;
pos = (576,0);
},
{
name = ogonek;
pos = (1060,0);
},
{
name = top;
pos = (592,1050);
}
);
layerId = "1B5AC656-48C3-4864-953F-2CD31E7BA751";
shapes = (
{
closed = 1;
nodes = (
(350,0,l),
(350,570,ls),
(350,750,o),
(452,828,o),
(566,828,cs),
(700,828,o),
(790,750,o),
(790,570,cs),
(790,0,l),
(1060,0,l),
(1060,636,ls),
(1060,898,o),
(888,1064,o),
(664,1064,cs),
(452,1064,o),
(340,960,o),
(308,756,c),
(346,802,l),
(346,1040,l),
(80,1040,l),
(80,0,l)
);
}
);
width = 1130;
},
{
anchors = (
{
name = bottom;
pos = (576,0);
},
{
name = ogonek;
pos = (1060,0);
},
{
name = top;
pos = (592,1050);
}
);
layerId = "6B540EA0-879E-4877-ADBF-1E90C7170424";
shapes = (
{
closed = 1;
nodes = (
(350,0,l),
(350,570,ls),
(350,750,o),
(452,828,o),
(566,828,cs),
(700,828,o),
(790,750,o),
(790,570,cs),
(790,0,l),
(1060,0,l),
(1060,636,ls),
(1060,898,o),
(888,1064,o),
(664,1064,cs),
(452,1064,o),
(340,960,o),
(308,756,c),
(346,802,l),
(346,1040,l),
(80,1040,l),
(80,0,l)
);
}
);
width = 1130;
}
);
unicode = 110;
},
{
glyphname = eng;
kernLeft = n;
kernRight = eng;
lastChange = "2022-04-29 18:10:09 +0000";
layers = (
{
layerId = "1B5AC656-48C3-4864-953F-2CD31E7BA751";
shapes = (
{
closed = 1;
nodes = (
(742,-400,ls),
(948,-400,o),
(1060,-304,o),
(1060,-78,cs),
(1060,248,l),
(790,240,l),
(790,-64,ls),
(790,-130,o),
(758,-160,o),
(706,-160,cs),
(654,-160,l),
(654,-400,l)
);
},
{
ref = n;
}
);
width = 1130;
},
{
layerId = "6B540EA0-879E-4877-ADBF-1E90C7170424";
shapes = (
{
closed = 1;
nodes = (
(742,-400,ls),
(948,-400,o),
(1060,-304,o),
(1060,-78,cs),
(1060,248,l),
(790,240,l),
(790,-64,ls),
(790,-130,o),
(758,-160,o),
(706,-160,cs),
(654,-160,l),
(654,-400,l)
);
},
{
ref = n;
}
);
width = 1130;
}
);
unicode = 331;
},
{
glyphname = o;
kernLeft = o;
kernRight = o;
lastChange = "2022-04-29 18:10:09 +0000";
layers = (
{
anchors = (
{
name = bottom;
pos = (596,0);
},
{
name = center;
pos = (588,530);
},
{
name = ogonek;
pos = (730,-10);
},
{
name = top;
pos = (594,1040);
},
{
name = topright;
pos = (924,1040);
}
);
background = {
shapes = (
{
closed = 1;
nodes = (
(16,1400,l),
(312,1400,l),
(312,2440,l),
(16,2440,l)
);
},
{
closed = 1;
nodes = (
(312,2172,o),
(422,2254,o),
(536,2254,cs),
(670,2254,o),
(732,2178,o),
(732,1998,cs),
(732,1400,l),
(1028,1400,l),
(1028,2054,ls),
(1028,2352,o),
(860,2480,o),
(636,2480,cs),
(416,2480,o),
(294,2360,o),
(262,2156,c),
(312,1998,l)
);
},
{
closed = 1;
nodes = (
(858,-24,o),
(1150,148,o),
(1150,520,cs),
(1150,892,o),
(858,1064,o),
(574,1064,cs),
(290,1064,o),
(-2,892,o),
(-2,520,cs),
(-2,148,o),
(290,-24,o),
(574,-24,cs)
);
},
{
closed = 1;
nodes = (
(440,196,o),
(282,306,o),
(282,520,cs),
(282,734,o),
(438,844,o),
(574,844,cs),
(708,844,o),
(866,734,o),
(866,520,cs),
(866,306,o),
(710,196,o),
(574,196,cs)
);
}
);
};
layerId = "1B5AC656-48C3-4864-953F-2CD31E7BA751";
shapes = (
{
closed = 1;
nodes = (
(916,-26,o),
(1148,218,o),
(1148,518,cs),
(1148,818,o),
(916,1064,o),
(594,1064,cs),
(272,1064,o),
(40,818,o),
(40,518,cs),
(40,218,o),
(272,-26,o),
(594,-26,cs)
);
},
{
closed = 1;
nodes = (
(422,220,o),
(310,356,o),
(310,518,cs),
(310,680,o),
(422,818,o),
(594,818,cs),
(766,818,o),
(878,680,o),
(878,518,cs),
(878,356,o),
(766,220,o),
(594,220,cs)
);
}
);
width = 1188;
},
{
anchors = (
{
name = bottom;
pos = (596,0);
},
{
name = center;
pos = (588,530);
},
{
name = ogonek;
pos = (730,-10);
},
{
name = top;
pos = (594,1040);
},
{
name = topright;
pos = (924,1040);
}
);
background = {
shapes = (
{
closed = 1;
nodes = (
(16,1400,l),
(312,1400,l),
(312,2440,l),
(16,2440,l)
);
},
{
closed = 1;
nodes = (
(312,2172,o),
(422,2254,o),
(536,2254,cs),
(670,2254,o),
(732,2178,o),
(732,1998,cs),
(732,1400,l),
(1028,1400,l),
(1028,2054,ls),
(1028,2352,o),
(860,2480,o),
(636,2480,cs),
(416,2480,o),
(294,2360,o),
(262,2156,c),
(312,1998,l)
);
},
{
closed = 1;
nodes = (
(858,-24,o),
(1150,148,o),
(1150,520,cs),
(1150,892,o),
(858,1064,o),
(574,1064,cs),
(290,1064,o),
(-2,892,o),
(-2,520,cs),
(-2,148,o),
(290,-24,o),
(574,-24,cs)
);
},
{
closed = 1;
nodes = (
(440,196,o),
(282,306,o),
(282,520,cs),
(282,734,o),
(438,844,o),
(574,844,cs),
(708,844,o),
(866,734,o),
(866,520,cs),
(866,306,o),
(710,196,o),
(574,196,cs)
);
}
);
};
layerId = "6B540EA0-879E-4877-ADBF-1E90C7170424";
shapes = (
{
closed = 1;
nodes = (
(916,-26,o),
(1148,218,o),
(1148,518,cs),
(1148,818,o),
(916,1064,o),
(594,1064,cs),
(272,1064,o),
(40,818,o),
(40,518,cs),
(40,218,o),
(272,-26,o),
(594,-26,cs)
);
},
{
closed = 1;
nodes = (
(422,220,o),
(310,356,o),
(310,518,cs),
(310,680,o),
(422,818,o),
(594,818,cs),
(766,818,o),
(878,680,o),
(878,518,cs),
(878,356,o),
(766,220,o),
(594,220,cs)
);
}
);
width = 1188;
}
);
unicode = 111;
},
{
glyphname = oe;
kernLeft = o;
kernRight = e;
lastChange = "2022-04-29 18:10:09 +0000";
layers = (
{
anchors = (
{
name = bottom;
pos = (1008,0);
},
{
name = top;
pos = (1006,1040);
}
);
background = {
shapes = (
{
alignment = -1;
ref = o;
},
{
alignment = -1;
pos = (416,0);
ref = e;
}
);
};
layerId = "1B5AC656-48C3-4864-953F-2CD31E7BA751";
shapes = (
{
closed = 1;
nodes = (
(896,-26,o),
(1080,218,o),
(1080,518,cs),
(1080,818,o),
(896,1064,o),
(594,1064,cs),
(272,1064,o),
(40,818,o),
(40,518,cs),
(40,218,o),
(272,-26,o),
(594,-26,cs)
);
},
{
closed = 1;
nodes = (
(422,220,o),
(310,356,o),
(310,518,cs),
(310,680,o),
(422,818,o),
(594,818,cs),
(766,818,o),
(878,680,o),
(878,518,cs),
(878,356,o),
(766,220,o),
(594,220,cs)
);
},
{
closed = 1;
nodes = (
(1602,-26,o),
(1776,66,o),
(1860,196,c),
(1650,354,l),
(1602,274,o),
(1512,214,o),
(1396,214,cs),
(1246,214,o),
(1150,318,o),
(1132,458,c),
(1130,518,ls),
(1124,698,o),
(1230,834,o),
(1392,834,cs),
(1564,834,o),
(1676,676,o),
(1660,518,c),
(1728,624,l),
(1028,624,l),
(1028,422,l),
(1916,422,l),
(1922,456,o),
(1924,488,o),
(1924,518,cs),
(1924,818,o),
(1708,1066,o),
(1396,1066,cs),
(1104,1066,o),
(926,818,o),
(926,518,cs),
(926,218,o),
(1094,-26,o),
(1396,-26,cs)
);
}
);
width = 1962;
},
{
anchors = (
{
name = bottom;
pos = (1008,0);
},
{
name = top;
pos = (1006,1040);
}
);
background = {
shapes = (
{
alignment = -1;
ref = o;
},
{
alignment = -1;
pos = (416,0);
ref = e;
}
);
};
layerId = "6B540EA0-879E-4877-ADBF-1E90C7170424";
shapes = (
{
closed = 1;
nodes = (
(896,-26,o),
(1080,218,o),
(1080,518,cs),
(1080,818,o),
(896,1064,o),
(594,1064,cs),
(272,1064,o),
(40,818,o),
(40,518,cs),
(40,218,o),
(272,-26,o),
(594,-26,cs)
);
},
{
closed = 1;
nodes = (
(422,220,o),
(310,356,o),
(310,518,cs),
(310,680,o),
(422,818,o),
(594,818,cs),
(766,818,o),
(878,680,o),
(878,518,cs),
(878,356,o),
(766,220,o),
(594,220,cs)
);
},
{
closed = 1;
nodes = (
(1602,-26,o),
(1776,66,o),
(1860,196,c),
(1650,354,l),
(1602,274,o),
(1512,214,o),
(1396,214,cs),
(1246,214,o),
(1150,318,o),
(1132,458,c),
(1130,518,ls),
(1124,698,o),
(1230,834,o),
(1392,834,cs),
(1564,834,o),
(1676,676,o),
(1660,518,c),
(1728,624,l),
(1028,624,l),
(1028,422,l),
(1916,422,l),
(1922,456,o),
(1924,488,o),
(1924,518,cs),
(1924,818,o),
(1708,1066,o),
(1396,1066,cs),
(1104,1066,o),
(926,818,o),
(926,518,cs),
(926,218,o),
(1094,-26,o),
(1396,-26,cs)
);
}
);
width = 1962;
}
);
metricLeft = o;
metricRight = e;
unicode = 339;
},
{
glyphname = p;
kernLeft = p;
kernRight = o;
lastChange = "2022-04-29 18:10:09 +0000";
layers = (
{
anchors = (
{
name = bottom;
pos = (212,-400);
},
{
name = ogonek;
pos = (838,0);
},
{
name = top;
pos = (636,1040);
}
);
background = {
shapes = (
{
closed = 1;
nodes = (
(964,-26,o),
(1192,216,o),
(1192,516,cs),
(1192,816,o),
(964,1060,o),
(678,1060,cs),
(338,1060,o),
(306,796,o),
(250,516,c),
(306,236,o),
(338,-26,o),
(678,-26,cs)
);
},
{
closed = 1;
nodes = (
(350,-400,l),
(350,266,l),
(330,516,l),
(350,742,l),
(350,1040,l),
(80,1040,l),
(80,-400,l)
);
},
{
closed = 1;
nodes = (
(456,218,o),
(342,354,o),
(342,516,cs),
(342,678,o),
(456,816,o),
(634,816,cs),
(810,816,o),
(922,680,o),
(922,518,cs),
(922,360,o),
(810,218,o),
(634,218,cs)
);
}
);
};
layerId = "1B5AC656-48C3-4864-953F-2CD31E7BA751";
shapes = (
{
closed = 1;
nodes = (
(350,-400,l),
(350,280,l),
(302,280,l),
(352,104,o),
(438,-26,o),
(678,-26,cs),
(964,-26,o),
(1192,216,o),
(1192,516,cs),
(1192,816,o),
(964,1062,o),
(678,1062,cs),
(438,1062,o),
(352,930,o),
(302,752,c),
(346,752,l),
(346,1040,l),
(80,1040,l),
(80,-400,l)
);
},
{
closed = 1;
nodes = (
(456,218,o),
(342,354,o),
(342,516,cs),
(342,678,o),
(456,818,o),
(634,818,cs),
(806,818,o),
(922,680,o),
(922,518,cs),
(922,360,o),
(806,218,o),
(634,218,cs)
);
}
);
width = 1232;
},
{
anchors = (
{
name = bottom;
pos = (212,-400);
},
{
name = ogonek;
pos = (838,0);
},
{
name = top;
pos = (636,1040);
}
);
background = {
shapes = (
{
closed = 1;
nodes = (
(964,-26,o),
(1192,216,o),
(1192,516,cs),
(1192,816,o),
(964,1060,o),
(678,1060,cs),
(338,1060,o),
(306,796,o),
(250,516,c),
(306,236,o),
(338,-26,o),
(678,-26,cs)
);
},
{
closed = 1;
nodes = (
(350,-400,l),
(350,266,l),
(330,516,l),
(350,742,l),
(350,1040,l),
(80,1040,l),
(80,-400,l)
);
},
{
closed = 1;
nodes = (
(456,218,o),
(342,354,o),
(342,516,cs),
(342,678,o),
(456,816,o),
(634,816,cs),
(810,816,o),
(922,680,o),
(922,518,cs),
(922,360,o),
(810,218,o),
(634,218,cs)
);
}
);
};
layerId = "6B540EA0-879E-4877-ADBF-1E90C7170424";
shapes = (
{
closed = 1;
nodes = (
(350,-400,l),
(350,280,l),
(302,280,l),
(352,104,o),
(438,-26,o),
(678,-26,cs),
(964,-26,o),
(1192,216,o),
(1192,516,cs),
(1192,816,o),
(964,1062,o),
(678,1062,cs),
(438,1062,o),
(352,930,o),
(302,752,c),
(346,752,l),
(346,1040,l),
(80,1040,l),
(80,-400,l)
);
},
{
closed = 1;
nodes = (
(456,218,o),
(342,354,o),
(342,516,cs),
(342,678,o),
(456,818,o),
(634,818,cs),
(806,818,o),
(922,680,o),
(922,518,cs),
(922,360,o),
(806,218,o),
(634,218,cs)
);
}
);
width = 1232;
}
);
unicode = 112;
},
{
glyphname = thorn;
kernLeft = l;
kernRight = o;
lastChange = "2022-04-29 18:10:09 +0000";
layers = (
{
anchors = (
{
name = bottom;
pos = (212,-400);
},
{
name = ogonek;
pos = (836,0);
},
{
name = top;
pos = (212,1460);
}
);
layerId = "1B5AC656-48C3-4864-953F-2CD31E7BA751";
shapes = (
{
closed = 1;
nodes = (
(350,-400,l),
(350,280,l),
(302,280,l),
(352,104,o),
(438,-26,o),
(678,-26,cs),
(964,-26,o),
(1192,216,o),
(1192,516,cs),
(1192,816,o),
(964,1062,o),
(678,1062,cs),
(438,1062,o),
(352,930,o),
(302,752,c),
(350,752,l),
(350,1460,l),
(80,1460,l),
(80,-400,l)
);
},
{
closed = 1;
nodes = (
(456,218,o),
(342,354,o),
(342,516,cs),
(342,678,o),
(456,818,o),
(634,818,cs),
(806,818,o),
(922,680,o),
(922,518,cs),
(922,360,o),
(806,218,o),
(634,218,cs)
);
}
);
width = 1232;
},
{
anchors = (
{
name = bottom;
pos = (212,-400);
},
{
name = ogonek;
pos = (836,0);
},
{
name = top;
pos = (212,1460);
}
);
layerId = "6B540EA0-879E-4877-ADBF-1E90C7170424";
shapes = (
{
closed = 1;
nodes = (
(350,-400,l),
(350,280,l),
(302,280,l),
(352,104,o),
(438,-26,o),
(678,-26,cs),
(964,-26,o),
(1192,216,o),
(1192,516,cs),
(1192,816,o),
(964,1062,o),
(678,1062,cs),
(438,1062,o),
(352,930,o),
(302,752,c),
(350,752,l),
(350,1460,l),
(80,1460,l),
(80,-400,l)
);
},
{
closed = 1;
nodes = (
(456,218,o),
(342,354,o),
(342,516,cs),
(342,678,o),
(456,818,o),
(634,818,cs),
(806,818,o),
(922,680,o),
(922,518,cs),
(922,360,o),
(806,218,o),
(634,218,cs)
);
}
);
width = 1232;
}
);
metricLeft = l;
metricRight = o;
unicode = 254;
},
{
glyphname = q;
kernLeft = o;
kernRight = q;
lastChange = "2022-04-29 18:10:09 +0000";
layers = (
{
anchors = (
{
name = bottom;
pos = (1014,-400);
},
{
name = ogonek;
pos = (712,0);
},
{
name = top;
pos = (574,1040);
}
);
layerId = "1B5AC656-48C3-4864-953F-2CD31E7BA751";
shapes = (
{
closed = 1;
nodes = (
(1152,-400,l),
(1152,1040,l),
(886,1040,l),
(886,752,l),
(930,752,l),
(880,930,o),
(794,1062,o),
(554,1062,cs),
(268,1062,o),
(40,816,o),
(40,516,cs),
(40,216,o),
(268,-26,o),
(554,-26,cs),
(794,-26,o),
(880,104,o),
(930,280,c),
(882,280,l),
(882,-400,l)
);
},
{
closed = 1;
nodes = (
(426,218,o),
(310,360,o),
(310,518,cs),
(310,680,o),
(426,818,o),
(598,818,cs),
(776,818,o),
(890,678,o),
(890,516,cs),
(890,354,o),
(776,218,o),
(598,218,cs)
);
}
);
width = 1232;
},
{
anchors = (
{
name = bottom;
pos = (1014,-400);
},
{
name = ogonek;
pos = (712,0);
},
{
name = top;
pos = (574,1040);
}
);
layerId = "6B540EA0-879E-4877-ADBF-1E90C7170424";
shapes = (
{
closed = 1;
nodes = (
(1152,-400,l),
(1152,1040,l),
(886,1040,l),
(886,752,l),
(930,752,l),
(880,930,o),
(794,1062,o),
(554,1062,cs),
(268,1062,o),
(40,816,o),
(40,516,cs),
(40,216,o),
(268,-26,o),
(554,-26,cs),
(794,-26,o),
(880,104,o),
(930,280,c),
(882,280,l),
(882,-400,l)
);
},
{
closed = 1;
nodes = (
(426,218,o),
(310,360,o),
(310,518,cs),
(310,680,o),
(426,818,o),
(598,818,cs),
(776,818,o),
(890,678,o),
(890,516,cs),
(890,354,o),
(776,218,o),
(598,218,cs)
);
}
);
width = 1232;
}
);
unicode = 113;
},
{
glyphname = r;
kernLeft = n;
kernRight = r;
lastChange = "2022-04-29 18:10:09 +0000";
layers = (
{
anchors = (
{
name = bottom;
pos = (212,0);
},
{
name = ogonek;
pos = (350,0);
},
{
name = top;
pos = (414,1040);
}
);
layerId = "1B5AC656-48C3-4864-953F-2CD31E7BA751";
shapes = (
{
closed = 1;
nodes = (
(350,0,l),
(350,532,ls),
(350,706,o),
(470,810,o),
(626,810,cs),
(664,810,l),
(664,1064,l),
(452,1076,o),
(342,960,o),
(330,756,c),
(342,756,l),
(342,1040,l),
(80,1040,l),
(80,0,l)
);
}
);
width = 674;
},
{
anchors = (
{
name = bottom;
pos = (212,0);
},
{
name = ogonek;
pos = (350,0);
},
{
name = top;
pos = (414,1040);
}
);
layerId = "6B540EA0-879E-4877-ADBF-1E90C7170424";
shapes = (
{
closed = 1;
nodes = (
(350,0,l),
(350,532,ls),
(350,706,o),
(470,810,o),
(626,810,cs),
(664,810,l),
(664,1064,l),
(452,1076,o),
(342,960,o),
(330,756,c),
(342,756,l),
(342,1040,l),
(80,1040,l),
(80,0,l)
);
}
);
width = 674;
}
);
metricLeft = n;
unicode = 114;
},
{
glyphname = s;
kernLeft = s;
kernRight = s;
lastChange = "2022-04-29 18:10:09 +0000";
layers = (
{
anchors = (
{
name = bottom;
pos = (436,0);
},
{
name = ogonek;
pos = (622,0);
},
{
name = top;
pos = (452,1040);
}
);
background = {
shapes = (
{
closed = 1;
nodes = (
(-1712,4768,o),
(-1580,4906,o),
(-1312,4906,cs),
(-1086,4906,o),
(-982,4828,o),
(-890,4710,c),
(-1078,4544,l),
(-1154,4632,o),
(-1228,4668,o),
(-1310,4668,cs),
(-1380,4668,o),
(-1414,4636,o),
(-1414,4602,cs),
(-1414,4532,o),
(-1354,4532,o),
(-1174,4482,cs),
(-988,4428,o),
(-884,4350,o),
(-884,4152,cs),
(-884,3978,o),
(-1010,3814,o),
(-1318,3814,cs),
(-1508,3814,o),
(-1666,3864,o),
(-1780,4012,c),
(-1580,4202,l),
(-1508,4114,o),
(-1418,4064,o),
(-1316,4064,cs),
(-1228,4064,o),
(-1182,4094,o),
(-1182,4150,cs),
(-1182,4232,o),
(-1314,4234,o),
(-1456,4276,cs),
(-1590,4314,o),
(-1712,4408,o),
(-1712,4586,cs)
);
},
{
closed = 1;
nodes = (
(-1710,2754,o),
(-1536,2912,o),
(-1536,3076,cs),
(-1536,3510,o),
(-2102,3368,o),
(-2102,3540,cs),
(-2102,3582,o),
(-2066,3632,o),
(-1970,3632,cs),
(-1878,3632,o),
(-1804,3596,o),
(-1740,3496,c),
(-1556,3638,l),
(-1638,3762,o),
(-1750,3846,o),
(-1976,3846,cs),
(-2244,3846,o),
(-2372,3696,o),
(-2372,3516,cs),
(-2372,3130,o),
(-1810,3268,o),
(-1810,3076,cs),
(-1810,3018,o),
(-1858,2974,o),
(-1958,2974,cs),
(-2064,2974,o),
(-2186,3028,o),
(-2258,3140,c),
(-2446,2984,l),
(-2350,2826,o),
(-2186,2754,o),
(-1974,2754,cs)
);
},
{
closed = 1;
nodes = (
(720,3174,o),
(842,3324,o),
(842,3514,cs),
(842,3606,o),
(814,3656,o),
(776,3698,cs),
(718,3762,o),
(616,3810,o),
(450,3854,cs),
(370,3876,o),
(336,3906,o),
(336,3956,cs),
(336,4012,o),
(376,4050,o),
(458,4050,cs),
(544,4050,o),
(608,4010,o),
(682,3924,c),
(850,4084,l),
(752,4198,o),
(642,4266,o),
(460,4266,cs),
(200,4266,o),
(70,4130,o),
(70,3940,cs),
(70,3856,o),
(96,3800,o),
(138,3754,cs),
(190,3698,o),
(274,3646,o),
(468,3596,cs),
(548,3576,o),
(584,3544,o),
(584,3490,cs),
(584,3428,o),
(538,3398,o),
(456,3398,cs),
(364,3398,o),
(268,3436,o),
(196,3540,c),
(8,3394,l),
(102,3238,o),
(268,3174,o),
(446,3174,cs)
);
},
{
closed = 0;
nodes = (
(454,3852,l),
(540,3830,o),
(604,3808,o),
(654,3784,cs)
);
},
{
closed = 1;
nodes = (
(-80,3774,o),
(42,3934,o),
(42,4110,cs),
(42,4248,o),
(-34,4330,o),
(-146,4384,cs),
(-216,4418,o),
(-296,4432,o),
(-380,4464,cs),
(-444,4488,o),
(-464,4520,o),
(-464,4564,cs),
(-464,4610,o),
(-426,4650,o),
(-360,4650,cs),
(-256,4650,o),
(-192,4610,o),
(-118,4524,c),
(50,4684,l),
(-48,4798,o),
(-158,4866,o),
(-340,4866,cs),
(-600,4866,o),
(-730,4730,o),
(-730,4540,cs),
(-730,4408,o),
(-656,4324,o),
(-532,4264,cs),
(-468,4234,o),
(-434,4224,o),
(-332,4196,cs),
(-268,4178,o),
(-216,4150,o),
(-216,4090,cs),
(-216,4028,o),
(-276,3998,o),
(-344,3998,cs),
(-436,3998,o),
(-532,4036,o),
(-604,4140,c),
(-792,3994,l),
(-698,3838,o),
(-532,3774,o),
(-354,3774,cs)
);
},
{
closed = 1;
nodes = (
(616,1574,o),
(792,1700,o),
(792,1892,cs),
(792,2034,o),
(706,2132,o),
(504,2198,cs),
(286,2270,o),
(268,2324,o),
(268,2402,cs),
(268,2496,o),
(336,2566,o),
(438,2566,cs),
(556,2566,o),
(598,2522,o),
(644,2436,c),
(746,2488,l),
(686,2604,o),
(612,2666,o),
(436,2666,cs),
(270,2666,o),
(148,2544,o),
(148,2390,cs),
(148,2266,o),
(224,2174,o),
(408,2112,cs),
(660,2028,o),
(674,1966,o),
(674,1884,cs),
(674,1752,o),
(570,1674,o),
(446,1674,cs),
(296,1674,o),
(190,1762,o),
(160,1912,c),
(48,1882,l),
(82,1698,o),
(246,1574,o),
(442,1574,cs)
);
},
{
closed = 1;
nodes = (
(-298,1974,o),
(-156,2110,o),
(-156,2314,cs),
(-156,2450,o),
(-196,2574,o),
(-520,2658,cs),
(-632,2688,o),
(-644,2722,o),
(-644,2758,cs),
(-644,2820,o),
(-596,2856,o),
(-532,2856,cs),
(-428,2856,o),
(-372,2800,o),
(-316,2732,c),
(-138,2896,l),
(-234,3012,o),
(-356,3066,o),
(-542,3066,cs),
(-762,3066,o),
(-914,2940,o),
(-914,2750,cs),
(-914,2656,o),
(-896,2508,o),
(-602,2432,cs),
(-438,2390,o),
(-426,2352,o),
(-426,2306,cs),
(-426,2230,o),
(-476,2188,o),
(-564,2188,cs),
(-654,2188,o),
(-730,2224,o),
(-812,2320,c),
(-992,2154,l),
(-866,2018,o),
(-734,1974,o),
(-572,1974,cs)
);
},
{
closed = 1;
nodes = (
(666,-26,o),
(840,118,o),
(840,310,cs),
(840,466,o),
(770,578,o),
(468,656,cs),
(344,688,o),
(334,720,o),
(334,756,cs),
(334,810,o),
(378,848,o),
(462,848,cs),
(522,848,o),
(592,816,o),
(642,736,c),
(838,886,l),
(732,1024,o),
(620,1066,o),
(452,1066,cs),
(208,1066,o),
(64,930,o),
(64,748,cs),
(64,616,o),
(106,490,o),
(384,424,cs),
(548,386,o),
(570,356,o),
(570,302,cs),
(570,240,o),
(522,194,o),
(430,194,cs),
(342,194,o),
(262,236,o),
(186,322,c),
(4,156,l),
(118,34,o),
(260,-26,o),
(436,-26,cs)
);
}
);
};
layerId = "1B5AC656-48C3-4864-953F-2CD31E7BA751";
shapes = (
{
closed = 1;
nodes = (
(666,-26,o),
(840,118,o),
(840,310,cs),
(840,466,o),
(770,578,o),
(468,656,cs),
(344,688,o),
(328,720,o),
(328,756,cs),
(328,820,o),
(384,848,o),
(458,848,cs),
(528,848,o),
(592,816,o),
(642,736,c),
(838,886,l),
(732,1024,o),
(620,1066,o),
(452,1066,cs),
(208,1066,o),
(64,930,o),
(64,748,cs),
(64,616,o),
(106,490,o),
(384,424,cs),
(548,386,o),
(574,356,o),
(574,302,cs),
(574,240,o),
(522,194,o),
(430,194,cs),
(342,194,o),
(262,236,o),
(186,322,c),
(4,156,l),
(118,34,o),
(260,-26,o),
(436,-26,cs)
);
}
);
width = 866;
},
{
anchors = (
{
name = bottom;
pos = (436,0);
},
{
name = ogonek;
pos = (622,0);
},
{
name = top;
pos = (452,1040);
}
);
background = {
shapes = (
{
closed = 1;
nodes = (
(-1712,4768,o),
(-1580,4906,o),
(-1312,4906,cs),
(-1086,4906,o),
(-982,4828,o),
(-890,4710,c),
(-1078,4544,l),
(-1154,4632,o),
(-1228,4668,o),
(-1310,4668,cs),
(-1380,4668,o),
(-1414,4636,o),
(-1414,4602,cs),
(-1414,4532,o),
(-1354,4532,o),
(-1174,4482,cs),
(-988,4428,o),
(-884,4350,o),
(-884,4152,cs),
(-884,3978,o),
(-1010,3814,o),
(-1318,3814,cs),
(-1508,3814,o),
(-1666,3864,o),
(-1780,4012,c),
(-1580,4202,l),
(-1508,4114,o),
(-1418,4064,o),
(-1316,4064,cs),
(-1228,4064,o),
(-1182,4094,o),
(-1182,4150,cs),
(-1182,4232,o),
(-1314,4234,o),
(-1456,4276,cs),
(-1590,4314,o),
(-1712,4408,o),
(-1712,4586,cs)
);
},
{
closed = 1;
nodes = (
(-1710,2754,o),
(-1536,2912,o),
(-1536,3076,cs),
(-1536,3510,o),
(-2102,3368,o),
(-2102,3540,cs),
(-2102,3582,o),
(-2066,3632,o),
(-1970,3632,cs),
(-1878,3632,o),
(-1804,3596,o),
(-1740,3496,c),
(-1556,3638,l),
(-1638,3762,o),
(-1750,3846,o),
(-1976,3846,cs),
(-2244,3846,o),
(-2372,3696,o),
(-2372,3516,cs),
(-2372,3130,o),
(-1810,3268,o),
(-1810,3076,cs),
(-1810,3018,o),
(-1858,2974,o),
(-1958,2974,cs),
(-2064,2974,o),
(-2186,3028,o),
(-2258,3140,c),
(-2446,2984,l),
(-2350,2826,o),
(-2186,2754,o),
(-1974,2754,cs)
);
},
{
closed = 1;
nodes = (
(720,3174,o),
(842,3324,o),
(842,3514,cs),
(842,3606,o),
(814,3656,o),
(776,3698,cs),
(718,3762,o),
(616,3810,o),
(450,3854,cs),
(370,3876,o),
(336,3906,o),
(336,3956,cs),
(336,4012,o),
(376,4050,o),
(458,4050,cs),
(544,4050,o),
(608,4010,o),
(682,3924,c),
(850,4084,l),
(752,4198,o),
(642,4266,o),
(460,4266,cs),
(200,4266,o),
(70,4130,o),
(70,3940,cs),
(70,3856,o),
(96,3800,o),
(138,3754,cs),
(190,3698,o),
(274,3646,o),
(468,3596,cs),
(548,3576,o),
(584,3544,o),
(584,3490,cs),
(584,3428,o),
(538,3398,o),
(456,3398,cs),
(364,3398,o),
(268,3436,o),
(196,3540,c),
(8,3394,l),
(102,3238,o),
(268,3174,o),
(446,3174,cs)
);
},
{
closed = 0;
nodes = (
(454,3852,l),
(540,3830,o),
(604,3808,o),
(654,3784,cs)
);
},
{
closed = 1;
nodes = (
(-80,3774,o),
(42,3934,o),
(42,4110,cs),
(42,4248,o),
(-34,4330,o),
(-146,4384,cs),
(-216,4418,o),
(-296,4432,o),
(-380,4464,cs),
(-444,4488,o),
(-464,4520,o),
(-464,4564,cs),
(-464,4610,o),
(-426,4650,o),
(-360,4650,cs),
(-256,4650,o),
(-192,4610,o),
(-118,4524,c),
(50,4684,l),
(-48,4798,o),
(-158,4866,o),
(-340,4866,cs),
(-600,4866,o),
(-730,4730,o),
(-730,4540,cs),
(-730,4408,o),
(-656,4324,o),
(-532,4264,cs),
(-468,4234,o),
(-434,4224,o),
(-332,4196,cs),
(-268,4178,o),
(-216,4150,o),
(-216,4090,cs),
(-216,4028,o),
(-276,3998,o),
(-344,3998,cs),
(-436,3998,o),
(-532,4036,o),
(-604,4140,c),
(-792,3994,l),
(-698,3838,o),
(-532,3774,o),
(-354,3774,cs)
);
},
{
closed = 1;
nodes = (
(616,1574,o),
(792,1700,o),
(792,1892,cs),
(792,2034,o),
(706,2132,o),
(504,2198,cs),
(286,2270,o),
(268,2324,o),
(268,2402,cs),
(268,2496,o),
(336,2566,o),
(438,2566,cs),
(556,2566,o),
(598,2522,o),
(644,2436,c),
(746,2488,l),
(686,2604,o),
(612,2666,o),
(436,2666,cs),
(270,2666,o),
(148,2544,o),
(148,2390,cs),
(148,2266,o),
(224,2174,o),
(408,2112,cs),
(660,2028,o),
(674,1966,o),
(674,1884,cs),
(674,1752,o),
(570,1674,o),
(446,1674,cs),
(296,1674,o),
(190,1762,o),
(160,1912,c),
(48,1882,l),
(82,1698,o),
(246,1574,o),
(442,1574,cs)
);
},
{
closed = 1;
nodes = (
(-298,1974,o),
(-156,2110,o),
(-156,2314,cs),
(-156,2450,o),
(-196,2574,o),
(-520,2658,cs),
(-632,2688,o),
(-644,2722,o),
(-644,2758,cs),
(-644,2820,o),
(-596,2856,o),
(-532,2856,cs),
(-428,2856,o),
(-372,2800,o),
(-316,2732,c),
(-138,2896,l),
(-234,3012,o),
(-356,3066,o),
(-542,3066,cs),
(-762,3066,o),
(-914,2940,o),
(-914,2750,cs),
(-914,2656,o),
(-896,2508,o),
(-602,2432,cs),
(-438,2390,o),
(-426,2352,o),
(-426,2306,cs),
(-426,2230,o),
(-476,2188,o),
(-564,2188,cs),
(-654,2188,o),
(-730,2224,o),
(-812,2320,c),
(-992,2154,l),
(-866,2018,o),
(-734,1974,o),
(-572,1974,cs)
);
},
{
closed = 1;
nodes = (
(666,-26,o),
(840,118,o),
(840,310,cs),
(840,466,o),
(770,578,o),
(468,656,cs),
(344,688,o),
(334,720,o),
(334,756,cs),
(334,810,o),
(378,848,o),
(462,848,cs),
(522,848,o),
(592,816,o),
(642,736,c),
(838,886,l),
(732,1024,o),
(620,1066,o),
(452,1066,cs),
(208,1066,o),
(64,930,o),
(64,748,cs),
(64,616,o),
(106,490,o),
(384,424,cs),
(548,386,o),
(570,356,o),
(570,302,cs),
(570,240,o),
(522,194,o),
(430,194,cs),
(342,194,o),
(262,236,o),
(186,322,c),
(4,156,l),
(118,34,o),
(260,-26,o),
(436,-26,cs)
);
}
);
};
layerId = "6B540EA0-879E-4877-ADBF-1E90C7170424";
shapes = (
{
closed = 1;
nodes = (
(666,-26,o),
(840,118,o),
(840,310,cs),
(840,466,o),
(770,578,o),
(468,656,cs),
(344,688,o),
(328,720,o),
(328,756,cs),
(328,820,o),
(384,848,o),
(458,848,cs),
(528,848,o),
(592,816,o),
(642,736,c),
(838,886,l),
(732,1024,o),
(620,1066,o),
(452,1066,cs),
(208,1066,o),
(64,930,o),
(64,748,cs),
(64,616,o),
(106,490,o),
(384,424,cs),
(548,386,o),
(574,356,o),
(574,302,cs),
(574,240,o),
(522,194,o),
(430,194,cs),
(342,194,o),
(262,236,o),
(186,322,c),
(4,156,l),
(118,34,o),
(260,-26,o),
(436,-26,cs)
);
}
);
width = 866;
}
);
unicode = 115;
},
{
glyphname = saltillo;
lastChange = "2022-04-29 18:10:09 +0000";
layers = (
{
layerId = "1B5AC656-48C3-4864-953F-2CD31E7BA751";
shapes = (
{
closed = 1;
nodes = (
(382,526,l),
(428,1154,l),
(428,1400,l),
(148,1400,l),
(148,1154,l),
(194,526,l)
);
}
);
width = 576;
},
{
layerId = "6B540EA0-879E-4877-ADBF-1E90C7170424";
shapes = (
{
closed = 1;
nodes = (
(382,526,l),
(428,1154,l),
(428,1400,l),
(148,1400,l),
(148,1154,l),
(194,526,l)
);
}
);
width = 576;
}
);
unicode = 42892;
},
{
glyphname = germandbls;
kernLeft = l;
kernRight = germandbls;
lastChange = "2022-04-29 18:12:24 +0000";
layers = (
{
background = {
shapes = (
{
closed = 1;
nodes = (
(-301,2426,l),
(-341,2446,o),
(-381,2478,o),
(-419,2522,c),
(-601,2356,l),
(-541,2292,o),
(-475,2246,o),
(-401,2216,c)
);
},
{
closed = 1;
nodes = (
(345,4400,l),
(345,5310,ls),
(345,5548,o),
(407,5688,o),
(589,5688,cs),
(833,5688,o),
(857,5588,o),
(857,5398,c),
(1091,5334,l),
(1091,5764,o),
(943,5886,o),
(587,5886,cs),
(239,5886,o),
(75,5632,o),
(75,5334,cs),
(75,4400,l)
);
},
{
closed = 1;
nodes = (
(2061,2174,o),
(2235,2318,o),
(2235,2510,cs),
(2235,2666,o),
(2165,2778,o),
(1863,2856,cs),
(1739,2888,o),
(1729,2920,o),
(1729,2956,cs),
(1729,3010,o),
(1773,3048,o),
(1857,3048,cs),
(1917,3048,o),
(1987,3016,o),
(2037,2936,c),
(2233,3086,l),
(2127,3224,o),
(2015,3266,o),
(1847,3266,cs),
(1603,3266,o),
(1459,3130,o),
(1459,2948,cs),
(1459,2816,o),
(1501,2690,o),
(1779,2624,cs),
(1943,2586,o),
(1965,2556,o),
(1965,2502,cs),
(1965,2440,o),
(1917,2394,o),
(1825,2394,cs),
(1737,2394,o),
(1657,2436,o),
(1581,2522,c),
(1399,2356,l),
(1513,2234,o),
(1655,2174,o),
(1831,2174,cs)
);
},
{
closed = 1;
nodes = (
(199,2216,l),
(269,2188,o),
(347,2174,o),
(431,2174,cs),
(661,2174,o),
(835,2318,o),
(835,2510,cs),
(835,2666,o),
(765,2778,o),
(463,2856,cs),
(339,2888,o),
(329,2920,o),
(329,2956,cs),
(329,3010,o),
(373,3048,o),
(457,3048,cs),
(517,3048,o),
(587,3016,o),
(637,2936,c),
(833,3086,l),
(727,3224,o),
(615,3266,o),
(447,3266,cs),
(203,3266,o),
(59,3130,o),
(59,2948,cs),
(59,2816,o),
(101,2690,o),
(379,2624,cs),
(543,2586,o),
(565,2556,o),
(565,2502,cs),
(565,2440,o),
(517,2394,o),
(425,2394,cs),
(381,2394,o),
(339,2404,o),
(299,2426,c)
);
},
{
closed = 1;
nodes = (
(779,594,o),
(979,794,o),
(979,1040,cs),
(979,1284,o),
(779,1484,o),
(535,1484,cs),
(289,1484,o),
(89,1284,o),
(89,1040,cs),
(89,794,o),
(289,594,o),
(535,594,cs)
);
},
{
closed = 1;
nodes = (
(897,-26,o),
(1097,174,o),
(1097,420,cs),
(1097,664,o),
(897,864,o),
(653,864,cs),
(407,864,o),
(207,664,o),
(207,420,cs),
(207,174,o),
(407,-26,o),
(653,-26,cs)
);
},
{
closed = 1;
nodes = (
(633,872,o),
(715,954,o),
(715,1058,cs),
(715,1160,o),
(633,1242,o),
(531,1242,cs),
(427,1242,o),
(345,1160,o),
(345,1058,cs),
(345,954,o),
(427,872,o),
(531,872,cs)
);
},
{
closed = 1;
nodes = (
(741,216,o),
(833,308,o),
(833,424,cs),
(833,538,o),
(741,630,o),
(627,630,cs),
(511,630,o),
(419,538,o),
(419,424,cs),
(419,308,o),
(511,216,o),
(627,216,cs)
);
}
);
};
layerId = "1B5AC656-48C3-4864-953F-2CD31E7BA751";
shapes = (
{
closed = 1;
nodes = (
(939,-26,o),
(1101,200,o),
(1101,424,cs),
(1101,618,o),
(959,850,o),
(575,850,c),
(575,718,l),
(895,756,o),
(979,960,o),
(979,1098,cs),
(979,1298,o),
(809,1486,o),
(541,1486,cs),
(257,1486,o),
(75,1282,o),
(75,1028,cs),
(75,0,l),
(345,0,l),
(345,1028,ls),
(345,1168,o),
(427,1240,o),
(533,1240,cs),
(637,1240,o),
(711,1164,o),
(711,1068,cs),
(711,922,o),
(609,870,o),
(489,870,c),
(489,654,l),
(739,692,o),
(833,560,o),
(833,430,cs),
(833,280,o),
(723,216,o),
(631,216,cs),
(573,216,o),
(523,236,o),
(485,260,c),
(383,28,l),
(443,-6,o),
(523,-26,o),
(639,-26,cs)
);
}
);
width = 1141;
},
{
background = {
shapes = (
{
closed = 1;
nodes = (
(-301,2426,l),
(-341,2446,o),
(-381,2478,o),
(-419,2522,c),
(-601,2356,l),
(-541,2292,o),
(-475,2246,o),
(-401,2216,c)
);
},
{
closed = 1;
nodes = (
(345,4400,l),
(345,5310,ls),
(345,5548,o),
(407,5688,o),
(589,5688,cs),
(833,5688,o),
(857,5588,o),
(857,5398,c),
(1091,5334,l),
(1091,5764,o),
(943,5886,o),
(587,5886,cs),
(239,5886,o),
(75,5632,o),
(75,5334,cs),
(75,4400,l)
);
},
{
closed = 1;
nodes = (
(2061,2174,o),
(2235,2318,o),
(2235,2510,cs),
(2235,2666,o),
(2165,2778,o),
(1863,2856,cs),
(1739,2888,o),
(1729,2920,o),
(1729,2956,cs),
(1729,3010,o),
(1773,3048,o),
(1857,3048,cs),
(1917,3048,o),
(1987,3016,o),
(2037,2936,c),
(2233,3086,l),
(2127,3224,o),
(2015,3266,o),
(1847,3266,cs),
(1603,3266,o),
(1459,3130,o),
(1459,2948,cs),
(1459,2816,o),
(1501,2690,o),
(1779,2624,cs),
(1943,2586,o),
(1965,2556,o),
(1965,2502,cs),
(1965,2440,o),
(1917,2394,o),
(1825,2394,cs),
(1737,2394,o),
(1657,2436,o),
(1581,2522,c),
(1399,2356,l),
(1513,2234,o),
(1655,2174,o),
(1831,2174,cs)
);
},
{
closed = 1;
nodes = (
(199,2216,l),
(269,2188,o),
(347,2174,o),
(431,2174,cs),
(661,2174,o),
(835,2318,o),
(835,2510,cs),
(835,2666,o),
(765,2778,o),
(463,2856,cs),
(339,2888,o),
(329,2920,o),
(329,2956,cs),
(329,3010,o),
(373,3048,o),
(457,3048,cs),
(517,3048,o),
(587,3016,o),
(637,2936,c),
(833,3086,l),
(727,3224,o),
(615,3266,o),
(447,3266,cs),
(203,3266,o),
(59,3130,o),
(59,2948,cs),
(59,2816,o),
(101,2690,o),
(379,2624,cs),
(543,2586,o),
(565,2556,o),
(565,2502,cs),
(565,2440,o),
(517,2394,o),
(425,2394,cs),
(381,2394,o),
(339,2404,o),
(299,2426,c)
);
},
{
closed = 1;
nodes = (
(779,594,o),
(979,794,o),
(979,1040,cs),
(979,1284,o),
(779,1484,o),
(535,1484,cs),
(289,1484,o),
(89,1284,o),
(89,1040,cs),
(89,794,o),
(289,594,o),
(535,594,cs)
);
},
{
closed = 1;
nodes = (
(897,-26,o),
(1097,174,o),
(1097,420,cs),
(1097,664,o),
(897,864,o),
(653,864,cs),
(407,864,o),
(207,664,o),
(207,420,cs),
(207,174,o),
(407,-26,o),
(653,-26,cs)
);
},
{
closed = 1;
nodes = (
(633,872,o),
(715,954,o),
(715,1058,cs),
(715,1160,o),
(633,1242,o),
(531,1242,cs),
(427,1242,o),
(345,1160,o),
(345,1058,cs),
(345,954,o),
(427,872,o),
(531,872,cs)
);
},
{
closed = 1;
nodes = (
(741,216,o),
(833,308,o),
(833,424,cs),
(833,538,o),
(741,630,o),
(627,630,cs),
(511,630,o),
(419,538,o),
(419,424,cs),
(419,308,o),
(511,216,o),
(627,216,cs)
);
}
);
};
layerId = "6B540EA0-879E-4877-ADBF-1E90C7170424";
shapes = (
{
closed = 1;
nodes = (
(939,-26,o),
(1101,200,o),
(1101,424,cs),
(1101,618,o),
(959,850,o),
(575,850,c),
(575,718,l),
(895,756,o),
(979,960,o),
(979,1098,cs),
(979,1298,o),
(809,1486,o),
(541,1486,cs),
(257,1486,o),
(75,1282,o),
(75,1028,cs),
(75,0,l),
(345,0,l),
(345,1028,ls),
(345,1168,o),
(427,1240,o),
(533,1240,cs),
(637,1240,o),
(711,1164,o),
(711,1068,cs),
(711,922,o),
(609,870,o),
(489,870,c),
(489,654,l),
(739,692,o),
(833,560,o),
(833,430,cs),
(833,280,o),
(723,216,o),
(631,216,cs),
(573,216,o),
(523,236,o),
(485,260,c),
(383,28,l),
(443,-6,o),
(523,-26,o),
(639,-26,cs)
);
}
);
width = 1141;
}
);
metricLeft = "=l-5";
unicode = 223;
},
{
glyphname = t;
kernLeft = t;
kernRight = t;
lastChange = "2022-04-29 18:10:09 +0000";
layers = (
{
anchors = (
{
name = bottom;
pos = (394,0);
},
{
name = center;
pos = (330,552);
},
{
name = ogonek;
pos = (622,0);
},
{
name = top;
pos = (292,1264);
},
{
name = topright;
pos = (540,1460);
}
);
background = {
shapes = (
{
ref = t.ss01;
}
);
};
layerId = "1B5AC656-48C3-4864-953F-2CD31E7BA751";
shapes = (
{
closed = 1;
nodes = (
(622,0,l),
(622,240,l),
(510,240,ls),
(458,240,o),
(426,270,o),
(426,336,cs),
(426,1278,l),
(156,1250,l),
(156,322,ls),
(156,96,o),
(268,0,o),
(474,0,cs)
);
},
{
closed = 1;
nodes = (
(646,810,l),
(646,1040,l),
(10,1040,l),
(10,810,l)
);
}
);
width = 656;
},
{
anchors = (
{
name = bottom;
pos = (394,0);
},
{
name = center;
pos = (330,552);
},
{
name = ogonek;
pos = (622,0);
},
{
name = top;
pos = (292,1264);
},
{
name = topright;
pos = (540,1460);
}
);
background = {
shapes = (
{
ref = t.ss01;
}
);
};
layerId = "6B540EA0-879E-4877-ADBF-1E90C7170424";
shapes = (
{
closed = 1;
nodes = (
(622,0,l),
(622,240,l),
(510,240,ls),
(458,240,o),
(426,270,o),
(426,336,cs),
(426,1278,l),
(156,1250,l),
(156,322,ls),
(156,96,o),
(268,0,o),
(474,0,cs)
);
},
{
closed = 1;
nodes = (
(646,810,l),
(646,1040,l),
(10,1040,l),
(10,810,l)
);
}
);
width = 656;
}
);
unicode = 116;
},
{
glyphname = u;
kernLeft = u;
kernRight = u;
lastChange = "2022-04-29 18:10:09 +0000";
layers = (
{
anchors = (
{
name = bottom;
pos = (548,0);
},
{
name = ogonek;
pos = (772,0);
},
{
name = top;
pos = (546,1040);
},
{
name = topright;
pos = (1002,1040);
}
);
layerId = "1B5AC656-48C3-4864-953F-2CD31E7BA751";
shapes = (
{
closed = 1;
nodes = (
(678,-24,o),
(774,80,o),
(806,284,c),
(772,238,l),
(772,0,l),
(1034,0,l),
(1034,1040,l),
(764,1040,l),
(764,470,ls),
(764,290,o),
(662,212,o),
(548,212,cs),
(414,212,o),
(340,290,o),
(340,470,cs),
(340,1040,l),
(70,1040,l),
(70,404,ls),
(70,142,o),
(242,-24,o),
(466,-24,cs)
);
}
);
width = 1114;
},
{
anchors = (
{
name = bottom;
pos = (548,0);
},
{
name = ogonek;
pos = (772,0);
},
{
name = top;
pos = (546,1040);
},
{
name = topright;
pos = (1002,1040);
}
);
layerId = "6B540EA0-879E-4877-ADBF-1E90C7170424";
shapes = (
{
closed = 1;
nodes = (
(678,-24,o),
(774,80,o),
(806,284,c),
(772,238,l),
(772,0,l),
(1034,0,l),
(1034,1040,l),
(764,1040,l),
(764,470,ls),
(764,290,o),
(662,212,o),
(548,212,cs),
(414,212,o),
(340,290,o),
(340,470,cs),
(340,1040,l),
(70,1040,l),
(70,404,ls),
(70,142,o),
(242,-24,o),
(466,-24,cs)
);
}
);
width = 1114;
}
);
metricLeft = "=|n";
metricRight = "=|n";
unicode = 117;
},
{
glyphname = v;
kernLeft = v;
kernRight = v;
lastChange = "2022-04-29 18:10:09 +0000";
layers = (
{
anchors = (
{
name = bottom;
pos = (546,0);
},
{
name = ogonek;
pos = (676,0);
},
{
name = top;
pos = (548,1040);
}
);
background = {
shapes = (
{
closed = 1;
nodes = (
(1088,0,l),
(1380,0,l),
(1724,1040,l),
(1410,1040,l),
(1266,450,ls),
(1252,390,o),
(1238,330,o),
(1230,270,c),
(1238,270,l),
(1230,330,o),
(1216,392,o),
(1200,452,cs),
(1038,1040,l),
(728,1040,l),
(576,452,ls),
(560,392,o),
(546,330,o),
(538,270,c),
(546,270,l),
(538,330,o),
(524,390,o),
(510,450,cs),
(376,1040,l),
(40,1040,l),
(384,0,l),
(694,0,l),
(850,592,ls),
(866,652,o),
(878,712,o),
(886,772,c),
(878,772,l),
(886,712,o),
(902,652,o),
(918,592,cs)
);
},
{
closed = 1;
nodes = (
(404,0,l),
(676,0,l),
(1108,1040,l),
(788,1040,l),
(504,202,l),
(582,202,l),
(296,1040,l),
(-30,1040,l)
);
}
);
};
layerId = "1B5AC656-48C3-4864-953F-2CD31E7BA751";
shapes = (
{
closed = 1;
nodes = (
(676,0,l),
(1108,1040,l),
(794,1040,l),
(586,446,ls),
(566,388,o),
(548,318,o),
(538,258,c),
(546,258,l),
(536,318,o),
(518,388,o),
(498,446,cs),
(290,1040,l),
(-30,1040,l),
(404,0,l)
);
}
);
width = 1078;
},
{
anchors = (
{
name = bottom;
pos = (546,0);
},
{
name = ogonek;
pos = (676,0);
},
{
name = top;
pos = (548,1040);
}
);
background = {
shapes = (
{
closed = 1;
nodes = (
(1088,0,l),
(1380,0,l),
(1724,1040,l),
(1410,1040,l),
(1266,450,ls),
(1252,390,o),
(1238,330,o),
(1230,270,c),
(1238,270,l),
(1230,330,o),
(1216,392,o),
(1200,452,cs),
(1038,1040,l),
(728,1040,l),
(576,452,ls),
(560,392,o),
(546,330,o),
(538,270,c),
(546,270,l),
(538,330,o),
(524,390,o),
(510,450,cs),
(376,1040,l),
(40,1040,l),
(384,0,l),
(694,0,l),
(850,592,ls),
(866,652,o),
(878,712,o),
(886,772,c),
(878,772,l),
(886,712,o),
(902,652,o),
(918,592,cs)
);
},
{
closed = 1;
nodes = (
(404,0,l),
(676,0,l),
(1108,1040,l),
(788,1040,l),
(504,202,l),
(582,202,l),
(296,1040,l),
(-30,1040,l)
);
}
);
};
layerId = "6B540EA0-879E-4877-ADBF-1E90C7170424";
shapes = (
{
closed = 1;
nodes = (
(676,0,l),
(1108,1040,l),
(794,1040,l),
(586,446,ls),
(566,388,o),
(548,318,o),
(538,258,c),
(546,258,l),
(536,318,o),
(518,388,o),
(498,446,cs),
(290,1040,l),
(-30,1040,l),
(404,0,l)
);
}
);
width = 1078;
}
);
unicode = 118;
},
{
glyphname = w;
kernLeft = w;
kernRight = w;
lastChange = "2022-04-29 18:10:09 +0000";
layers = (
{
anchors = (
{
name = bottom;
pos = (796,0);
},
{
name = ogonek;
pos = (1294,0);
},
{
name = top;
pos = (796,1040);
}
);
background = {
shapes = (
{
closed = 1;
nodes = (
(280,2600,l),
(552,2600,l),
(994,3640,l),
(674,3640,l),
(380,2802,l),
(458,2802,l),
(164,3640,l),
(-162,3640,l)
);
},
{
closed = 1;
nodes = (
(994,2600,l),
(1266,2600,l),
(1708,3640,l),
(1388,3640,l),
(1094,2802,l),
(1172,2802,l),
(878,3640,l),
(552,3640,l)
);
},
{
closed = 0;
nodes = (
(332,2924,l),
(1256,2924,l)
);
},
{
closed = 0;
nodes = (
(-124,2440,l),
(278,1400,l)
);
},
{
closed = 0;
nodes = (
(1662,2440,l),
(1260,1400,l)
);
},
{
closed = 0;
nodes = (
(946,2600,l),
(544,1400,l)
);
},
{
closed = 0;
nodes = (
(588,2600,l),
(990,1400,l)
);
},
{
closed = 0;
nodes = (
(222,2440,l),
(500,1508,l)
);
},
{
closed = 0;
nodes = (
(904,2440,l),
(1182,1508,l)
);
},
{
closed = 0;
nodes = (
(680,2404,l),
(312,1452,l)
);
},
{
closed = 0;
nodes = (
(1366,2404,l),
(998,1452,l)
);
},
{
closed = 0;
nodes = (
(292,1730,l),
(1256,1730,l)
);
},
{
closed = 0;
nodes = (
(428,1674,l),
(428,2450,l)
);
},
{
closed = 0;
nodes = (
(1108,1674,l),
(1108,2450,l)
);
},
{
closed = 0;
nodes = (
(766,1434,l),
(766,2210,l)
);
},
{
closed = 1;
nodes = (
(322,0,l),
(594,0,l),
(1036,1040,l),
(716,1040,l),
(422,202,l),
(500,202,l),
(206,1040,l),
(-120,1040,l)
);
},
{
closed = 1;
nodes = (
(1002,0,l),
(1274,0,l),
(1716,1040,l),
(1396,1040,l),
(1102,202,l),
(1180,202,l),
(886,1040,l),
(560,1040,l)
);
},
{
closed = 1;
nodes = (
(502,0,l),
(570,0,l),
(570,344,l),
(502,344,l)
);
},
{
closed = 1;
nodes = (
(782,694,l),
(850,694,l),
(850,1038,l),
(782,1038,l)
);
}
);
};
layerId = "1B5AC656-48C3-4864-953F-2CD31E7BA751";
shapes = (
{
closed = 1;
nodes = (
(608,0,l),
(764,592,ls),
(780,652,o),
(792,716,o),
(800,776,c),
(792,776,l),
(800,716,o),
(814,652,o),
(832,592,cs),
(1002,0,l),
(1294,0,l),
(1618,1040,l),
(1324,1040,l),
(1180,450,ls),
(1166,390,o),
(1152,324,o),
(1144,264,c),
(1152,264,l),
(1144,324,o),
(1130,392,o),
(1114,452,cs),
(952,1040,l),
(642,1040,l),
(490,452,ls),
(474,392,o),
(460,324,o),
(452,264,c),
(460,264,l),
(452,324,o),
(438,390,o),
(424,450,cs),
(290,1040,l),
(-26,1040,l),
(298,0,l)
);
}
);
width = 1592;
},
{
anchors = (
{
name = bottom;
pos = (796,0);
},
{
name = ogonek;
pos = (1294,0);
},
{
name = top;
pos = (796,1040);
}
);
background = {
shapes = (
{
closed = 1;
nodes = (
(280,2600,l),
(552,2600,l),
(994,3640,l),
(674,3640,l),
(380,2802,l),
(458,2802,l),
(164,3640,l),
(-162,3640,l)
);
},
{
closed = 1;
nodes = (
(994,2600,l),
(1266,2600,l),
(1708,3640,l),
(1388,3640,l),
(1094,2802,l),
(1172,2802,l),
(878,3640,l),
(552,3640,l)
);
},
{
closed = 0;
nodes = (
(332,2924,l),
(1256,2924,l)
);
},
{
closed = 0;
nodes = (
(-124,2440,l),
(278,1400,l)
);
},
{
closed = 0;
nodes = (
(1662,2440,l),
(1260,1400,l)
);
},
{
closed = 0;
nodes = (
(946,2600,l),
(544,1400,l)
);
},
{
closed = 0;
nodes = (
(588,2600,l),
(990,1400,l)
);
},
{
closed = 0;
nodes = (
(222,2440,l),
(500,1508,l)
);
},
{
closed = 0;
nodes = (
(904,2440,l),
(1182,1508,l)
);
},
{
closed = 0;
nodes = (
(680,2404,l),
(312,1452,l)
);
},
{
closed = 0;
nodes = (
(1366,2404,l),
(998,1452,l)
);
},
{
closed = 0;
nodes = (
(292,1730,l),
(1256,1730,l)
);
},
{
closed = 0;
nodes = (
(428,1674,l),
(428,2450,l)
);
},
{
closed = 0;
nodes = (
(1108,1674,l),
(1108,2450,l)
);
},
{
closed = 0;
nodes = (
(766,1434,l),
(766,2210,l)
);
},
{
closed = 1;
nodes = (
(322,0,l),
(594,0,l),
(1036,1040,l),
(716,1040,l),
(422,202,l),
(500,202,l),
(206,1040,l),
(-120,1040,l)
);
},
{
closed = 1;
nodes = (
(1002,0,l),
(1274,0,l),
(1716,1040,l),
(1396,1040,l),
(1102,202,l),
(1180,202,l),
(886,1040,l),
(560,1040,l)
);
},
{
closed = 1;
nodes = (
(502,0,l),
(570,0,l),
(570,344,l),
(502,344,l)
);
},
{
closed = 1;
nodes = (
(782,694,l),
(850,694,l),
(850,1038,l),
(782,1038,l)
);
}
);
};
layerId = "6B540EA0-879E-4877-ADBF-1E90C7170424";
shapes = (
{
closed = 1;
nodes = (
(608,0,l),
(764,592,ls),
(780,652,o),
(792,716,o),
(800,776,c),
(792,776,l),
(800,716,o),
(814,652,o),
(832,592,cs),
(1002,0,l),
(1294,0,l),
(1618,1040,l),
(1324,1040,l),
(1180,450,ls),
(1166,390,o),
(1152,324,o),
(1144,264,c),
(1152,264,l),
(1144,324,o),
(1130,392,o),
(1114,452,cs),
(952,1040,l),
(642,1040,l),
(490,452,ls),
(474,392,o),
(460,324,o),
(452,264,c),
(460,264,l),
(452,324,o),
(438,390,o),
(424,450,cs),
(290,1040,l),
(-26,1040,l),
(298,0,l)
);
}
);
width = 1592;
}
);
unicode = 119;
},
{
glyphname = x;
lastChange = "2022-04-29 18:10:09 +0000";
layers = (
{
anchors = (
{
name = bottom;
pos = (548,0);
},
{
name = ogonek;
pos = (1090,0);
},
{
name = top;
pos = (536,1040);
}
);
layerId = "1B5AC656-48C3-4864-953F-2CD31E7BA751";
shapes = (
{
closed = 1;
nodes = (
(302,0,l),
(568,376,l),
(506,376,l),
(762,0,l),
(1090,0,l),
(640,596,l),
(664,466,l),
(1070,1040,l),
(754,1040,l),
(498,654,l),
(570,654,l),
(322,1040,l),
(0,1040,l),
(408,466,l),
(426,596,l),
(-20,0,l)
);
}
);
width = 1070;
},
{
anchors = (
{
name = bottom;
pos = (548,0);
},
{
name = ogonek;
pos = (1090,0);
},
{
name = top;
pos = (536,1040);
}
);
layerId = "6B540EA0-879E-4877-ADBF-1E90C7170424";
shapes = (
{
closed = 1;
nodes = (
(302,0,l),
(568,376,l),
(506,376,l),
(762,0,l),
(1090,0,l),
(640,596,l),
(664,466,l),
(1070,1040,l),
(754,1040,l),
(498,654,l),
(570,654,l),
(322,1040,l),
(0,1040,l),
(408,466,l),
(426,596,l),
(-20,0,l)
);
}
);
width = 1070;
}
);
unicode = 120;
},
{
glyphname = y;
kernLeft = y;
kernRight = v;
lastChange = "2022-04-29 18:10:09 +0000";
layers = (
{
anchors = (
{
name = bottom;
pos = (828,0);
},
{
name = ogonek;
pos = (316,-400);
},
{
name = top;
pos = (534,1040);
},
{
name = top_hook;
pos = (536,918);
}
);
layerId = "1B5AC656-48C3-4864-953F-2CD31E7BA751";
shapes = (
{
closed = 1;
nodes = (
(430,-418,o),
(560,-276,o),
(648,-66,cs),
(1108,1040,l),
(788,1040,l),
(586,446,ls),
(566,388,o),
(548,318,o),
(538,258,c),
(546,258,l),
(536,318,o),
(518,388,o),
(498,446,cs),
(296,1040,l),
(-30,1040,l),
(428,-60,l),
(410,130,l),
(368,4,ls),
(338,-88,o),
(272,-154,o),
(168,-154,cs),
(124,-154,o),
(86,-150,o),
(46,-140,c),
(6,-398,l),
(60,-414,o),
(132,-418,o),
(186,-418,cs)
);
}
);
width = 1078;
},
{
anchors = (
{
name = bottom;
pos = (828,0);
},
{
name = ogonek;
pos = (316,-400);
},
{
name = top;
pos = (534,1040);
},
{
name = top_hook;
pos = (536,918);
}
);
layerId = "6B540EA0-879E-4877-ADBF-1E90C7170424";
shapes = (
{
closed = 1;
nodes = (
(430,-418,o),
(560,-276,o),
(648,-66,cs),
(1108,1040,l),
(788,1040,l),
(586,446,ls),
(566,388,o),
(548,318,o),
(538,258,c),
(546,258,l),
(536,318,o),
(518,388,o),
(498,446,cs),
(296,1040,l),
(-30,1040,l),
(428,-60,l),
(410,130,l),
(368,4,ls),
(338,-88,o),
(272,-154,o),
(168,-154,cs),
(124,-154,o),
(86,-150,o),
(46,-140,c),
(6,-398,l),
(60,-414,o),
(132,-418,o),
(186,-418,cs)
);
}
);
width = 1078;
}
);
unicode = 121;
},
{
glyphname = z;
kernLeft = z;
kernRight = z;
lastChange = "2022-04-29 18:10:09 +0000";
layers = (
{
anchors = (
{
name = bottom;
pos = (500,0);
},
{
name = ogonek;
pos = (936,0);
},
{
name = top;
pos = (500,1040);
}
);
background = {
shapes = (
{
closed = 1;
nodes = (
(936,0,l),
(936,230,l),
(346,230,l),
(422,176,l),
(454,210,o),
(478,246,o),
(500,282,cs),
(946,1010,l),
(946,1040,l),
(50,1040,l),
(50,810,l),
(724,810,l),
(548,852,l),
(516,818,o),
(492,782,o),
(470,746,cs),
(28,30,l),
(28,0,l)
);
}
);
};
layerId = "1B5AC656-48C3-4864-953F-2CD31E7BA751";
shapes = (
{
closed = 1;
nodes = (
(936,0,l),
(936,224,l),
(332,224,l),
(398,170,l),
(432,204,o),
(464,240,o),
(486,276,cs),
(946,1010,l),
(946,1040,l),
(50,1040,l),
(50,816,l),
(738,816,l),
(572,858,l),
(538,824,o),
(506,788,o),
(484,752,cs),
(28,30,l),
(28,0,l)
);
}
);
width = 982;
},
{
anchors = (
{
name = bottom;
pos = (500,0);
},
{
name = ogonek;
pos = (936,0);
},
{
name = top;
pos = (500,1040);
}
);
background = {
shapes = (
{
closed = 1;
nodes = (
(936,0,l),
(936,230,l),
(346,230,l),
(422,176,l),
(454,210,o),
(478,246,o),
(500,282,cs),
(946,1010,l),
(946,1040,l),
(50,1040,l),
(50,810,l),
(724,810,l),
(548,852,l),
(516,818,o),
(492,782,o),
(470,746,cs),
(28,30,l),
(28,0,l)
);
}
);
};
layerId = "6B540EA0-879E-4877-ADBF-1E90C7170424";
shapes = (
{
closed = 1;
nodes = (
(936,0,l),
(936,224,l),
(332,224,l),
(398,170,l),
(432,204,o),
(464,240,o),
(486,276,cs),
(946,1010,l),
(946,1040,l),
(50,1040,l),
(50,816,l),
(738,816,l),
(572,858,l),
(538,824,o),
(506,788,o),
(484,752,cs),
(28,30,l),
(28,0,l)
);
}
);
width = 982;
}
);
unicode = 122;
},
{
glyphname = c.ss01;
kernLeft = o;
kernRight = c.ss01;
lastChange = "2022-04-29 18:10:09 +0000";
layers = (
{
anchors = (
{
name = bottom;
pos = (598,0);
},
{
name = ogonek;
pos = (776,0);
},
{
name = top;
pos = (572,1040);
}
);
layerId = "1B5AC656-48C3-4864-953F-2CD31E7BA751";
shapes = (
{
closed = 1;
nodes = (
(680,-28,o),
(758,-12,o),
(826,16,c),
(836,304,l),
(776,246,o),
(698,218,o),
(598,218,cs),
(426,218,o),
(314,354,o),
(314,516,cs),
(314,678,o),
(426,814,o),
(598,814,cs),
(698,814,o),
(784,778,o),
(826,742,c),
(826,1016,l),
(758,1044,o),
(680,1060,o),
(598,1060,cs),
(276,1060,o),
(40,816,o),
(40,516,cs),
(40,216,o),
(276,-28,o),
(598,-28,cs)
);
}
);
width = 880;
},
{
anchors = (
{
name = bottom;
pos = (598,0);
},
{
name = ogonek;
pos = (776,0);
},
{
name = top;
pos = (572,1040);
}
);
layerId = "6B540EA0-879E-4877-ADBF-1E90C7170424";
shapes = (
{
closed = 1;
nodes = (
(680,-28,o),
(758,-12,o),
(826,16,c),
(836,304,l),
(776,246,o),
(698,218,o),
(598,218,cs),
(426,218,o),
(314,354,o),
(314,516,cs),
(314,678,o),
(426,814,o),
(598,814,cs),
(698,814,o),
(784,778,o),
(826,742,c),
(826,1016,l),
(758,1044,o),
(680,1060,o),
(598,1060,cs),
(276,1060,o),
(40,816,o),
(40,516,cs),
(40,216,o),
(276,-28,o),
(598,-28,cs)
);
}
);
width = 880;
}
);
metricLeft = o;
},
{
glyphname = j.ss01;
kernLeft = i;
kernRight = i;
lastChange = "2022-04-29 18:10:09 +0000";
layers = (
{
background = {
shapes = (
{
closed = 1;
nodes = (
(356,-400,l),
(356,1040,l),
(86,1040,l),
(86,-400,l)
);
}
);
};
layerId = "1B5AC656-48C3-4864-953F-2CD31E7BA751";
shapes = (
{
ref = jdotless.ss01;
},
{
alignment = -1;
ref = tittle;
}
);
width = 430;
},
{
background = {
shapes = (
{
closed = 1;
nodes = (
(356,-400,l),
(356,1040,l),
(86,1040,l),
(86,-400,l)
);
}
);
};
layerId = "6B540EA0-879E-4877-ADBF-1E90C7170424";
shapes = (
{
ref = jdotless.ss01;
},
{
alignment = -1;
ref = tittle;
}
);
width = 430;
}
);
},
{
glyphname = jdotless.ss01;
kernLeft = i;
kernRight = u;
lastChange = "2022-04-29 18:10:09 +0000";
layers = (
{
anchors = (
{
name = bottom;
pos = (212,-400);
},
{
name = ogonek;
pos = (350,-400);
},
{
name = top;
pos = (214,1040);
}
);
layerId = "1B5AC656-48C3-4864-953F-2CD31E7BA751";
shapes = (
{
closed = 1;
nodes = (
(350,-400,l),
(350,1040,l),
(80,1040,l),
(80,-400,l)
);
}
);
width = 430;
},
{
anchors = (
{
name = bottom;
pos = (212,-400);
},
{
name = ogonek;
pos = (350,-400);
},
{
name = top;
pos = (214,1040);
}
);
layerId = "6B540EA0-879E-4877-ADBF-1E90C7170424";
shapes = (
{
closed = 1;
nodes = (
(350,-400,l),
(350,1040,l),
(80,1040,l),
(80,-400,l)
);
}
);
width = 430;
}
);
metricLeft = p;
metricRight = u;
},
{
glyphname = t.ss01;
kernLeft = f;
kernRight = t.ss01;
lastChange = "2022-04-29 18:10:09 +0000";
layers = (
{
anchors = (
{
name = bottom;
pos = (312,0);
},
{
name = center;
pos = (446,552);
},
{
name = ogonek;
pos = (446,0);
},
{
name = top;
pos = (312,1280);
},
{
name = topright;
pos = (550,1480);
}
);
layerId = "1B5AC656-48C3-4864-953F-2CD31E7BA751";
shapes = (
{
closed = 1;
nodes = (
(446,0,l),
(446,1280,l),
(176,1280,l),
(176,0,l)
);
},
{
closed = 1;
nodes = (
(646,810,l),
(646,1040,l),
(10,1040,l),
(10,810,l)
);
}
);
width = 656;
},
{
anchors = (
{
name = bottom;
pos = (312,0);
},
{
name = center;
pos = (446,552);
},
{
name = ogonek;
pos = (446,0);
},
{
name = top;
pos = (312,1280);
},
{
name = topright;
pos = (550,1480);
}
);
layerId = "6B540EA0-879E-4877-ADBF-1E90C7170424";
shapes = (
{
closed = 1;
nodes = (
(446,0,l),
(446,1280,l),
(176,1280,l),
(176,0,l)
);
},
{
closed = 1;
nodes = (
(646,810,l),
(646,1040,l),
(10,1040,l),
(10,810,l)
);
}
);
width = 656;
}
);
},
{
glyphname = u.ss01;
kernLeft = u;
kernRight = u.ss01;
lastChange = "2022-04-29 18:10:09 +0000";
layers = (
{
anchors = (
{
name = bottom;
pos = (550,0);
},
{
name = ogonek;
pos = (626,44);
},
{
name = top;
pos = (540,1040);
},
{
name = "top right";
pos = (976,1040);
}
);
background = {
shapes = (
{
closed = 1;
nodes = (
(668,-24,o),
(768,80,o),
(800,284,c),
(758,470,l),
(758,296,o),
(650,212,o),
(540,212,cs),
(406,212,o),
(334,290,o),
(334,470,cs),
(334,1040,l),
(64,1040,l),
(64,404,ls),
(64,142,o),
(236,-24,o),
(460,-24,cs)
);
},
{
closed = 1;
nodes = (
(1028,0,l),
(1028,1040,l),
(758,1040,l),
(758,0,l)
);
}
);
};
layerId = "1B5AC656-48C3-4864-953F-2CD31E7BA751";
shapes = (
{
closed = 1;
nodes = (
(856,-24,o),
(1022,142,o),
(1022,404,cs),
(1022,1040,l),
(752,1040,l),
(752,470,ls),
(752,290,o),
(692,212,o),
(554,212,cs),
(422,212,o),
(340,290,o),
(340,470,cs),
(340,1040,l),
(70,1040,l),
(70,404,ls),
(70,142,o),
(248,-24,o),
(550,-24,cs)
);
}
);
width = 1092;
},
{
anchors = (
{
name = bottom;
pos = (550,0);
},
{
name = ogonek;
pos = (626,44);
},
{
name = top;
pos = (540,1040);
},
{
name = "top right";
pos = (976,1040);
}
);
background = {
shapes = (
{
closed = 1;
nodes = (
(668,-24,o),
(768,80,o),
(800,284,c),
(758,470,l),
(758,296,o),
(650,212,o),
(540,212,cs),
(406,212,o),
(334,290,o),
(334,470,cs),
(334,1040,l),
(64,1040,l),
(64,404,ls),
(64,142,o),
(236,-24,o),
(460,-24,cs)
);
},
{
closed = 1;
nodes = (
(1028,0,l),
(1028,1040,l),
(758,1040,l),
(758,0,l)
);
}
);
};
layerId = "6B540EA0-879E-4877-ADBF-1E90C7170424";
shapes = (
{
closed = 1;
nodes = (
(856,-24,o),
(1022,142,o),
(1022,404,cs),
(1022,1040,l),
(752,1040,l),
(752,470,ls),
(752,290,o),
(692,212,o),
(554,212,cs),
(422,212,o),
(340,290,o),
(340,470,cs),
(340,1040,l),
(70,1040,l),
(70,404,ls),
(70,142,o),
(248,-24,o),
(550,-24,cs)
);
}
);
width = 1092;
}
);
metricLeft = "=|n";
metricRight = n;
},
{
glyphname = uogonek.ss01;
kernLeft = u;
kernRight = u.ss01;
lastChange = "2022-04-29 18:10:09 +0000";
layers = (
{
background = {
shapes = (
{
closed = 1;
nodes = (
(490,-326,o),
(630,-464,o),
(858,-412,c),
(858,-242,l),
(752,-278,o),
(676,-220,o),
(676,-132,cs),
(676,-66,o),
(698,-18,o),
(774,14,c),
(730,38,l),
(654,10,l),
(562,-18,o),
(490,-86,o),
(490,-190,cs)
);
}
);
};
layerId = "1B5AC656-48C3-4864-953F-2CD31E7BA751";
shapes = (
{
ref = u.ss01;
},
{
pos = (626,44);
ref = ogonekcomb;
scale = (1,1.1);
}
);
width = 1092;
},
{
background = {
shapes = (
{
closed = 1;
nodes = (
(490,-326,o),
(630,-464,o),
(858,-412,c),
(858,-242,l),
(752,-278,o),
(676,-220,o),
(676,-132,cs),
(676,-66,o),
(698,-18,o),
(774,14,c),
(730,38,l),
(654,10,l),
(562,-18,o),
(490,-86,o),
(490,-190,cs)
);
}
);
};
layerId = "6B540EA0-879E-4877-ADBF-1E90C7170424";
shapes = (
{
ref = u.ss01;
},
{
pos = (626,44);
ref = ogonekcomb;
scale = (1,1.1);
}
);
width = 1092;
}
);
},
{
export = 0;
glyphname = eth.alt2;
kernLeft = o;
kernRight = b;
lastChange = "2022-04-29 18:10:09 +0000";
layers = (
{
background = {
shapes = (
{
closed = 1;
nodes = (
(846,-26,o),
(1058,196,o),
(1058,470,cs),
(1058,744,o),
(846,966,o),
(554,966,cs),
(260,966,o),
(48,744,o),
(48,470,cs),
(48,196,o),
(260,-26,o),
(554,-26,cs)
);
},
{
closed = 1;
nodes = (
(402,206,o),
(302,328,o),
(302,470,cs),
(302,614,o),
(402,736,o),
(554,736,cs),
(704,736,o),
(804,614,o),
(804,470,cs),
(804,328,o),
(706,206,o),
(554,206,cs)
);
}
);
};
layerId = "1B5AC656-48C3-4864-953F-2CD31E7BA751";
shapes = (
{
closed = 1;
nodes = (
(854,-26,o),
(1080,174,o),
(1080,586,cs),
(1078,1116,o),
(752,1388,o),
(276,1488,c),
(200,1260,l),
(606,1194,o),
(798,1026,o),
(812,684,c),
(816,750,l),
(778,858,o),
(678,952,o),
(484,952,cs),
(266,952,o),
(40,744,o),
(40,470,cs),
(40,196,o),
(252,-26,o),
(554,-26,cs)
);
},
{
closed = 1;
nodes = (
(412,236,o),
(322,344,o),
(322,470,cs),
(322,598,o),
(412,706,o),
(554,706,cs),
(694,706,o),
(784,598,o),
(784,470,cs),
(784,344,o),
(696,236,o),
(554,236,cs)
);
},
{
closed = 1;
nodes = (
(1038,1168,l),
(978,1358,l),
(648,1268,l),
(538,1196,l),
(286,1152,l),
(348,976,l)
);
}
);
width = 1120;
},
{
background = {
shapes = (
{
closed = 1;
nodes = (
(846,-26,o),
(1058,196,o),
(1058,470,cs),
(1058,744,o),
(846,966,o),
(554,966,cs),
(260,966,o),
(48,744,o),
(48,470,cs),
(48,196,o),
(260,-26,o),
(554,-26,cs)
);
},
{
closed = 1;
nodes = (
(402,206,o),
(302,328,o),
(302,470,cs),
(302,614,o),
(402,736,o),
(554,736,cs),
(704,736,o),
(804,614,o),
(804,470,cs),
(804,328,o),
(706,206,o),
(554,206,cs)
);
}
);
};
layerId = "6B540EA0-879E-4877-ADBF-1E90C7170424";
shapes = (
{
closed = 1;
nodes = (
(854,-26,o),
(1080,174,o),
(1080,586,cs),
(1078,1116,o),
(752,1388,o),
(276,1488,c),
(200,1260,l),
(606,1194,o),
(798,1026,o),
(812,684,c),
(816,750,l),
(778,858,o),
(678,952,o),
(484,952,cs),
(266,952,o),
(40,744,o),
(40,470,cs),
(40,196,o),
(252,-26,o),
(554,-26,cs)
);
},
{
closed = 1;
nodes = (
(412,236,o),
(322,344,o),
(322,470,cs),
(322,598,o),
(412,706,o),
(554,706,cs),
(694,706,o),
(784,598,o),
(784,470,cs),
(784,344,o),
(696,236,o),
(554,236,cs)
);
},
{
closed = 1;
nodes = (
(1038,1168,l),
(978,1358,l),
(648,1268,l),
(538,1196,l),
(286,1152,l),
(348,976,l)
);
}
);
width = 1120;
}
);
metricLeft = c;
metricRight = b;
},
{
export = 0;
glyphname = ae.ss02;
kernLeft = ae;
kernRight = e;
lastChange = "2022-04-29 18:10:09 +0000";
layers = (
{
background = {
shapes = (
{
closed = 1;
nodes = (
(-1100,1976,o),
(-926,2066,o),
(-842,2196,c),
(-1056,2354,l),
(-1100,2274,o),
(-1190,2220,o),
(-1316,2220,cs),
(-1476,2220,o),
(-1566,2318,o),
(-1584,2458,c),
(-1596,2518,l),
(-1606,2698,o),
(-1492,2834,o),
(-1320,2834,cs),
(-1138,2834,o),
(-1026,2676,o),
(-1042,2518,c),
(-974,2640,l),
(-1694,2640,l),
(-1694,2420,l),
(-786,2420,l),
(-780,2454,o),
(-778,2488,o),
(-778,2518,cs),
(-778,2818,o),
(-994,3064,o),
(-1296,3064,cs),
(-1656,3064,o),
(-1688,2798,o),
(-1744,2518,c),
(-1688,2238,o),
(-1656,1976,o),
(-1296,1976,cs)
);
},
{
closed = 1;
nodes = (
(-1908,1974,o),
(-1876,2236,o),
(-1820,2516,c),
(-1876,2796,o),
(-1908,3062,o),
(-2248,3062,cs),
(-2534,3062,o),
(-2762,2816,o),
(-2762,2516,cs),
(-2762,2216,o),
(-2534,1974,o),
(-2248,1974,cs)
);
},
{
closed = 1;
nodes = (
(-2376,2218,o),
(-2488,2360,o),
(-2488,2518,cs),
(-2488,2680,o),
(-2376,2818,o),
(-2204,2818,cs),
(-2026,2818,o),
(-1912,2678,o),
(-1912,2516,cs),
(-1912,2354,o),
(-2026,2218,o),
(-2204,2218,cs)
);
},
{
closed = 1;
nodes = (
(-1650,2000,l),
(-1650,3040,l),
(-1920,3040,l),
(-1920,2742,l),
(-1900,2516,l),
(-1912,2266,l),
(-1912,2000,l)
);
},
{
closed = 1;
nodes = (
(-1908,3374,o),
(-1876,3636,o),
(-1820,3916,c),
(-1876,4196,o),
(-1908,4462,o),
(-2248,4462,cs),
(-2534,4462,o),
(-2762,4216,o),
(-2762,3916,cs),
(-2762,3616,o),
(-2534,3374,o),
(-2248,3374,cs)
);
},
{
closed = 1;
nodes = (
(-2376,3618,o),
(-2488,3760,o),
(-2488,3918,cs),
(-2488,4080,o),
(-2376,4218,o),
(-2204,4218,cs),
(-2026,4218,o),
(-1912,4078,o),
(-1912,3916,cs),
(-1912,3754,o),
(-2026,3618,o),
(-2204,3618,cs)
);
},
{
closed = 1;
nodes = (
(-1650,3400,l),
(-1650,4440,l),
(-1920,4440,l),
(-1920,4142,l),
(-1900,3916,l),
(-1912,3666,l),
(-1912,3400,l)
);
},
{
closed = 1;
nodes = (
(748,1974,o),
(984,2218,o),
(984,2520,cs),
(984,2822,o),
(748,3066,o),
(426,3066,cs),
(252,3066,o),
(102,2994,o),
(2,2880,c),
(208,2710,l),
(260,2774,o),
(330,2820,o),
(426,2820,cs),
(598,2820,o),
(714,2682,o),
(714,2520,cs),
(714,2358,o),
(598,2220,o),
(426,2220,cs),
(322,2220,o),
(250,2276,o),
(196,2348,c),
(-6,2170,l),
(94,2050,o),
(246,1974,o),
(426,1974,cs)
);
},
{
closed = 1;
nodes = (
(1428,1974,o),
(1602,2066,o),
(1686,2196,c),
(1476,2354,l),
(1428,2274,o),
(1338,2214,o),
(1222,2214,cs),
(1072,2214,o),
(976,2318,o),
(958,2458,c),
(956,2518,l),
(946,2698,o),
(1056,2834,o),
(1218,2834,cs),
(1390,2834,o),
(1502,2676,o),
(1486,2518,c),
(1554,2624,l),
(854,2624,l),
(854,2422,l),
(1742,2422,l),
(1748,2456,o),
(1750,2488,o),
(1750,2518,cs),
(1750,2818,o),
(1534,3066,o),
(1222,3066,cs),
(910,3066,o),
(684,2818,o),
(684,2518,cs),
(684,2218,o),
(900,1974,o),
(1222,1974,cs)
);
},
{
closed = 1;
nodes = (
(760,1974,o),
(976,2218,o),
(976,2518,cs),
(976,2818,o),
(750,3066,o),
(438,3066,cs),
(126,3066,o),
(-90,2818,o),
(-90,2518,cs),
(-90,2488,o),
(-88,2456,o),
(-82,2422,c),
(806,2422,l),
(806,2624,l),
(106,2624,l),
(174,2518,l),
(158,2676,o),
(270,2834,o),
(442,2834,cs),
(604,2834,o),
(714,2698,o),
(704,2518,c),
(702,2458,l),
(684,2318,o),
(588,2214,o),
(438,2214,cs),
(322,2214,o),
(232,2274,o),
(184,2354,c),
(-26,2196,l),
(58,2066,o),
(232,1974,o),
(438,1974,cs)
);
},
{
closed = 1;
nodes = (
(710,734,o),
(624,834,o),
(462,834,cs),
(360,834,o),
(262,794,o),
(224,722,c),
(40,878,l),
(136,990,o),
(258,1064,o),
(444,1064,cs),
(648,1064,o),
(868,964,o),
(858,676,c),
(856,264,l),
(810,52,o),
(602,-24,o),
(416,-26,cs),
(180,-30,o),
(22,86,o),
(22,298,cs),
(22,452,o),
(104,616,o),
(518,616,cs),
(1558,616,l),
(1490,518,l),
(1504,686,o),
(1394,834,o),
(1202,834,cs),
(1044,834,o),
(928,734,o),
(932,612,cs),
(938,420,l),
(948,318,o),
(1056,220,o),
(1216,220,cs),
(1342,220,o),
(1432,274,o),
(1476,354,c),
(1690,196,l),
(1606,66,o),
(1432,-24,o),
(1230,-24,cs),
(1036,-24,o),
(838,52,o),
(774,264,c),
(776,676,l),
(776,964,o),
(1000,1064,o),
(1210,1064,cs),
(1538,1064,o),
(1754,822,o),
(1754,522,cs),
(1754,492,o),
(1752,458,o),
(1746,426,c),
(502,426,ls),
(316,426,o),
(280,356,o),
(280,300,cs),
(280,230,o),
(336,182,o),
(456,182,cs),
(606,182,o),
(710,258,o),
(710,416,cs),
(710,612,ls)
);
}
);
};
layerId = "1B5AC656-48C3-4864-953F-2CD31E7BA751";
shapes = (
{
closed = 1;
nodes = (
(628,-14,o),
(810,66,o),
(856,264,c),
(852,718,l),
(862,966,o),
(648,1064,o),
(444,1064,cs),
(258,1064,o),
(136,990,o),
(40,878,c),
(224,722,l),
(262,794,o),
(360,834,o),
(462,834,cs),
(624,834,o),
(710,734,o),
(710,612,cs),
(710,428,ls),
(710,262,o),
(596,182,o),
(468,182,cs),
(390,182,o),
(288,214,o),
(288,308,cs),
(288,362,o),
(324,426,o),
(444,426,cs),
(1746,426,l),
(1752,458,o),
(1754,492,o),
(1754,522,cs),
(1754,822,o),
(1538,1064,o),
(1210,1064,cs),
(1000,1064,o),
(770,966,o),
(770,718,cs),
(774,264,l),
(838,52,o),
(1036,-24,o),
(1230,-24,cs),
(1432,-24,o),
(1606,66,o),
(1690,196,c),
(1476,354,l),
(1432,274,o),
(1342,220,o),
(1216,220,cs),
(1056,220,o),
(948,318,o),
(938,428,c),
(932,612,ls),
(928,734,o),
(1046,834,o),
(1202,834,cs),
(1394,834,o),
(1504,686,o),
(1490,518,c),
(1558,616,l),
(428,616,ls),
(112,616,o),
(30,450,o),
(30,304,cs),
(30,46,o),
(282,-36,o),
(468,-24,cs)
);
}
);
width = 1792;
},
{
background = {
shapes = (
{
closed = 1;
nodes = (
(-1100,1976,o),
(-926,2066,o),
(-842,2196,c),
(-1056,2354,l),
(-1100,2274,o),
(-1190,2220,o),
(-1316,2220,cs),
(-1476,2220,o),
(-1566,2318,o),
(-1584,2458,c),
(-1596,2518,l),
(-1606,2698,o),
(-1492,2834,o),
(-1320,2834,cs),
(-1138,2834,o),
(-1026,2676,o),
(-1042,2518,c),
(-974,2640,l),
(-1694,2640,l),
(-1694,2420,l),
(-786,2420,l),
(-780,2454,o),
(-778,2488,o),
(-778,2518,cs),
(-778,2818,o),
(-994,3064,o),
(-1296,3064,cs),
(-1656,3064,o),
(-1688,2798,o),
(-1744,2518,c),
(-1688,2238,o),
(-1656,1976,o),
(-1296,1976,cs)
);
},
{
closed = 1;
nodes = (
(-1908,1974,o),
(-1876,2236,o),
(-1820,2516,c),
(-1876,2796,o),
(-1908,3062,o),
(-2248,3062,cs),
(-2534,3062,o),
(-2762,2816,o),
(-2762,2516,cs),
(-2762,2216,o),
(-2534,1974,o),
(-2248,1974,cs)
);
},
{
closed = 1;
nodes = (
(-2376,2218,o),
(-2488,2360,o),
(-2488,2518,cs),
(-2488,2680,o),
(-2376,2818,o),
(-2204,2818,cs),
(-2026,2818,o),
(-1912,2678,o),
(-1912,2516,cs),
(-1912,2354,o),
(-2026,2218,o),
(-2204,2218,cs)
);
},
{
closed = 1;
nodes = (
(-1650,2000,l),
(-1650,3040,l),
(-1920,3040,l),
(-1920,2742,l),
(-1900,2516,l),
(-1912,2266,l),
(-1912,2000,l)
);
},
{
closed = 1;
nodes = (
(-1908,3374,o),
(-1876,3636,o),
(-1820,3916,c),
(-1876,4196,o),
(-1908,4462,o),
(-2248,4462,cs),
(-2534,4462,o),
(-2762,4216,o),
(-2762,3916,cs),
(-2762,3616,o),
(-2534,3374,o),
(-2248,3374,cs)
);
},
{
closed = 1;
nodes = (
(-2376,3618,o),
(-2488,3760,o),
(-2488,3918,cs),
(-2488,4080,o),
(-2376,4218,o),
(-2204,4218,cs),
(-2026,4218,o),
(-1912,4078,o),
(-1912,3916,cs),
(-1912,3754,o),
(-2026,3618,o),
(-2204,3618,cs)
);
},
{
closed = 1;
nodes = (
(-1650,3400,l),
(-1650,4440,l),
(-1920,4440,l),
(-1920,4142,l),
(-1900,3916,l),
(-1912,3666,l),
(-1912,3400,l)
);
},
{
closed = 1;
nodes = (
(748,1974,o),
(984,2218,o),
(984,2520,cs),
(984,2822,o),
(748,3066,o),
(426,3066,cs),
(252,3066,o),
(102,2994,o),
(2,2880,c),
(208,2710,l),
(260,2774,o),
(330,2820,o),
(426,2820,cs),
(598,2820,o),
(714,2682,o),
(714,2520,cs),
(714,2358,o),
(598,2220,o),
(426,2220,cs),
(322,2220,o),
(250,2276,o),
(196,2348,c),
(-6,2170,l),
(94,2050,o),
(246,1974,o),
(426,1974,cs)
);
},
{
closed = 1;
nodes = (
(1428,1974,o),
(1602,2066,o),
(1686,2196,c),
(1476,2354,l),
(1428,2274,o),
(1338,2214,o),
(1222,2214,cs),
(1072,2214,o),
(976,2318,o),
(958,2458,c),
(956,2518,l),
(946,2698,o),
(1056,2834,o),
(1218,2834,cs),
(1390,2834,o),
(1502,2676,o),
(1486,2518,c),
(1554,2624,l),
(854,2624,l),
(854,2422,l),
(1742,2422,l),
(1748,2456,o),
(1750,2488,o),
(1750,2518,cs),
(1750,2818,o),
(1534,3066,o),
(1222,3066,cs),
(910,3066,o),
(684,2818,o),
(684,2518,cs),
(684,2218,o),
(900,1974,o),
(1222,1974,cs)
);
},
{
closed = 1;
nodes = (
(760,1974,o),
(976,2218,o),
(976,2518,cs),
(976,2818,o),
(750,3066,o),
(438,3066,cs),
(126,3066,o),
(-90,2818,o),
(-90,2518,cs),
(-90,2488,o),
(-88,2456,o),
(-82,2422,c),
(806,2422,l),
(806,2624,l),
(106,2624,l),
(174,2518,l),
(158,2676,o),
(270,2834,o),
(442,2834,cs),
(604,2834,o),
(714,2698,o),
(704,2518,c),
(702,2458,l),
(684,2318,o),
(588,2214,o),
(438,2214,cs),
(322,2214,o),
(232,2274,o),
(184,2354,c),
(-26,2196,l),
(58,2066,o),
(232,1974,o),
(438,1974,cs)
);
},
{
closed = 1;
nodes = (
(710,734,o),
(624,834,o),
(462,834,cs),
(360,834,o),
(262,794,o),
(224,722,c),
(40,878,l),
(136,990,o),
(258,1064,o),
(444,1064,cs),
(648,1064,o),
(868,964,o),
(858,676,c),
(856,264,l),
(810,52,o),
(602,-24,o),
(416,-26,cs),
(180,-30,o),
(22,86,o),
(22,298,cs),
(22,452,o),
(104,616,o),
(518,616,cs),
(1558,616,l),
(1490,518,l),
(1504,686,o),
(1394,834,o),
(1202,834,cs),
(1044,834,o),
(928,734,o),
(932,612,cs),
(938,420,l),
(948,318,o),
(1056,220,o),
(1216,220,cs),
(1342,220,o),
(1432,274,o),
(1476,354,c),
(1690,196,l),
(1606,66,o),
(1432,-24,o),
(1230,-24,cs),
(1036,-24,o),
(838,52,o),
(774,264,c),
(776,676,l),
(776,964,o),
(1000,1064,o),
(1210,1064,cs),
(1538,1064,o),
(1754,822,o),
(1754,522,cs),
(1754,492,o),
(1752,458,o),
(1746,426,c),
(502,426,ls),
(316,426,o),
(280,356,o),
(280,300,cs),
(280,230,o),
(336,182,o),
(456,182,cs),
(606,182,o),
(710,258,o),
(710,416,cs),
(710,612,ls)
);
}
);
};
layerId = "6B540EA0-879E-4877-ADBF-1E90C7170424";
shapes = (
{
closed = 1;
nodes = (
(628,-14,o),
(810,66,o),
(856,264,c),
(852,718,l),
(862,966,o),
(648,1064,o),
(444,1064,cs),
(258,1064,o),
(136,990,o),
(40,878,c),
(224,722,l),
(262,794,o),
(360,834,o),
(462,834,cs),
(624,834,o),
(710,734,o),
(710,612,cs),
(710,428,ls),
(710,262,o),
(596,182,o),
(468,182,cs),
(390,182,o),
(288,214,o),
(288,308,cs),
(288,362,o),
(324,426,o),
(444,426,cs),
(1746,426,l),
(1752,458,o),
(1754,492,o),
(1754,522,cs),
(1754,822,o),
(1538,1064,o),
(1210,1064,cs),
(1000,1064,o),
(770,966,o),
(770,718,cs),
(774,264,l),
(838,52,o),
(1036,-24,o),
(1230,-24,cs),
(1432,-24,o),
(1606,66,o),
(1690,196,c),
(1476,354,l),
(1432,274,o),
(1342,220,o),
(1216,220,cs),
(1056,220,o),
(948,318,o),
(938,428,c),
(932,612,ls),
(928,734,o),
(1046,834,o),
(1202,834,cs),
(1394,834,o),
(1504,686,o),
(1490,518,c),
(1558,616,l),
(428,616,ls),
(112,616,o),
(30,450,o),
(30,304,cs),
(30,46,o),
(282,-36,o),
(468,-24,cs)
);
}
);
width = 1792;
}
);
metricRight = e;
},
{
export = 0;
glyphname = a.ss09;
lastChange = "2022-04-29 18:10:09 +0000";
layers = (
{
background = {
shapes = (
{
closed = 1;
nodes = (
(954,-26,o),
(1040,104,o),
(1090,280,c),
(1050,280,l),
(1050,0,l),
(1312,0,l),
(1312,1040,l),
(1044,1040,l),
(1044,752,l),
(1090,752,l),
(1040,930,o),
(954,1062,o),
(714,1062,cs),
(428,1062,o),
(200,816,o),
(200,516,cs),
(200,216,o),
(428,-26,o),
(714,-26,cs)
);
},
{
closed = 1;
nodes = (
(4208,-26,o),
(4294,104,o),
(4344,280,c),
(4304,280,l),
(4304,0,l),
(4566,0,l),
(4566,1040,l),
(4298,1040,l),
(4298,752,l),
(4344,752,l),
(4294,930,o),
(4208,1062,o),
(3968,1062,cs),
(3682,1062,o),
(3454,816,o),
(3454,516,cs),
(3454,216,o),
(3682,-26,o),
(3968,-26,cs)
);
},
{
closed = 1;
nodes = (
(3840,218,o),
(3724,360,o),
(3724,518,cs),
(3724,680,o),
(3840,818,o),
(4012,818,cs),
(4190,818,o),
(4304,678,o),
(4304,516,cs),
(4304,354,o),
(4190,218,o),
(4012,218,cs)
);
},
{
closed = 1;
nodes = (
(2538,-1226,o),
(2662,-1056,o),
(2690,-900,c),
(2662,-900,l),
(2662,-1200,l),
(2916,-1200,l),
(2916,-160,l),
(2656,-160,l),
(2656,-508,l),
(2690,-468,l),
(2662,-310,o),
(2538,-138,o),
(2314,-138,cs),
(2028,-138,o),
(1800,-384,o),
(1800,-684,cs),
(1800,-984,o),
(2028,-1226,o),
(2314,-1226,cs)
);
},
{
closed = 1;
nodes = (
(2180,-992,o),
(2062,-844,o),
(2062,-682,cs),
(2062,-516,o),
(2180,-372,o),
(2358,-372,cs),
(2542,-372,o),
(2664,-518,o),
(2664,-684,cs),
(2664,-850,o),
(2540,-992,o),
(2358,-992,cs)
);
},
{
closed = 1;
nodes = (
(1024,-1226,o),
(1106,-1026,o),
(1130,-900,c),
(1134,-900,l),
(1128,-1200,l),
(1218,-1200,l),
(1218,-200,l),
(1122,-200,l),
(1128,-508,l),
(1124,-508,l),
(1112,-380,o),
(1024,-178,o),
(714,-178,cs),
(428,-178,o),
(192,-424,o),
(192,-704,cs),
(192,-984,o),
(428,-1226,o),
(714,-1226,cs)
);
},
{
closed = 1;
nodes = (
(458,-1138,o),
(288,-922,o),
(288,-702,cs),
(288,-478,o),
(458,-266,o),
(720,-266,cs),
(988,-266,o),
(1130,-480,o),
(1130,-704,cs),
(1130,-950,o),
(986,-1138,o),
(720,-1138,cs)
);
},
{
closed = 1;
nodes = (
(4162,-1226,o),
(4260,-1096,o),
(4310,-940,c),
(4258,-900,l),
(4258,-1200,l),
(4674,-1200,l),
(4674,-120,l),
(4252,-120,l),
(4252,-508,l),
(4310,-388,l),
(4260,-230,o),
(4162,-98,o),
(3934,-98,cs),
(3648,-98,o),
(3440,-344,o),
(3440,-664,cs),
(3440,-964,o),
(3648,-1226,o),
(3934,-1226,cs)
);
},
{
closed = 1;
nodes = (
(3938,-874,o),
(3858,-770,o),
(3858,-662,cs),
(3858,-534,o),
(3938,-450,o),
(4056,-450,cs),
(4176,-450,o),
(4264,-536,o),
(4264,-664,cs),
(4264,-770,o),
(4176,-874,o),
(4056,-874,cs)
);
}
);
};
layerId = "1B5AC656-48C3-4864-953F-2CD31E7BA751";
shapes = (
{
closed = 1;
nodes = (
(4142,-726,o),
(4240,-608,o),
(4268,-440,c),
(4270,-440,l),
(4258,-700,l),
(4674,-700,l),
(4674,380,l),
(4252,380,l),
(4264,112,l),
(4262,112,l),
(4234,282,o),
(4138,402,o),
(3934,402,cs),
(3648,402,o),
(3440,156,o),
(3440,-164,cs),
(3440,-464,o),
(3648,-726,o),
(3934,-726,cs)
);
},
{
closed = 1;
nodes = (
(942,-726,o),
(1094,-592,o),
(1130,-400,c),
(1134,-400,l),
(1128,-700,l),
(1218,-700,l),
(1218,300,l),
(1122,300,l),
(1128,-8,l),
(1124,-8,l),
(1106,186,o),
(956,322,o),
(714,322,cs),
(428,322,o),
(192,76,o),
(192,-204,cs),
(192,-484,o),
(428,-726,o),
(714,-726,cs)
);
},
{
closed = 1;
nodes = (
(458,-638,o),
(288,-422,o),
(288,-202,cs),
(288,22,o),
(458,234,o),
(720,234,cs),
(988,234,o),
(1130,20,o),
(1130,-204,cs),
(1130,-450,o),
(986,-638,o),
(720,-638,cs)
);
},
{
closed = 1;
nodes = (
(984,554,o),
(1128,714,o),
(1178,890,c),
(1154,890,l),
(1154,580,l),
(1216,580,l),
(1216,1580,l),
(1148,1580,l),
(1148,1262,l),
(1178,1262,l),
(1128,1440,o),
(984,1602,o),
(714,1602,cs),
(428,1602,o),
(192,1356,o),
(192,1076,cs),
(192,796,o),
(428,554,o),
(714,554,cs)
);
},
{
closed = 1;
nodes = (
(440,612,o),
(258,842,o),
(258,1078,cs),
(258,1318,o),
(440,1544,o),
(720,1544,cs),
(1008,1544,o),
(1160,1316,o),
(1160,1076,cs),
(1160,814,o),
(1008,612,o),
(720,612,cs)
);
},
{
closed = 1;
nodes = (
(2542,-726,o),
(2644,-592,o),
(2658,-400,c),
(2670,-400,l),
(2662,-700,l),
(2916,-700,l),
(2916,340,l),
(2656,340,l),
(2664,32,l),
(2658,32,l),
(2644,226,o),
(2542,362,o),
(2314,362,cs),
(2028,362,o),
(1800,116,o),
(1800,-184,cs),
(1800,-484,o),
(2028,-726,o),
(2314,-726,cs)
);
},
{
closed = 1;
nodes = (
(2180,-492,o),
(2062,-344,o),
(2062,-182,cs),
(2062,-16,o),
(2180,128,o),
(2358,128,cs),
(2542,128,o),
(2664,-18,o),
(2664,-184,cs),
(2664,-350,o),
(2540,-492,o),
(2358,-492,cs)
);
},
{
closed = 1;
nodes = (
(2554,554,o),
(2640,684,o),
(2690,860,c),
(2650,860,l),
(2650,580,l),
(2912,580,l),
(2912,1620,l),
(2644,1620,l),
(2644,1332,l),
(2690,1332,l),
(2640,1510,o),
(2554,1642,o),
(2314,1642,cs),
(2028,1642,o),
(1800,1396,o),
(1800,1096,cs),
(1800,796,o),
(2028,554,o),
(2314,554,cs)
);
},
{
closed = 1;
nodes = (
(2186,798,o),
(2070,940,o),
(2070,1098,cs),
(2070,1260,o),
(2186,1398,o),
(2358,1398,cs),
(2536,1398,o),
(2650,1258,o),
(2650,1096,cs),
(2650,934,o),
(2536,798,o),
(2358,798,cs)
);
},
{
closed = 1;
nodes = (
(3938,-374,o),
(3858,-270,o),
(3858,-162,cs),
(3858,-34,o),
(3938,50,o),
(4056,50,cs),
(4176,50,o),
(4264,-36,o),
(4264,-164,cs),
(4264,-270,o),
(4176,-374,o),
(4056,-374,cs)
);
},
{
closed = 1;
nodes = (
(4140,554,o),
(4260,664,o),
(4310,840,c),
(4230,860,l),
(4230,580,l),
(4692,580,l),
(4692,1640,l),
(4224,1640,l),
(4224,1352,l),
(4310,1372,l),
(4260,1550,o),
(4140,1662,o),
(3914,1662,cs),
(3628,1662,o),
(3440,1416,o),
(3440,1106,cs),
(3440,796,o),
(3628,554,o),
(3914,554,cs)
);
},
{
closed = 1;
nodes = (
(3978,938,o),
(3914,1012,o),
(3914,1108,cs),
(3914,1206,o),
(3978,1278,o),
(4072,1278,cs),
(4166,1278,o),
(4230,1204,o),
(4230,1106,cs),
(4230,1010,o),
(4166,938,o),
(4072,938,cs)
);
},
{
closed = 1;
nodes = (
(6142,-726,o),
(6294,-592,o),
(6330,-400,c),
(6334,-400,l),
(6328,-700,l),
(6418,-700,l),
(6418,300,l),
(6322,300,l),
(6328,-8,l),
(6324,-8,l),
(6306,186,o),
(6156,322,o),
(5914,322,cs),
(5628,322,o),
(5392,76,o),
(5392,-204,cs),
(5392,-484,o),
(5628,-726,o),
(5914,-726,cs)
);
},
{
closed = 1;
nodes = (
(5658,-638,o),
(5488,-422,o),
(5488,-202,cs),
(5488,22,o),
(5658,234,o),
(5920,234,cs),
(6188,234,o),
(6330,20,o),
(6330,-204,cs),
(6330,-450,o),
(6186,-638,o),
(5920,-638,cs)
);
},
{
closed = 1;
nodes = (
(6184,554,o),
(6328,714,o),
(6378,890,c),
(6354,890,l),
(6354,580,l),
(6416,580,l),
(6416,1580,l),
(6348,1580,l),
(6348,1262,l),
(6378,1262,l),
(6328,1440,o),
(6184,1602,o),
(5914,1602,cs),
(5628,1602,o),
(5392,1356,o),
(5392,1076,cs),
(5392,796,o),
(5628,554,o),
(5914,554,cs)
);
},
{
closed = 1;
nodes = (
(5640,612,o),
(5458,842,o),
(5458,1078,cs),
(5458,1318,o),
(5640,1544,o),
(5920,1544,cs),
(6208,1544,o),
(6360,1316,o),
(6360,1076,cs),
(6360,814,o),
(6208,612,o),
(5920,612,cs)
);
}
);
width = 4712;
},
{
background = {
shapes = (
{
closed = 1;
nodes = (
(954,-26,o),
(1040,104,o),
(1090,280,c),
(1050,280,l),
(1050,0,l),
(1312,0,l),
(1312,1040,l),
(1044,1040,l),
(1044,752,l),
(1090,752,l),
(1040,930,o),
(954,1062,o),
(714,1062,cs),
(428,1062,o),
(200,816,o),
(200,516,cs),
(200,216,o),
(428,-26,o),
(714,-26,cs)
);
},
{
closed = 1;
nodes = (
(4208,-26,o),
(4294,104,o),
(4344,280,c),
(4304,280,l),
(4304,0,l),
(4566,0,l),
(4566,1040,l),
(4298,1040,l),
(4298,752,l),
(4344,752,l),
(4294,930,o),
(4208,1062,o),
(3968,1062,cs),
(3682,1062,o),
(3454,816,o),
(3454,516,cs),
(3454,216,o),
(3682,-26,o),
(3968,-26,cs)
);
},
{
closed = 1;
nodes = (
(3840,218,o),
(3724,360,o),
(3724,518,cs),
(3724,680,o),
(3840,818,o),
(4012,818,cs),
(4190,818,o),
(4304,678,o),
(4304,516,cs),
(4304,354,o),
(4190,218,o),
(4012,218,cs)
);
},
{
closed = 1;
nodes = (
(2538,-1226,o),
(2662,-1056,o),
(2690,-900,c),
(2662,-900,l),
(2662,-1200,l),
(2916,-1200,l),
(2916,-160,l),
(2656,-160,l),
(2656,-508,l),
(2690,-468,l),
(2662,-310,o),
(2538,-138,o),
(2314,-138,cs),
(2028,-138,o),
(1800,-384,o),
(1800,-684,cs),
(1800,-984,o),
(2028,-1226,o),
(2314,-1226,cs)
);
},
{
closed = 1;
nodes = (
(2180,-992,o),
(2062,-844,o),
(2062,-682,cs),
(2062,-516,o),
(2180,-372,o),
(2358,-372,cs),
(2542,-372,o),
(2664,-518,o),
(2664,-684,cs),
(2664,-850,o),
(2540,-992,o),
(2358,-992,cs)
);
},
{
closed = 1;
nodes = (
(1024,-1226,o),
(1106,-1026,o),
(1130,-900,c),
(1134,-900,l),
(1128,-1200,l),
(1218,-1200,l),
(1218,-200,l),
(1122,-200,l),
(1128,-508,l),
(1124,-508,l),
(1112,-380,o),
(1024,-178,o),
(714,-178,cs),
(428,-178,o),
(192,-424,o),
(192,-704,cs),
(192,-984,o),
(428,-1226,o),
(714,-1226,cs)
);
},
{
closed = 1;
nodes = (
(458,-1138,o),
(288,-922,o),
(288,-702,cs),
(288,-478,o),
(458,-266,o),
(720,-266,cs),
(988,-266,o),
(1130,-480,o),
(1130,-704,cs),
(1130,-950,o),
(986,-1138,o),
(720,-1138,cs)
);
},
{
closed = 1;
nodes = (
(4162,-1226,o),
(4260,-1096,o),
(4310,-940,c),
(4258,-900,l),
(4258,-1200,l),
(4674,-1200,l),
(4674,-120,l),
(4252,-120,l),
(4252,-508,l),
(4310,-388,l),
(4260,-230,o),
(4162,-98,o),
(3934,-98,cs),
(3648,-98,o),
(3440,-344,o),
(3440,-664,cs),
(3440,-964,o),
(3648,-1226,o),
(3934,-1226,cs)
);
},
{
closed = 1;
nodes = (
(3938,-874,o),
(3858,-770,o),
(3858,-662,cs),
(3858,-534,o),
(3938,-450,o),
(4056,-450,cs),
(4176,-450,o),
(4264,-536,o),
(4264,-664,cs),
(4264,-770,o),
(4176,-874,o),
(4056,-874,cs)
);
}
);
};
layerId = "6B540EA0-879E-4877-ADBF-1E90C7170424";
shapes = (
{
closed = 1;
nodes = (
(4142,-726,o),
(4240,-608,o),
(4268,-440,c),
(4270,-440,l),
(4258,-700,l),
(4674,-700,l),
(4674,380,l),
(4252,380,l),
(4264,112,l),
(4262,112,l),
(4234,282,o),
(4138,402,o),
(3934,402,cs),
(3648,402,o),
(3440,156,o),
(3440,-164,cs),
(3440,-464,o),
(3648,-726,o),
(3934,-726,cs)
);
},
{
closed = 1;
nodes = (
(942,-726,o),
(1094,-592,o),
(1130,-400,c),
(1134,-400,l),
(1128,-700,l),
(1218,-700,l),
(1218,300,l),
(1122,300,l),
(1128,-8,l),
(1124,-8,l),
(1106,186,o),
(956,322,o),
(714,322,cs),
(428,322,o),
(192,76,o),
(192,-204,cs),
(192,-484,o),
(428,-726,o),
(714,-726,cs)
);
},
{
closed = 1;
nodes = (
(458,-638,o),
(288,-422,o),
(288,-202,cs),
(288,22,o),
(458,234,o),
(720,234,cs),
(988,234,o),
(1130,20,o),
(1130,-204,cs),
(1130,-450,o),
(986,-638,o),
(720,-638,cs)
);
},
{
closed = 1;
nodes = (
(984,554,o),
(1128,714,o),
(1178,890,c),
(1154,890,l),
(1154,580,l),
(1216,580,l),
(1216,1580,l),
(1148,1580,l),
(1148,1262,l),
(1178,1262,l),
(1128,1440,o),
(984,1602,o),
(714,1602,cs),
(428,1602,o),
(192,1356,o),
(192,1076,cs),
(192,796,o),
(428,554,o),
(714,554,cs)
);
},
{
closed = 1;
nodes = (
(440,612,o),
(258,842,o),
(258,1078,cs),
(258,1318,o),
(440,1544,o),
(720,1544,cs),
(1008,1544,o),
(1160,1316,o),
(1160,1076,cs),
(1160,814,o),
(1008,612,o),
(720,612,cs)
);
},
{
closed = 1;
nodes = (
(2542,-726,o),
(2644,-592,o),
(2658,-400,c),
(2670,-400,l),
(2662,-700,l),
(2916,-700,l),
(2916,340,l),
(2656,340,l),
(2664,32,l),
(2658,32,l),
(2644,226,o),
(2542,362,o),
(2314,362,cs),
(2028,362,o),
(1800,116,o),
(1800,-184,cs),
(1800,-484,o),
(2028,-726,o),
(2314,-726,cs)
);
},
{
closed = 1;
nodes = (
(2180,-492,o),
(2062,-344,o),
(2062,-182,cs),
(2062,-16,o),
(2180,128,o),
(2358,128,cs),
(2542,128,o),
(2664,-18,o),
(2664,-184,cs),
(2664,-350,o),
(2540,-492,o),
(2358,-492,cs)
);
},
{
closed = 1;
nodes = (
(2554,554,o),
(2640,684,o),
(2690,860,c),
(2650,860,l),
(2650,580,l),
(2912,580,l),
(2912,1620,l),
(2644,1620,l),
(2644,1332,l),
(2690,1332,l),
(2640,1510,o),
(2554,1642,o),
(2314,1642,cs),
(2028,1642,o),
(1800,1396,o),
(1800,1096,cs),
(1800,796,o),
(2028,554,o),
(2314,554,cs)
);
},
{
closed = 1;
nodes = (
(2186,798,o),
(2070,940,o),
(2070,1098,cs),
(2070,1260,o),
(2186,1398,o),
(2358,1398,cs),
(2536,1398,o),
(2650,1258,o),
(2650,1096,cs),
(2650,934,o),
(2536,798,o),
(2358,798,cs)
);
},
{
closed = 1;
nodes = (
(3938,-374,o),
(3858,-270,o),
(3858,-162,cs),
(3858,-34,o),
(3938,50,o),
(4056,50,cs),
(4176,50,o),
(4264,-36,o),
(4264,-164,cs),
(4264,-270,o),
(4176,-374,o),
(4056,-374,cs)
);
},
{
closed = 1;
nodes = (
(4140,554,o),
(4260,664,o),
(4310,840,c),
(4230,860,l),
(4230,580,l),
(4692,580,l),
(4692,1640,l),
(4224,1640,l),
(4224,1352,l),
(4310,1372,l),
(4260,1550,o),
(4140,1662,o),
(3914,1662,cs),
(3628,1662,o),
(3440,1416,o),
(3440,1106,cs),
(3440,796,o),
(3628,554,o),
(3914,554,cs)
);
},
{
closed = 1;
nodes = (
(3978,938,o),
(3914,1012,o),
(3914,1108,cs),
(3914,1206,o),
(3978,1278,o),
(4072,1278,cs),
(4166,1278,o),
(4230,1204,o),
(4230,1106,cs),
(4230,1010,o),
(4166,938,o),
(4072,938,cs)
);
},
{
closed = 1;
nodes = (
(6142,-726,o),
(6294,-592,o),
(6330,-400,c),
(6334,-400,l),
(6328,-700,l),
(6418,-700,l),
(6418,300,l),
(6322,300,l),
(6328,-8,l),
(6324,-8,l),
(6306,186,o),
(6156,322,o),
(5914,322,cs),
(5628,322,o),
(5392,76,o),
(5392,-204,cs),
(5392,-484,o),
(5628,-726,o),
(5914,-726,cs)
);
},
{
closed = 1;
nodes = (
(5658,-638,o),
(5488,-422,o),
(5488,-202,cs),
(5488,22,o),
(5658,234,o),
(5920,234,cs),
(6188,234,o),
(6330,20,o),
(6330,-204,cs),
(6330,-450,o),
(6186,-638,o),
(5920,-638,cs)
);
},
{
closed = 1;
nodes = (
(6184,554,o),
(6328,714,o),
(6378,890,c),
(6354,890,l),
(6354,580,l),
(6416,580,l),
(6416,1580,l),
(6348,1580,l),
(6348,1262,l),
(6378,1262,l),
(6328,1440,o),
(6184,1602,o),
(5914,1602,cs),
(5628,1602,o),
(5392,1356,o),
(5392,1076,cs),
(5392,796,o),
(5628,554,o),
(5914,554,cs)
);
},
{
closed = 1;
nodes = (
(5640,612,o),
(5458,842,o),
(5458,1078,cs),
(5458,1318,o),
(5640,1544,o),
(5920,1544,cs),
(6208,1544,o),
(6360,1316,o),
(6360,1076,cs),
(6360,814,o),
(6208,612,o),
(5920,612,cs)
);
}
);
width = 4712;
}
);
},
{
glyphname = f_f.ss02;
kernLeft = f;
kernRight = f;
lastChange = "2022-04-29 18:10:09 +0000";
layers = (
{
anchors = (
{
name = bottom;
pos = (832,0);
},
{
name = ogonek;
pos = (968,0);
},
{
name = top;
pos = (958,1456);
}
);
background = {
shapes = (
{
closed = 1;
nodes = (
(968,1320,o),
(800,1460,o),
(562,1460,cs),
(324,1460,o),
(156,1322,o),
(156,1080,cs),
(156,0,l),
(426,0,l),
(426,1076,ls),
(426,1168,o),
(474,1238,o),
(562,1238,cs),
(652,1238,o),
(698,1168,o),
(698,1076,c),
(968,1080,l)
);
},
{
closed = 1;
nodes = (
(968,0,l),
(968,1106,ls),
(968,1188,o),
(1006,1230,o),
(1086,1230,cs),
(1156,1230,l),
(1156,1460,l),
(1044,1460,ls),
(834,1460,o),
(698,1320,o),
(698,1110,cs),
(698,0,l)
);
}
);
};
layerId = "1B5AC656-48C3-4864-953F-2CD31E7BA751";
shapes = (
{
closed = 1;
nodes = (
(426,0,l),
(426,1076,ls),
(426,1168,o),
(474,1238,o),
(562,1238,cs),
(652,1238,o),
(698,1168,o),
(698,1076,c),
(896,1256,l),
(822,1416,o),
(712,1460,o),
(542,1460,cs),
(324,1460,o),
(156,1322,o),
(156,1080,cs),
(156,0,l)
);
},
{
closed = 1;
nodes = (
(1180,810,l),
(1180,1040,l),
(10,1040,l),
(10,810,l)
);
},
{
closed = 1;
nodes = (
(968,0,l),
(968,1106,ls),
(968,1188,o),
(1006,1230,o),
(1086,1230,cs),
(1156,1230,l),
(1156,1460,l),
(1064,1460,ls),
(906,1460,o),
(838,1400,o),
(798,1278,c),
(698,1204,l),
(698,0,l)
);
}
);
width = 1200;
},
{
anchors = (
{
name = bottom;
pos = (832,0);
},
{
name = ogonek;
pos = (968,0);
},
{
name = top;
pos = (958,1456);
}
);
background = {
shapes = (
{
closed = 1;
nodes = (
(968,1320,o),
(800,1460,o),
(562,1460,cs),
(324,1460,o),
(156,1322,o),
(156,1080,cs),
(156,0,l),
(426,0,l),
(426,1076,ls),
(426,1168,o),
(474,1238,o),
(562,1238,cs),
(652,1238,o),
(698,1168,o),
(698,1076,c),
(968,1080,l)
);
},
{
closed = 1;
nodes = (
(968,0,l),
(968,1106,ls),
(968,1188,o),
(1006,1230,o),
(1086,1230,cs),
(1156,1230,l),
(1156,1460,l),
(1044,1460,ls),
(834,1460,o),
(698,1320,o),
(698,1110,cs),
(698,0,l)
);
}
);
};
layerId = "6B540EA0-879E-4877-ADBF-1E90C7170424";
shapes = (
{
closed = 1;
nodes = (
(426,0,l),
(426,1076,ls),
(426,1168,o),
(474,1238,o),
(562,1238,cs),
(652,1238,o),
(698,1168,o),
(698,1076,c),
(896,1256,l),
(822,1416,o),
(712,1460,o),
(542,1460,cs),
(324,1460,o),
(156,1322,o),
(156,1080,cs),
(156,0,l)
);
},
{
closed = 1;
nodes = (
(1180,810,l),
(1180,1040,l),
(10,1040,l),
(10,810,l)
);
},
{
closed = 1;
nodes = (
(968,0,l),
(968,1106,ls),
(968,1188,o),
(1006,1230,o),
(1086,1230,cs),
(1156,1230,l),
(1156,1460,l),
(1064,1460,ls),
(906,1460,o),
(838,1400,o),
(798,1278,c),
(698,1204,l),
(698,0,l)
);
}
);
width = 1200;
}
);
},
